G04 #@! TF.GenerationSoftware,KiCad,Pcbnew,5.1.12-84ad8e8a86~92~ubuntu20.04.1*
G04 #@! TF.CreationDate,2022-02-12T14:31:20-08:00*
G04 #@! TF.ProjectId,lp_filter_8_bands,6c705f66-696c-4746-9572-5f385f62616e,rev?*
G04 #@! TF.SameCoordinates,Original*
G04 #@! TF.FileFunction,Paste,Top*
G04 #@! TF.FilePolarity,Positive*
%FSLAX46Y46*%
G04 Gerber Fmt 4.6, Leading zero omitted, Abs format (unit mm)*
G04 Created by KiCad (PCBNEW 5.1.12-84ad8e8a86~92~ubuntu20.04.1) date 2022-02-12 14:31:20*
%MOMM*%
%LPD*%
G01*
G04 APERTURE LIST*
%ADD10R,3.600000X1.270000*%
%ADD11R,4.200000X1.350000*%
%ADD12R,1.200000X1.200000*%
%ADD13R,1.300000X0.900000*%
%ADD14R,0.900000X1.300000*%
G04 APERTURE END LIST*
D10*
X247700000Y-134000000D03*
D11*
X247500000Y-131450000D03*
X247500000Y-136550000D03*
D10*
X247700000Y-117000000D03*
D11*
X247500000Y-114450000D03*
X247500000Y-119550000D03*
D10*
X247700000Y-66000000D03*
D11*
X247500000Y-63450000D03*
X247500000Y-68550000D03*
D12*
X210700000Y-83250000D03*
X212800000Y-83250000D03*
X212800000Y-90250000D03*
X210700000Y-90250000D03*
X210700000Y-97250000D03*
X212800000Y-97250000D03*
X212800000Y-104250000D03*
X210700000Y-104250000D03*
X210700000Y-111250000D03*
X212800000Y-111250000D03*
X210700000Y-118250000D03*
X212800000Y-118250000D03*
X212800000Y-125250000D03*
X210700000Y-125250000D03*
X212800000Y-76250000D03*
X210700000Y-76250000D03*
D13*
X195210000Y-55647500D03*
X195210000Y-57552500D03*
X197590000Y-142847500D03*
X197590000Y-144752500D03*
D14*
X233152500Y-82390000D03*
X231247500Y-82390000D03*
X233152500Y-85790000D03*
X231247500Y-85790000D03*
G36*
G01*
X236550000Y-85343750D02*
X236550000Y-86256250D01*
G75*
G02*
X236306250Y-86500000I-243750J0D01*
G01*
X235818750Y-86500000D01*
G75*
G02*
X235575000Y-86256250I0J243750D01*
G01*
X235575000Y-85343750D01*
G75*
G02*
X235818750Y-85100000I243750J0D01*
G01*
X236306250Y-85100000D01*
G75*
G02*
X236550000Y-85343750I0J-243750D01*
G01*
G37*
G36*
G01*
X238425000Y-85343750D02*
X238425000Y-86256250D01*
G75*
G02*
X238181250Y-86500000I-243750J0D01*
G01*
X237693750Y-86500000D01*
G75*
G02*
X237450000Y-86256250I0J243750D01*
G01*
X237450000Y-85343750D01*
G75*
G02*
X237693750Y-85100000I243750J0D01*
G01*
X238181250Y-85100000D01*
G75*
G02*
X238425000Y-85343750I0J-243750D01*
G01*
G37*
G36*
G01*
X238425000Y-81943750D02*
X238425000Y-82856250D01*
G75*
G02*
X238181250Y-83100000I-243750J0D01*
G01*
X237693750Y-83100000D01*
G75*
G02*
X237450000Y-82856250I0J243750D01*
G01*
X237450000Y-81943750D01*
G75*
G02*
X237693750Y-81700000I243750J0D01*
G01*
X238181250Y-81700000D01*
G75*
G02*
X238425000Y-81943750I0J-243750D01*
G01*
G37*
G36*
G01*
X236550000Y-81943750D02*
X236550000Y-82856250D01*
G75*
G02*
X236306250Y-83100000I-243750J0D01*
G01*
X235818750Y-83100000D01*
G75*
G02*
X235575000Y-82856250I0J243750D01*
G01*
X235575000Y-81943750D01*
G75*
G02*
X235818750Y-81700000I243750J0D01*
G01*
X236306250Y-81700000D01*
G75*
G02*
X236550000Y-81943750I0J-243750D01*
G01*
G37*
M02*
