%FSLAX45Y45*%
G04 Gerber Fmt 4.5, Leading zero omitted, Abs format (unit mm)*
G04 Created by KiCad (PCBNEW 5.1.12-84ad8e8a86~92~ubuntu20.04.1) date 2022-02-12 14:31:15*
%MOMM*%
%LPD*%
G01*
G04 APERTURE LIST*
%TA.AperFunction,Profile*%
%ADD10C,0.150000*%
%TD*%
%ADD11C,0.200000*%
%ADD12C,0.300000*%
G04 APERTURE END LIST*
D10*
X5000000Y-15000000D02*
X5000000Y-5000000D01*
X25000000Y-15000000D02*
X5000000Y-15000000D01*
X25000000Y-5000000D02*
X25000000Y-15000000D01*
X5000000Y-5000000D02*
X25000000Y-5000000D01*
D11*
X5085000Y-8845000D02*
X5115000Y-8875000D01*
X5115000Y-8845000D02*
X5085000Y-8875000D01*
X5085000Y-8925000D02*
X5115000Y-8955000D01*
X5115000Y-8925000D02*
X5085000Y-8955000D01*
X5085000Y-9005000D02*
X5115000Y-9035000D01*
X5115000Y-9005000D02*
X5085000Y-9035000D01*
X5085000Y-9085000D02*
X5115000Y-9115000D01*
X5115000Y-9085000D02*
X5085000Y-9115000D01*
X5085000Y-9165000D02*
X5115000Y-9195000D01*
X5115000Y-9165000D02*
X5085000Y-9195000D01*
X5085000Y-9245000D02*
X5115000Y-9275000D01*
X5115000Y-9245000D02*
X5085000Y-9275000D01*
X5185000Y-6385000D02*
X5215000Y-6415000D01*
X5215000Y-6385000D02*
X5185000Y-6415000D01*
X5185000Y-7985000D02*
X5215000Y-8015000D01*
X5215000Y-7985000D02*
X5185000Y-8015000D01*
X5185000Y-10985000D02*
X5215000Y-11015000D01*
X5215000Y-10985000D02*
X5185000Y-11015000D01*
X5185000Y-12385000D02*
X5215000Y-12415000D01*
X5215000Y-12385000D02*
X5185000Y-12415000D01*
X5585000Y-12445000D02*
X5615000Y-12475000D01*
X5615000Y-12445000D02*
X5585000Y-12475000D01*
X5585000Y-12525000D02*
X5615000Y-12555000D01*
X5615000Y-12525000D02*
X5585000Y-12555000D01*
X5585000Y-12605000D02*
X5615000Y-12635000D01*
X5615000Y-12605000D02*
X5585000Y-12635000D01*
X5585000Y-12685000D02*
X5615000Y-12715000D01*
X5615000Y-12685000D02*
X5585000Y-12715000D01*
X5585000Y-12765000D02*
X5615000Y-12795000D01*
X5615000Y-12765000D02*
X5585000Y-12795000D01*
X5585000Y-12845000D02*
X5615000Y-12875000D01*
X5615000Y-12845000D02*
X5585000Y-12875000D01*
X6205000Y-7165000D02*
X6235000Y-7195000D01*
X6235000Y-7165000D02*
X6205000Y-7195000D01*
X6205000Y-7245000D02*
X6235000Y-7275000D01*
X6235000Y-7245000D02*
X6205000Y-7275000D01*
X6205000Y-7325000D02*
X6235000Y-7355000D01*
X6235000Y-7325000D02*
X6205000Y-7355000D01*
X6205000Y-7405000D02*
X6235000Y-7435000D01*
X6235000Y-7405000D02*
X6205000Y-7435000D01*
X6205000Y-7485000D02*
X6235000Y-7515000D01*
X6235000Y-7485000D02*
X6205000Y-7515000D01*
X6205000Y-7565000D02*
X6235000Y-7595000D01*
X6235000Y-7565000D02*
X6205000Y-7595000D01*
X6205000Y-10785000D02*
X6235000Y-10815000D01*
X6235000Y-10785000D02*
X6205000Y-10815000D01*
X6205000Y-10865000D02*
X6235000Y-10895000D01*
X6235000Y-10865000D02*
X6205000Y-10895000D01*
X6205000Y-10945000D02*
X6235000Y-10975000D01*
X6235000Y-10945000D02*
X6205000Y-10975000D01*
X6205000Y-11025000D02*
X6235000Y-11055000D01*
X6235000Y-11025000D02*
X6205000Y-11055000D01*
X6205000Y-11105000D02*
X6235000Y-11135000D01*
X6235000Y-11105000D02*
X6205000Y-11135000D01*
X6205000Y-11185000D02*
X6235000Y-11215000D01*
X6235000Y-11185000D02*
X6205000Y-11215000D01*
X6565000Y-5985000D02*
X6595000Y-6015000D01*
X6595000Y-5985000D02*
X6565000Y-6015000D01*
X6575000Y-5425000D02*
X6605000Y-5455000D01*
X6605000Y-5425000D02*
X6575000Y-5455000D01*
X6665000Y-14385000D02*
X6695000Y-14415000D01*
X6695000Y-14385000D02*
X6665000Y-14415000D01*
X6705000Y-5585000D02*
X6735000Y-5615000D01*
X6735000Y-5585000D02*
X6705000Y-5615000D01*
X6785000Y-14005000D02*
X6815000Y-14035000D01*
X6815000Y-14005000D02*
X6785000Y-14035000D01*
X6795000Y-14545000D02*
X6825000Y-14575000D01*
X6825000Y-14545000D02*
X6795000Y-14575000D01*
X6865000Y-8085000D02*
X6895000Y-8115000D01*
X6895000Y-8085000D02*
X6865000Y-8115000D01*
X6865000Y-8165000D02*
X6895000Y-8195000D01*
X6895000Y-8165000D02*
X6865000Y-8195000D01*
X6865000Y-8245000D02*
X6895000Y-8275000D01*
X6895000Y-8245000D02*
X6865000Y-8275000D01*
X6865000Y-8325000D02*
X6895000Y-8355000D01*
X6895000Y-8325000D02*
X6865000Y-8355000D01*
X6865000Y-8405000D02*
X6895000Y-8435000D01*
X6895000Y-8405000D02*
X6865000Y-8435000D01*
X6865000Y-8485000D02*
X6895000Y-8515000D01*
X6895000Y-8485000D02*
X6865000Y-8515000D01*
X6945000Y-12225000D02*
X6975000Y-12255000D01*
X6975000Y-12225000D02*
X6945000Y-12255000D01*
X6945000Y-12305000D02*
X6975000Y-12335000D01*
X6975000Y-12305000D02*
X6945000Y-12335000D01*
X6945000Y-12385000D02*
X6975000Y-12415000D01*
X6975000Y-12385000D02*
X6945000Y-12415000D01*
X6945000Y-12465000D02*
X6975000Y-12495000D01*
X6975000Y-12465000D02*
X6945000Y-12495000D01*
X6945000Y-12545000D02*
X6975000Y-12575000D01*
X6975000Y-12545000D02*
X6945000Y-12575000D01*
X6945000Y-12625000D02*
X6975000Y-12655000D01*
X6975000Y-12625000D02*
X6945000Y-12655000D01*
X7385000Y-5185000D02*
X7415000Y-5215000D01*
X7415000Y-5185000D02*
X7385000Y-5215000D01*
X7545000Y-14143000D02*
X7575000Y-14173000D01*
X7575000Y-14143000D02*
X7545000Y-14173000D01*
X7585000Y-5185000D02*
X7615000Y-5215000D01*
X7615000Y-5185000D02*
X7585000Y-5215000D01*
X7585000Y-14785000D02*
X7615000Y-14815000D01*
X7615000Y-14785000D02*
X7585000Y-14815000D01*
X7684999Y-6345000D02*
X7714999Y-6375000D01*
X7714999Y-6345000D02*
X7684999Y-6375000D01*
X7785000Y-14785000D02*
X7815000Y-14815000D01*
X7815000Y-14785000D02*
X7785000Y-14815000D01*
X7985000Y-7065000D02*
X8015000Y-7095000D01*
X8015000Y-7065000D02*
X7985000Y-7095000D01*
X7985000Y-7145000D02*
X8015000Y-7175000D01*
X8015000Y-7145000D02*
X7985000Y-7175000D01*
X7985000Y-7225000D02*
X8015000Y-7255000D01*
X8015000Y-7225000D02*
X7985000Y-7255000D01*
X7985000Y-7305000D02*
X8015000Y-7335000D01*
X8015000Y-7305000D02*
X7985000Y-7335000D01*
X7985000Y-7385000D02*
X8015000Y-7415000D01*
X8015000Y-7385000D02*
X7985000Y-7415000D01*
X7985000Y-7465000D02*
X8015000Y-7495000D01*
X8015000Y-7465000D02*
X7985000Y-7495000D01*
X8385000Y-5985000D02*
X8415000Y-6015000D01*
X8415000Y-5985000D02*
X8385000Y-6015000D01*
X8465000Y-14385000D02*
X8495000Y-14415000D01*
X8495000Y-14385000D02*
X8465000Y-14415000D01*
X8475000Y-5415000D02*
X8505000Y-5445000D01*
X8505000Y-5415000D02*
X8475000Y-5445000D01*
X8585000Y-13985000D02*
X8615000Y-14015000D01*
X8615000Y-13985000D02*
X8585000Y-14015000D01*
X8595000Y-14545000D02*
X8625000Y-14575000D01*
X8625000Y-14545000D02*
X8595000Y-14575000D01*
X8605000Y-5585000D02*
X8635000Y-5615000D01*
X8635000Y-5585000D02*
X8605000Y-5615000D01*
X8985000Y-10705000D02*
X9015000Y-10735000D01*
X9015000Y-10705000D02*
X8985000Y-10735000D01*
X8985000Y-10785000D02*
X9015000Y-10815000D01*
X9015000Y-10785000D02*
X8985000Y-10815000D01*
X8985000Y-10865000D02*
X9015000Y-10895000D01*
X9015000Y-10865000D02*
X8985000Y-10895000D01*
X8985000Y-10945000D02*
X9015000Y-10975000D01*
X9015000Y-10945000D02*
X8985000Y-10975000D01*
X8985000Y-11025000D02*
X9015000Y-11055000D01*
X9015000Y-11025000D02*
X8985000Y-11055000D01*
X8985000Y-11105000D02*
X9015000Y-11135000D01*
X9015000Y-11105000D02*
X8985000Y-11135000D01*
X9345000Y-14102999D02*
X9375000Y-14132999D01*
X9375000Y-14102999D02*
X9345000Y-14132999D01*
X9385000Y-5185000D02*
X9415000Y-5215000D01*
X9415000Y-5185000D02*
X9385000Y-5215000D01*
X9385000Y-14785000D02*
X9415000Y-14815000D01*
X9415000Y-14785000D02*
X9385000Y-14815000D01*
X9565000Y-5185000D02*
X9595000Y-5215000D01*
X9595000Y-5185000D02*
X9565000Y-5215000D01*
X9585000Y-6305000D02*
X9615000Y-6335000D01*
X9615000Y-6305000D02*
X9585000Y-6335000D01*
X9585000Y-14785000D02*
X9615000Y-14815000D01*
X9615000Y-14785000D02*
X9585000Y-14815000D01*
X9945000Y-12365000D02*
X9975000Y-12395000D01*
X9975000Y-12365000D02*
X9945000Y-12395000D01*
X9945000Y-12445000D02*
X9975000Y-12475000D01*
X9975000Y-12445000D02*
X9945000Y-12475000D01*
X9945000Y-12525000D02*
X9975000Y-12555000D01*
X9975000Y-12525000D02*
X9945000Y-12555000D01*
X9945000Y-12605000D02*
X9975000Y-12635000D01*
X9975000Y-12605000D02*
X9945000Y-12635000D01*
X9945000Y-12685000D02*
X9975000Y-12715000D01*
X9975000Y-12685000D02*
X9945000Y-12715000D01*
X9945000Y-12765000D02*
X9975000Y-12795000D01*
X9975000Y-12765000D02*
X9945000Y-12795000D01*
X10165000Y-8765000D02*
X10195000Y-8795000D01*
X10195000Y-8765000D02*
X10165000Y-8795000D01*
X10165000Y-8845000D02*
X10195000Y-8875000D01*
X10195000Y-8845000D02*
X10165000Y-8875000D01*
X10165000Y-8925000D02*
X10195000Y-8955000D01*
X10195000Y-8925000D02*
X10165000Y-8955000D01*
X10165000Y-9005000D02*
X10195000Y-9035000D01*
X10195000Y-9005000D02*
X10165000Y-9035000D01*
X10165000Y-9085000D02*
X10195000Y-9115000D01*
X10195000Y-9085000D02*
X10165000Y-9115000D01*
X10165000Y-9165000D02*
X10195000Y-9195000D01*
X10195000Y-9165000D02*
X10165000Y-9195000D01*
X10265000Y-10505000D02*
X10295000Y-10535000D01*
X10295000Y-10505000D02*
X10265000Y-10535000D01*
X10265000Y-10585000D02*
X10295000Y-10615000D01*
X10295000Y-10585000D02*
X10265000Y-10615000D01*
X10265000Y-10665000D02*
X10295000Y-10695000D01*
X10295000Y-10665000D02*
X10265000Y-10695000D01*
X10265000Y-10745000D02*
X10295000Y-10775000D01*
X10295000Y-10745000D02*
X10265000Y-10775000D01*
X10265000Y-10825000D02*
X10295000Y-10855000D01*
X10295000Y-10825000D02*
X10265000Y-10855000D01*
X10265000Y-10905000D02*
X10295000Y-10935000D01*
X10295000Y-10905000D02*
X10265000Y-10935000D01*
X10265000Y-14385000D02*
X10295000Y-14415000D01*
X10295000Y-14385000D02*
X10265000Y-14415000D01*
X10345000Y-6965000D02*
X10375000Y-6995000D01*
X10375000Y-6965000D02*
X10345000Y-6995000D01*
X10345000Y-7045000D02*
X10375000Y-7075000D01*
X10375000Y-7045000D02*
X10345000Y-7075000D01*
X10345000Y-7125000D02*
X10375000Y-7155000D01*
X10375000Y-7125000D02*
X10345000Y-7155000D01*
X10345000Y-7205000D02*
X10375000Y-7235000D01*
X10375000Y-7205000D02*
X10345000Y-7235000D01*
X10345000Y-7285000D02*
X10375000Y-7315000D01*
X10375000Y-7285000D02*
X10345000Y-7315000D01*
X10345000Y-7365000D02*
X10375000Y-7395000D01*
X10375000Y-7365000D02*
X10345000Y-7395000D01*
X10375000Y-5415000D02*
X10405000Y-5445000D01*
X10405000Y-5415000D02*
X10375000Y-5445000D01*
X10385000Y-5985000D02*
X10415000Y-6015000D01*
X10415000Y-5985000D02*
X10385000Y-6015000D01*
X10385000Y-13985000D02*
X10415000Y-14015000D01*
X10415000Y-13985000D02*
X10385000Y-14015000D01*
X10385000Y-14525000D02*
X10415000Y-14555000D01*
X10415000Y-14525000D02*
X10385000Y-14555000D01*
X10505000Y-5585000D02*
X10535000Y-5615000D01*
X10535000Y-5585000D02*
X10505000Y-5615000D01*
X11125000Y-14062998D02*
X11155000Y-14092998D01*
X11155000Y-14062998D02*
X11125000Y-14092998D01*
X11165000Y-12665000D02*
X11195000Y-12695000D01*
X11195000Y-12665000D02*
X11165000Y-12695000D01*
X11165000Y-12745000D02*
X11195000Y-12775000D01*
X11195000Y-12745000D02*
X11165000Y-12775000D01*
X11165000Y-12825000D02*
X11195000Y-12855000D01*
X11195000Y-12825000D02*
X11165000Y-12855000D01*
X11165000Y-12905000D02*
X11195000Y-12935000D01*
X11195000Y-12905000D02*
X11165000Y-12935000D01*
X11165000Y-12985000D02*
X11195000Y-13015000D01*
X11195000Y-12985000D02*
X11165000Y-13015000D01*
X11165000Y-13065000D02*
X11195000Y-13095000D01*
X11195000Y-13065000D02*
X11165000Y-13095000D01*
X11185000Y-5185000D02*
X11215000Y-5215000D01*
X11215000Y-5185000D02*
X11185000Y-5215000D01*
X11185000Y-14785000D02*
X11215000Y-14815000D01*
X11215000Y-14785000D02*
X11185000Y-14815000D01*
X11345000Y-8365000D02*
X11375000Y-8395000D01*
X11375000Y-8365000D02*
X11345000Y-8395000D01*
X11345000Y-8445000D02*
X11375000Y-8475000D01*
X11375000Y-8445000D02*
X11345000Y-8475000D01*
X11345000Y-8525000D02*
X11375000Y-8555000D01*
X11375000Y-8525000D02*
X11345000Y-8555000D01*
X11345000Y-8605000D02*
X11375000Y-8635000D01*
X11375000Y-8605000D02*
X11345000Y-8635000D01*
X11345000Y-8685000D02*
X11375000Y-8715000D01*
X11375000Y-8685000D02*
X11345000Y-8715000D01*
X11345000Y-8765000D02*
X11375000Y-8795000D01*
X11375000Y-8765000D02*
X11345000Y-8795000D01*
X11385000Y-5185000D02*
X11415000Y-5215000D01*
X11415000Y-5185000D02*
X11385000Y-5215000D01*
X11385000Y-14785000D02*
X11415000Y-14815000D01*
X11415000Y-14785000D02*
X11385000Y-14815000D01*
X11505000Y-6264999D02*
X11535000Y-6294999D01*
X11535000Y-6264999D02*
X11505000Y-6294999D01*
X11705000Y-7045000D02*
X11735000Y-7075000D01*
X11735000Y-7045000D02*
X11705000Y-7075000D01*
X11705000Y-7125000D02*
X11735000Y-7155000D01*
X11735000Y-7125000D02*
X11705000Y-7155000D01*
X11705000Y-7205000D02*
X11735000Y-7235000D01*
X11735000Y-7205000D02*
X11705000Y-7235000D01*
X11705000Y-7285000D02*
X11735000Y-7315000D01*
X11735000Y-7285000D02*
X11705000Y-7315000D01*
X11705000Y-7365000D02*
X11735000Y-7395000D01*
X11735000Y-7365000D02*
X11705000Y-7395000D01*
X11705000Y-7445000D02*
X11735000Y-7475000D01*
X11735000Y-7445000D02*
X11705000Y-7475000D01*
X12065000Y-10745000D02*
X12095000Y-10775000D01*
X12095000Y-10745000D02*
X12065000Y-10775000D01*
X12065000Y-10825000D02*
X12095000Y-10855000D01*
X12095000Y-10825000D02*
X12065000Y-10855000D01*
X12065000Y-10905000D02*
X12095000Y-10935000D01*
X12095000Y-10905000D02*
X12065000Y-10935000D01*
X12065000Y-10985000D02*
X12095000Y-11015000D01*
X12095000Y-10985000D02*
X12065000Y-11015000D01*
X12065000Y-11065000D02*
X12095000Y-11095000D01*
X12095000Y-11065000D02*
X12065000Y-11095000D01*
X12065000Y-11145000D02*
X12095000Y-11175000D01*
X12095000Y-11145000D02*
X12065000Y-11175000D01*
X12065000Y-14385000D02*
X12095000Y-14415000D01*
X12095000Y-14385000D02*
X12065000Y-14415000D01*
X12185000Y-5985000D02*
X12215000Y-6015000D01*
X12215000Y-5985000D02*
X12185000Y-6015000D01*
X12185000Y-13985000D02*
X12215000Y-14015000D01*
X12215000Y-13985000D02*
X12185000Y-14015000D01*
X12195000Y-14535000D02*
X12225000Y-14565000D01*
X12225000Y-14535000D02*
X12195000Y-14565000D01*
X12275000Y-5415000D02*
X12305000Y-5445000D01*
X12305000Y-5415000D02*
X12275000Y-5445000D01*
X12405000Y-5585000D02*
X12435000Y-5615000D01*
X12435000Y-5585000D02*
X12405000Y-5615000D01*
X12945000Y-14022997D02*
X12975000Y-14052997D01*
X12975000Y-14022997D02*
X12945000Y-14052997D01*
X12985000Y-5185000D02*
X13015000Y-5215000D01*
X13015000Y-5185000D02*
X12985000Y-5215000D01*
X12985000Y-14785000D02*
X13015000Y-14815000D01*
X13015000Y-14785000D02*
X12985000Y-14815000D01*
X13105000Y-6224998D02*
X13135000Y-6254998D01*
X13135000Y-6224998D02*
X13105000Y-6254998D01*
X13185000Y-14785000D02*
X13215000Y-14815000D01*
X13215000Y-14785000D02*
X13185000Y-14815000D01*
X13565000Y-12565000D02*
X13595000Y-12595000D01*
X13595000Y-12565000D02*
X13565000Y-12595000D01*
X13565000Y-12645000D02*
X13595000Y-12675000D01*
X13595000Y-12645000D02*
X13565000Y-12675000D01*
X13565000Y-12725000D02*
X13595000Y-12755000D01*
X13595000Y-12725000D02*
X13565000Y-12755000D01*
X13565000Y-12805000D02*
X13595000Y-12835000D01*
X13595000Y-12805000D02*
X13565000Y-12835000D01*
X13565000Y-12885000D02*
X13595000Y-12915000D01*
X13595000Y-12885000D02*
X13565000Y-12915000D01*
X13565000Y-12965000D02*
X13595000Y-12995000D01*
X13595000Y-12965000D02*
X13565000Y-12995000D01*
X13725000Y-10745000D02*
X13755000Y-10775000D01*
X13755000Y-10745000D02*
X13725000Y-10775000D01*
X13725000Y-10825000D02*
X13755000Y-10855000D01*
X13755000Y-10825000D02*
X13725000Y-10855000D01*
X13725000Y-10905000D02*
X13755000Y-10935000D01*
X13755000Y-10905000D02*
X13725000Y-10935000D01*
X13725000Y-10985000D02*
X13755000Y-11015000D01*
X13755000Y-10985000D02*
X13725000Y-11015000D01*
X13725000Y-11065000D02*
X13755000Y-11095000D01*
X13755000Y-11065000D02*
X13725000Y-11095000D01*
X13725000Y-11145000D02*
X13755000Y-11175000D01*
X13755000Y-11145000D02*
X13725000Y-11175000D01*
X13765000Y-14385000D02*
X13795000Y-14415000D01*
X13795000Y-14385000D02*
X13765000Y-14415000D01*
X13785000Y-5985000D02*
X13815000Y-6015000D01*
X13815000Y-5985000D02*
X13785000Y-6015000D01*
X13805000Y-6945000D02*
X13835000Y-6975000D01*
X13835000Y-6945000D02*
X13805000Y-6975000D01*
X13805000Y-7025000D02*
X13835000Y-7055000D01*
X13835000Y-7025000D02*
X13805000Y-7055000D01*
X13805000Y-7105000D02*
X13835000Y-7135000D01*
X13835000Y-7105000D02*
X13805000Y-7135000D01*
X13805000Y-7185000D02*
X13835000Y-7215000D01*
X13835000Y-7185000D02*
X13805000Y-7215000D01*
X13805000Y-7265000D02*
X13835000Y-7295000D01*
X13835000Y-7265000D02*
X13805000Y-7295000D01*
X13805000Y-7345000D02*
X13835000Y-7375000D01*
X13835000Y-7345000D02*
X13805000Y-7375000D01*
X13875000Y-5415000D02*
X13905000Y-5445000D01*
X13905000Y-5415000D02*
X13875000Y-5445000D01*
X13885000Y-14535000D02*
X13915000Y-14565000D01*
X13915000Y-14535000D02*
X13885000Y-14565000D01*
X13985000Y-13785000D02*
X14015000Y-13815000D01*
X14015000Y-13785000D02*
X13985000Y-13815000D01*
X14005000Y-5585000D02*
X14035000Y-5615000D01*
X14035000Y-5585000D02*
X14005000Y-5615000D01*
X14285000Y-8705000D02*
X14315000Y-8735000D01*
X14315000Y-8705000D02*
X14285000Y-8735000D01*
X14285000Y-8785000D02*
X14315000Y-8815000D01*
X14315000Y-8785000D02*
X14285000Y-8815000D01*
X14285000Y-8865000D02*
X14315000Y-8895000D01*
X14315000Y-8865000D02*
X14285000Y-8895000D01*
X14285000Y-8945000D02*
X14315000Y-8975000D01*
X14315000Y-8945000D02*
X14285000Y-8975000D01*
X14285000Y-9025000D02*
X14315000Y-9055000D01*
X14315000Y-9025000D02*
X14285000Y-9055000D01*
X14285000Y-9105000D02*
X14315000Y-9135000D01*
X14315000Y-9105000D02*
X14285000Y-9135000D01*
X14585000Y-5185000D02*
X14615000Y-5215000D01*
X14615000Y-5185000D02*
X14585000Y-5215000D01*
X14585000Y-8305000D02*
X14615000Y-8335000D01*
X14615000Y-8305000D02*
X14585000Y-8335000D01*
X14585000Y-8385000D02*
X14615000Y-8415000D01*
X14615000Y-8385000D02*
X14585000Y-8415000D01*
X14585000Y-8465000D02*
X14615000Y-8495000D01*
X14615000Y-8465000D02*
X14585000Y-8495000D01*
X14585000Y-8545000D02*
X14615000Y-8575000D01*
X14615000Y-8545000D02*
X14585000Y-8575000D01*
X14585000Y-8625000D02*
X14615000Y-8655000D01*
X14615000Y-8625000D02*
X14585000Y-8655000D01*
X14585000Y-8705000D02*
X14615000Y-8735000D01*
X14615000Y-8705000D02*
X14585000Y-8735000D01*
X14585000Y-12625000D02*
X14615000Y-12655000D01*
X14615000Y-12625000D02*
X14585000Y-12655000D01*
X14585000Y-12705000D02*
X14615000Y-12735000D01*
X14615000Y-12705000D02*
X14585000Y-12735000D01*
X14585000Y-12785000D02*
X14615000Y-12815000D01*
X14615000Y-12785000D02*
X14585000Y-12815000D01*
X14585000Y-12865000D02*
X14615000Y-12895000D01*
X14615000Y-12865000D02*
X14585000Y-12895000D01*
X14585000Y-12945000D02*
X14615000Y-12975000D01*
X14615000Y-12945000D02*
X14585000Y-12975000D01*
X14585000Y-13025000D02*
X14615000Y-13055000D01*
X14615000Y-13025000D02*
X14585000Y-13055000D01*
X14585000Y-14785000D02*
X14615000Y-14815000D01*
X14615000Y-14785000D02*
X14585000Y-14815000D01*
X14645000Y-13982996D02*
X14675000Y-14012996D01*
X14675000Y-13982996D02*
X14645000Y-14012996D01*
X14705000Y-6184997D02*
X14735000Y-6214997D01*
X14735000Y-6184997D02*
X14705000Y-6214997D01*
X14785000Y-5185000D02*
X14815000Y-5215000D01*
X14815000Y-5185000D02*
X14785000Y-5215000D01*
X14785000Y-14785000D02*
X14815000Y-14815000D01*
X14815000Y-14785000D02*
X14785000Y-14815000D01*
X14925000Y-7045000D02*
X14955000Y-7075000D01*
X14955000Y-7045000D02*
X14925000Y-7075000D01*
X14925000Y-7125000D02*
X14955000Y-7155000D01*
X14955000Y-7125000D02*
X14925000Y-7155000D01*
X14925000Y-7205000D02*
X14955000Y-7235000D01*
X14955000Y-7205000D02*
X14925000Y-7235000D01*
X14925000Y-7285000D02*
X14955000Y-7315000D01*
X14955000Y-7285000D02*
X14925000Y-7315000D01*
X14925000Y-7365000D02*
X14955000Y-7395000D01*
X14955000Y-7365000D02*
X14925000Y-7395000D01*
X14925000Y-7445000D02*
X14955000Y-7475000D01*
X14955000Y-7445000D02*
X14925000Y-7475000D01*
X15225000Y-10725000D02*
X15255000Y-10755000D01*
X15255000Y-10725000D02*
X15225000Y-10755000D01*
X15225000Y-10805000D02*
X15255000Y-10835000D01*
X15255000Y-10805000D02*
X15225000Y-10835000D01*
X15225000Y-10885000D02*
X15255000Y-10915000D01*
X15255000Y-10885000D02*
X15225000Y-10915000D01*
X15225000Y-10965000D02*
X15255000Y-10995000D01*
X15255000Y-10965000D02*
X15225000Y-10995000D01*
X15225000Y-11045000D02*
X15255000Y-11075000D01*
X15255000Y-11045000D02*
X15225000Y-11075000D01*
X15225000Y-11125000D02*
X15255000Y-11155000D01*
X15255000Y-11125000D02*
X15225000Y-11155000D01*
X15405000Y-5985000D02*
X15435000Y-6015000D01*
X15435000Y-5985000D02*
X15405000Y-6015000D01*
X15465000Y-14385000D02*
X15495000Y-14415000D01*
X15495000Y-14385000D02*
X15465000Y-14415000D01*
X15475000Y-5415000D02*
X15505000Y-5445000D01*
X15505000Y-5415000D02*
X15475000Y-5445000D01*
X15585000Y-13785000D02*
X15615000Y-13815000D01*
X15615000Y-13785000D02*
X15585000Y-13815000D01*
X15585000Y-14535000D02*
X15615000Y-14565000D01*
X15615000Y-14535000D02*
X15585000Y-14565000D01*
X15605000Y-5585000D02*
X15635000Y-5615000D01*
X15635000Y-5585000D02*
X15605000Y-5615000D01*
X16185000Y-5185000D02*
X16215000Y-5215000D01*
X16215000Y-5185000D02*
X16185000Y-5215000D01*
X16305000Y-6144996D02*
X16335000Y-6174996D01*
X16335000Y-6144996D02*
X16305000Y-6174996D01*
X16365000Y-13942995D02*
X16395000Y-13972995D01*
X16395000Y-13942995D02*
X16365000Y-13972995D01*
X16385000Y-5185000D02*
X16415000Y-5215000D01*
X16415000Y-5185000D02*
X16385000Y-5215000D01*
X16385000Y-14785000D02*
X16415000Y-14815000D01*
X16415000Y-14785000D02*
X16385000Y-14815000D01*
X16585000Y-14785000D02*
X16615000Y-14815000D01*
X16615000Y-14785000D02*
X16585000Y-14815000D01*
X16845000Y-6945000D02*
X16875000Y-6975000D01*
X16875000Y-6945000D02*
X16845000Y-6975000D01*
X16845000Y-7025000D02*
X16875000Y-7055000D01*
X16875000Y-7025000D02*
X16845000Y-7055000D01*
X16845000Y-7105000D02*
X16875000Y-7135000D01*
X16875000Y-7105000D02*
X16845000Y-7135000D01*
X16845000Y-7185000D02*
X16875000Y-7215000D01*
X16875000Y-7185000D02*
X16845000Y-7215000D01*
X16845000Y-7265000D02*
X16875000Y-7295000D01*
X16875000Y-7265000D02*
X16845000Y-7295000D01*
X16845000Y-7345000D02*
X16875000Y-7375000D01*
X16875000Y-7345000D02*
X16845000Y-7375000D01*
X16985000Y-5985000D02*
X17015000Y-6015000D01*
X17015000Y-5985000D02*
X16985000Y-6015000D01*
X17005000Y-12685000D02*
X17035000Y-12715000D01*
X17035000Y-12685000D02*
X17005000Y-12715000D01*
X17005000Y-12765000D02*
X17035000Y-12795000D01*
X17035000Y-12765000D02*
X17005000Y-12795000D01*
X17005000Y-12845000D02*
X17035000Y-12875000D01*
X17035000Y-12845000D02*
X17005000Y-12875000D01*
X17005000Y-12925000D02*
X17035000Y-12955000D01*
X17035000Y-12925000D02*
X17005000Y-12955000D01*
X17005000Y-13005000D02*
X17035000Y-13035000D01*
X17035000Y-13005000D02*
X17005000Y-13035000D01*
X17005000Y-13085000D02*
X17035000Y-13115000D01*
X17035000Y-13085000D02*
X17005000Y-13115000D01*
X17075000Y-5425000D02*
X17105000Y-5455000D01*
X17105000Y-5425000D02*
X17075000Y-5455000D01*
X17165000Y-14385000D02*
X17195000Y-14415000D01*
X17195000Y-14385000D02*
X17165000Y-14415000D01*
X17205000Y-5585000D02*
X17235000Y-5615000D01*
X17235000Y-5585000D02*
X17205000Y-5615000D01*
X17245000Y-10645000D02*
X17275000Y-10675000D01*
X17275000Y-10645000D02*
X17245000Y-10675000D01*
X17245000Y-10725000D02*
X17275000Y-10755000D01*
X17275000Y-10725000D02*
X17245000Y-10755000D01*
X17245000Y-10805000D02*
X17275000Y-10835000D01*
X17275000Y-10805000D02*
X17245000Y-10835000D01*
X17245000Y-10885000D02*
X17275000Y-10915000D01*
X17275000Y-10885000D02*
X17245000Y-10915000D01*
X17245000Y-10965000D02*
X17275000Y-10995000D01*
X17275000Y-10965000D02*
X17245000Y-10995000D01*
X17245000Y-11045000D02*
X17275000Y-11075000D01*
X17275000Y-11045000D02*
X17245000Y-11075000D01*
X17295000Y-14545000D02*
X17325000Y-14575000D01*
X17325000Y-14545000D02*
X17295000Y-14575000D01*
X17385000Y-13785000D02*
X17415000Y-13815000D01*
X17415000Y-13785000D02*
X17385000Y-13815000D01*
X17465000Y-8785000D02*
X17495000Y-8815000D01*
X17495000Y-8785000D02*
X17465000Y-8815000D01*
X17465000Y-8865000D02*
X17495000Y-8895000D01*
X17495000Y-8865000D02*
X17465000Y-8895000D01*
X17465000Y-8945000D02*
X17495000Y-8975000D01*
X17495000Y-8945000D02*
X17465000Y-8975000D01*
X17465000Y-9025000D02*
X17495000Y-9055000D01*
X17495000Y-9025000D02*
X17465000Y-9055000D01*
X17465000Y-9105000D02*
X17495000Y-9135000D01*
X17495000Y-9105000D02*
X17465000Y-9135000D01*
X17465000Y-9185000D02*
X17495000Y-9215000D01*
X17495000Y-9185000D02*
X17465000Y-9215000D01*
X17625000Y-8385000D02*
X17655000Y-8415000D01*
X17655000Y-8385000D02*
X17625000Y-8415000D01*
X17625000Y-8465000D02*
X17655000Y-8495000D01*
X17655000Y-8465000D02*
X17625000Y-8495000D01*
X17625000Y-8545000D02*
X17655000Y-8575000D01*
X17655000Y-8545000D02*
X17625000Y-8575000D01*
X17625000Y-8625000D02*
X17655000Y-8655000D01*
X17655000Y-8625000D02*
X17625000Y-8655000D01*
X17625000Y-8705000D02*
X17655000Y-8735000D01*
X17655000Y-8705000D02*
X17625000Y-8735000D01*
X17625000Y-8785000D02*
X17655000Y-8815000D01*
X17655000Y-8785000D02*
X17625000Y-8815000D01*
X17785000Y-5185000D02*
X17815000Y-5215000D01*
X17815000Y-5185000D02*
X17785000Y-5215000D01*
X17905000Y-6104995D02*
X17935000Y-6134995D01*
X17935000Y-6104995D02*
X17905000Y-6134995D01*
X17945000Y-6865000D02*
X17975000Y-6895000D01*
X17975000Y-6865000D02*
X17945000Y-6895000D01*
X17945000Y-6945000D02*
X17975000Y-6975000D01*
X17975000Y-6945000D02*
X17945000Y-6975000D01*
X17945000Y-7025000D02*
X17975000Y-7055000D01*
X17975000Y-7025000D02*
X17945000Y-7055000D01*
X17945000Y-7105000D02*
X17975000Y-7135000D01*
X17975000Y-7105000D02*
X17945000Y-7135000D01*
X17945000Y-7185000D02*
X17975000Y-7215000D01*
X17975000Y-7185000D02*
X17945000Y-7215000D01*
X17945000Y-7265000D02*
X17975000Y-7295000D01*
X17975000Y-7265000D02*
X17945000Y-7295000D01*
X17985000Y-5185000D02*
X18015000Y-5215000D01*
X18015000Y-5185000D02*
X17985000Y-5215000D01*
X17985000Y-14785000D02*
X18015000Y-14815000D01*
X18015000Y-14785000D02*
X17985000Y-14815000D01*
X18025000Y-12705000D02*
X18055000Y-12735000D01*
X18055000Y-12705000D02*
X18025000Y-12735000D01*
X18025000Y-12785000D02*
X18055000Y-12815000D01*
X18055000Y-12785000D02*
X18025000Y-12815000D01*
X18025000Y-12865000D02*
X18055000Y-12895000D01*
X18055000Y-12865000D02*
X18025000Y-12895000D01*
X18025000Y-12945000D02*
X18055000Y-12975000D01*
X18055000Y-12945000D02*
X18025000Y-12975000D01*
X18025000Y-13025000D02*
X18055000Y-13055000D01*
X18055000Y-13025000D02*
X18025000Y-13055000D01*
X18025000Y-13105000D02*
X18055000Y-13135000D01*
X18055000Y-13105000D02*
X18025000Y-13135000D01*
X18085000Y-13902994D02*
X18115000Y-13932994D01*
X18115000Y-13902994D02*
X18085000Y-13932994D01*
X18185000Y-14785000D02*
X18215000Y-14815000D01*
X18215000Y-14785000D02*
X18185000Y-14815000D01*
X18565000Y-5985000D02*
X18595000Y-6015000D01*
X18595000Y-5985000D02*
X18565000Y-6015000D01*
X18685000Y-5415000D02*
X18715000Y-5445000D01*
X18715000Y-5415000D02*
X18685000Y-5445000D01*
X18685000Y-10625000D02*
X18715000Y-10655000D01*
X18715000Y-10625000D02*
X18685000Y-10655000D01*
X18685000Y-10705000D02*
X18715000Y-10735000D01*
X18715000Y-10705000D02*
X18685000Y-10735000D01*
X18685000Y-10785000D02*
X18715000Y-10815000D01*
X18715000Y-10785000D02*
X18685000Y-10815000D01*
X18685000Y-10865000D02*
X18715000Y-10895000D01*
X18715000Y-10865000D02*
X18685000Y-10895000D01*
X18805000Y-5585000D02*
X18835000Y-5615000D01*
X18835000Y-5585000D02*
X18805000Y-5615000D01*
X18865000Y-14385000D02*
X18895000Y-14415000D01*
X18895000Y-14385000D02*
X18865000Y-14415000D01*
X18985000Y-13785000D02*
X19015000Y-13815000D01*
X19015000Y-13785000D02*
X18985000Y-13815000D01*
X18995000Y-14535000D02*
X19025000Y-14565000D01*
X19025000Y-14535000D02*
X18995000Y-14565000D01*
X19335000Y-5545000D02*
X19365000Y-5575000D01*
X19365000Y-5545000D02*
X19335000Y-5575000D01*
X19385000Y-5185000D02*
X19415000Y-5215000D01*
X19415000Y-5185000D02*
X19385000Y-5215000D01*
X19505000Y-5385000D02*
X19535000Y-5415000D01*
X19535000Y-5385000D02*
X19505000Y-5415000D01*
X19585000Y-5185000D02*
X19615000Y-5215000D01*
X19615000Y-5185000D02*
X19585000Y-5215000D01*
X19585000Y-6985000D02*
X19615000Y-7015000D01*
X19615000Y-6985000D02*
X19585000Y-7015000D01*
X19585000Y-7785000D02*
X19615000Y-7815000D01*
X19615000Y-7785000D02*
X19585000Y-7815000D01*
X19585000Y-8585000D02*
X19615000Y-8615000D01*
X19615000Y-8585000D02*
X19585000Y-8615000D01*
X19585000Y-9385000D02*
X19615000Y-9415000D01*
X19615000Y-9385000D02*
X19585000Y-9415000D01*
X19585000Y-10185000D02*
X19615000Y-10215000D01*
X19615000Y-10185000D02*
X19585000Y-10215000D01*
X19585000Y-10985000D02*
X19615000Y-11015000D01*
X19615000Y-10985000D02*
X19585000Y-11015000D01*
X19585000Y-11785000D02*
X19615000Y-11815000D01*
X19615000Y-11785000D02*
X19585000Y-11815000D01*
X19585000Y-14495000D02*
X19615000Y-14525000D01*
X19615000Y-14495000D02*
X19585000Y-14525000D01*
X19655000Y-14785000D02*
X19685000Y-14815000D01*
X19685000Y-14785000D02*
X19655000Y-14815000D01*
X19665000Y-5545000D02*
X19695000Y-5575000D01*
X19695000Y-5545000D02*
X19665000Y-5575000D01*
X19745000Y-14585000D02*
X19775000Y-14615000D01*
X19775000Y-14585000D02*
X19745000Y-14615000D01*
X19765000Y-5185000D02*
X19795000Y-5215000D01*
X19795000Y-5185000D02*
X19765000Y-5215000D01*
X19765000Y-5745000D02*
X19795000Y-5775000D01*
X19795000Y-5745000D02*
X19765000Y-5775000D01*
X19785000Y-13862993D02*
X19815000Y-13892993D01*
X19815000Y-13862993D02*
X19785000Y-13892993D01*
X19825000Y-12835000D02*
X19855000Y-12865000D01*
X19855000Y-12835000D02*
X19825000Y-12865000D01*
X19825000Y-12935000D02*
X19855000Y-12965000D01*
X19855000Y-12935000D02*
X19825000Y-12965000D01*
X19825000Y-13035000D02*
X19855000Y-13065000D01*
X19855000Y-13035000D02*
X19825000Y-13065000D01*
X19825000Y-13135000D02*
X19855000Y-13165000D01*
X19855000Y-13135000D02*
X19825000Y-13165000D01*
X19825000Y-13235000D02*
X19855000Y-13265000D01*
X19855000Y-13235000D02*
X19825000Y-13265000D01*
X19825000Y-13335000D02*
X19855000Y-13365000D01*
X19855000Y-13335000D02*
X19825000Y-13365000D01*
X19825000Y-13435000D02*
X19855000Y-13465000D01*
X19855000Y-13435000D02*
X19825000Y-13465000D01*
X19825000Y-13535000D02*
X19855000Y-13565000D01*
X19855000Y-13535000D02*
X19825000Y-13565000D01*
X19825000Y-13635000D02*
X19855000Y-13665000D01*
X19855000Y-13635000D02*
X19825000Y-13665000D01*
X19825000Y-13735000D02*
X19855000Y-13765000D01*
X19855000Y-13735000D02*
X19825000Y-13765000D01*
X19865000Y-9295000D02*
X19895000Y-9325000D01*
X19895000Y-9295000D02*
X19865000Y-9325000D01*
X19865000Y-9375000D02*
X19895000Y-9405000D01*
X19895000Y-9375000D02*
X19865000Y-9405000D01*
X19865000Y-9455000D02*
X19895000Y-9485000D01*
X19895000Y-9455000D02*
X19865000Y-9485000D01*
X19865000Y-10035000D02*
X19895000Y-10065000D01*
X19895000Y-10035000D02*
X19865000Y-10065000D01*
X19865000Y-10125000D02*
X19895000Y-10155000D01*
X19895000Y-10125000D02*
X19865000Y-10155000D01*
X19865000Y-10205000D02*
X19895000Y-10235000D01*
X19895000Y-10205000D02*
X19865000Y-10235000D01*
X19865000Y-10705000D02*
X19895000Y-10735000D01*
X19895000Y-10705000D02*
X19865000Y-10735000D01*
X19865000Y-10785000D02*
X19895000Y-10815000D01*
X19895000Y-10785000D02*
X19865000Y-10815000D01*
X19865000Y-10865000D02*
X19895000Y-10895000D01*
X19895000Y-10865000D02*
X19865000Y-10895000D01*
X19865000Y-11415000D02*
X19895000Y-11445000D01*
X19895000Y-11415000D02*
X19865000Y-11445000D01*
X19865000Y-11495000D02*
X19895000Y-11525000D01*
X19895000Y-11495000D02*
X19865000Y-11525000D01*
X19865000Y-11575000D02*
X19895000Y-11605000D01*
X19895000Y-11575000D02*
X19865000Y-11605000D01*
X19865000Y-12155000D02*
X19895000Y-12185000D01*
X19895000Y-12155000D02*
X19865000Y-12185000D01*
X19865000Y-12285000D02*
X19895000Y-12315000D01*
X19895000Y-12285000D02*
X19865000Y-12315000D01*
X19875000Y-6535000D02*
X19905000Y-6565000D01*
X19905000Y-6535000D02*
X19875000Y-6565000D01*
X19875000Y-6615000D02*
X19905000Y-6645000D01*
X19905000Y-6615000D02*
X19875000Y-6645000D01*
X19875000Y-6695000D02*
X19905000Y-6725000D01*
X19905000Y-6695000D02*
X19875000Y-6725000D01*
X19875000Y-6775000D02*
X19905000Y-6805000D01*
X19905000Y-6775000D02*
X19875000Y-6805000D01*
X19875000Y-6855000D02*
X19905000Y-6885000D01*
X19905000Y-6855000D02*
X19875000Y-6885000D01*
X19875000Y-6935000D02*
X19905000Y-6965000D01*
X19905000Y-6935000D02*
X19875000Y-6965000D01*
X19875000Y-7015000D02*
X19905000Y-7045000D01*
X19905000Y-7015000D02*
X19875000Y-7045000D01*
X19875000Y-7095000D02*
X19905000Y-7125000D01*
X19905000Y-7095000D02*
X19875000Y-7125000D01*
X19875000Y-7175000D02*
X19905000Y-7205000D01*
X19905000Y-7175000D02*
X19875000Y-7205000D01*
X19875000Y-7255000D02*
X19905000Y-7285000D01*
X19905000Y-7255000D02*
X19875000Y-7285000D01*
X19875000Y-7905000D02*
X19905000Y-7935000D01*
X19905000Y-7905000D02*
X19875000Y-7935000D01*
X19875000Y-7985000D02*
X19905000Y-8015000D01*
X19905000Y-7985000D02*
X19875000Y-8015000D01*
X19875000Y-8065000D02*
X19905000Y-8095000D01*
X19905000Y-8065000D02*
X19875000Y-8095000D01*
X19875000Y-8595000D02*
X19905000Y-8625000D01*
X19905000Y-8595000D02*
X19875000Y-8625000D01*
X19875000Y-8675000D02*
X19905000Y-8705000D01*
X19905000Y-8675000D02*
X19875000Y-8705000D01*
X19875000Y-8755000D02*
X19905000Y-8785000D01*
X19905000Y-8755000D02*
X19875000Y-8785000D01*
X19915000Y-14455000D02*
X19945000Y-14485000D01*
X19945000Y-14455000D02*
X19915000Y-14485000D01*
X19915000Y-14785000D02*
X19945000Y-14815000D01*
X19945000Y-14785000D02*
X19915000Y-14815000D01*
X19937000Y-14242999D02*
X19967000Y-14272999D01*
X19967000Y-14242999D02*
X19937000Y-14272999D01*
X19955000Y-5185000D02*
X19985000Y-5215000D01*
X19985000Y-5185000D02*
X19955000Y-5215000D01*
X19985000Y-7805000D02*
X20015000Y-7835000D01*
X20015000Y-7805000D02*
X19985000Y-7835000D01*
X19985000Y-8505000D02*
X20015000Y-8535000D01*
X20015000Y-8505000D02*
X19985000Y-8535000D01*
X19985000Y-9205000D02*
X20015000Y-9235000D01*
X20015000Y-9205000D02*
X19985000Y-9235000D01*
X19985000Y-9925000D02*
X20015000Y-9955000D01*
X20015000Y-9925000D02*
X19985000Y-9955000D01*
X19985000Y-10625000D02*
X20015000Y-10655000D01*
X20015000Y-10625000D02*
X19985000Y-10655000D01*
X19985000Y-11325000D02*
X20015000Y-11355000D01*
X20015000Y-11325000D02*
X19985000Y-11355000D01*
X19985000Y-12025000D02*
X20015000Y-12055000D01*
X20015000Y-12025000D02*
X19985000Y-12055000D01*
X19985000Y-12725000D02*
X20015000Y-12755000D01*
X20015000Y-12725000D02*
X19985000Y-12755000D01*
X20077500Y-14197500D02*
X20107500Y-14227500D01*
X20107500Y-14197500D02*
X20077500Y-14227500D01*
X20085000Y-6445000D02*
X20115000Y-6475000D01*
X20115000Y-6445000D02*
X20085000Y-6475000D01*
X20085000Y-7425000D02*
X20115000Y-7455000D01*
X20115000Y-7425000D02*
X20085000Y-7455000D01*
X20135000Y-5185000D02*
X20165000Y-5215000D01*
X20165000Y-5185000D02*
X20135000Y-5215000D01*
X20165000Y-14150000D02*
X20195000Y-14180000D01*
X20195000Y-14150000D02*
X20165000Y-14180000D01*
X20165000Y-6405000D02*
X20195000Y-6435000D01*
X20195000Y-6405000D02*
X20165000Y-6435000D01*
X20165000Y-8105000D02*
X20195000Y-8135000D01*
X20195000Y-8105000D02*
X20165000Y-8135000D01*
X20245000Y-6365000D02*
X20275000Y-6395000D01*
X20275000Y-6365000D02*
X20245000Y-6395000D01*
X20245000Y-8825000D02*
X20275000Y-8855000D01*
X20275000Y-8825000D02*
X20245000Y-8855000D01*
X20245000Y-14105000D02*
X20275000Y-14135000D01*
X20275000Y-14105000D02*
X20245000Y-14135000D01*
X20255000Y-14785000D02*
X20285000Y-14815000D01*
X20285000Y-14785000D02*
X20255000Y-14815000D01*
X20305000Y-5185000D02*
X20335000Y-5215000D01*
X20335000Y-5185000D02*
X20305000Y-5215000D01*
X20325000Y-6325000D02*
X20355000Y-6355000D01*
X20355000Y-6325000D02*
X20325000Y-6355000D01*
X20325000Y-9525000D02*
X20355000Y-9555000D01*
X20355000Y-9525000D02*
X20325000Y-9555000D01*
X20325000Y-14065000D02*
X20355000Y-14095000D01*
X20355000Y-14065000D02*
X20325000Y-14095000D01*
X20405000Y-6285000D02*
X20435000Y-6315000D01*
X20435000Y-6285000D02*
X20405000Y-6315000D01*
X20405000Y-10225000D02*
X20435000Y-10255000D01*
X20435000Y-10225000D02*
X20405000Y-10255000D01*
X20405000Y-14025000D02*
X20435000Y-14055000D01*
X20435000Y-14025000D02*
X20405000Y-14055000D01*
X20485000Y-5185000D02*
X20515000Y-5215000D01*
X20515000Y-5185000D02*
X20485000Y-5215000D01*
X20485000Y-6245000D02*
X20515000Y-6275000D01*
X20515000Y-6245000D02*
X20485000Y-6275000D01*
X20485000Y-10905000D02*
X20515000Y-10935000D01*
X20515000Y-10905000D02*
X20485000Y-10935000D01*
X20485000Y-13982993D02*
X20515000Y-14012993D01*
X20515000Y-13982993D02*
X20485000Y-14012993D01*
X20565000Y-6205000D02*
X20595000Y-6235000D01*
X20595000Y-6205000D02*
X20565000Y-6235000D01*
X20565000Y-11645000D02*
X20595000Y-11675000D01*
X20595000Y-11645000D02*
X20565000Y-11675000D01*
X20565000Y-13945000D02*
X20595000Y-13975000D01*
X20595000Y-13945000D02*
X20565000Y-13975000D01*
X20575000Y-14785000D02*
X20605000Y-14815000D01*
X20605000Y-14785000D02*
X20575000Y-14815000D01*
X20645000Y-6165000D02*
X20675000Y-6195000D01*
X20675000Y-6165000D02*
X20645000Y-6195000D01*
X20645000Y-12325000D02*
X20675000Y-12355000D01*
X20675000Y-12325000D02*
X20645000Y-12355000D01*
X20645000Y-13905000D02*
X20675000Y-13935000D01*
X20675000Y-13905000D02*
X20645000Y-13935000D01*
X20665000Y-5185000D02*
X20695000Y-5215000D01*
X20695000Y-5185000D02*
X20665000Y-5215000D01*
X20735000Y-10795000D02*
X20765000Y-10825000D01*
X20765000Y-10795000D02*
X20735000Y-10825000D01*
X20745000Y-6525000D02*
X20775000Y-6555000D01*
X20775000Y-6525000D02*
X20745000Y-6555000D01*
X20745000Y-6605000D02*
X20775000Y-6635000D01*
X20775000Y-6605000D02*
X20745000Y-6635000D01*
X20745000Y-6685000D02*
X20775000Y-6715000D01*
X20775000Y-6685000D02*
X20745000Y-6715000D01*
X20745000Y-6765000D02*
X20775000Y-6795000D01*
X20775000Y-6765000D02*
X20745000Y-6795000D01*
X20745000Y-6845000D02*
X20775000Y-6875000D01*
X20775000Y-6845000D02*
X20745000Y-6875000D01*
X20745000Y-6925000D02*
X20775000Y-6955000D01*
X20775000Y-6925000D02*
X20745000Y-6955000D01*
X20745000Y-7005000D02*
X20775000Y-7035000D01*
X20775000Y-7005000D02*
X20745000Y-7035000D01*
X20745000Y-7085000D02*
X20775000Y-7115000D01*
X20775000Y-7085000D02*
X20745000Y-7115000D01*
X20745000Y-7165000D02*
X20775000Y-7195000D01*
X20775000Y-7165000D02*
X20745000Y-7195000D01*
X20745000Y-7245000D02*
X20775000Y-7275000D01*
X20775000Y-7245000D02*
X20745000Y-7275000D01*
X20745000Y-10115000D02*
X20775000Y-10145000D01*
X20775000Y-10115000D02*
X20745000Y-10145000D01*
X20750000Y-13735000D02*
X20780000Y-13765000D01*
X20780000Y-13735000D02*
X20750000Y-13765000D01*
X20752500Y-13435000D02*
X20782500Y-13465000D01*
X20782500Y-13435000D02*
X20752500Y-13465000D01*
X20752500Y-13535000D02*
X20782500Y-13565000D01*
X20782500Y-13535000D02*
X20752500Y-13565000D01*
X20752500Y-13635000D02*
X20782500Y-13665000D01*
X20782500Y-13635000D02*
X20752500Y-13665000D01*
X20752500Y-13835000D02*
X20782500Y-13865000D01*
X20782500Y-13835000D02*
X20752500Y-13865000D01*
X20755000Y-8005000D02*
X20785000Y-8035000D01*
X20785000Y-8005000D02*
X20755000Y-8035000D01*
X20755000Y-8625000D02*
X20785000Y-8655000D01*
X20785000Y-8625000D02*
X20755000Y-8655000D01*
X20755000Y-8715000D02*
X20785000Y-8745000D01*
X20785000Y-8715000D02*
X20755000Y-8745000D01*
X20755000Y-10035000D02*
X20785000Y-10065000D01*
X20785000Y-10035000D02*
X20755000Y-10065000D01*
X20755000Y-11465000D02*
X20785000Y-11495000D01*
X20785000Y-11465000D02*
X20755000Y-11495000D01*
X20755000Y-12155000D02*
X20785000Y-12185000D01*
X20785000Y-12155000D02*
X20755000Y-12185000D01*
X20755000Y-12835000D02*
X20785000Y-12865000D01*
X20785000Y-12835000D02*
X20755000Y-12865000D01*
X20755000Y-12935000D02*
X20785000Y-12965000D01*
X20785000Y-12935000D02*
X20755000Y-12965000D01*
X20755000Y-13035000D02*
X20785000Y-13065000D01*
X20785000Y-13035000D02*
X20755000Y-13065000D01*
X20755000Y-13135000D02*
X20785000Y-13165000D01*
X20785000Y-13135000D02*
X20755000Y-13165000D01*
X20755000Y-13235000D02*
X20785000Y-13265000D01*
X20785000Y-13235000D02*
X20755000Y-13265000D01*
X20755000Y-13335000D02*
X20785000Y-13365000D01*
X20785000Y-13335000D02*
X20755000Y-13365000D01*
X20765000Y-7925000D02*
X20795000Y-7955000D01*
X20795000Y-7925000D02*
X20765000Y-7955000D01*
X20775000Y-9315000D02*
X20805000Y-9345000D01*
X20805000Y-9315000D02*
X20775000Y-9345000D01*
X20785000Y-9415000D02*
X20815000Y-9445000D01*
X20815000Y-9415000D02*
X20785000Y-9445000D01*
X20795000Y-10745000D02*
X20825000Y-10775000D01*
X20825000Y-10745000D02*
X20795000Y-10775000D01*
X20805000Y-11525000D02*
X20835000Y-11555000D01*
X20835000Y-11525000D02*
X20805000Y-11555000D01*
X20815000Y-12215000D02*
X20845000Y-12245000D01*
X20845000Y-12215000D02*
X20815000Y-12245000D01*
X20825000Y-5185000D02*
X20855000Y-5215000D01*
X20855000Y-5185000D02*
X20825000Y-5215000D01*
X20825000Y-8655000D02*
X20855000Y-8685000D01*
X20855000Y-8655000D02*
X20825000Y-8685000D01*
X20825000Y-10075000D02*
X20855000Y-10105000D01*
X20855000Y-10075000D02*
X20825000Y-10105000D01*
X20835000Y-11455000D02*
X20865000Y-11485000D01*
X20865000Y-11455000D02*
X20835000Y-11485000D01*
X20845000Y-7965000D02*
X20875000Y-7995000D01*
X20875000Y-7965000D02*
X20845000Y-7995000D01*
X20845000Y-9205000D02*
X20875000Y-9235000D01*
X20875000Y-9205000D02*
X20845000Y-9235000D01*
X20845000Y-10625000D02*
X20875000Y-10655000D01*
X20875000Y-10625000D02*
X20845000Y-10655000D01*
X20845000Y-12725000D02*
X20875000Y-12755000D01*
X20875000Y-12725000D02*
X20845000Y-12755000D01*
X20855000Y-9365000D02*
X20885000Y-9395000D01*
X20885000Y-9365000D02*
X20855000Y-9395000D01*
X20865000Y-7805000D02*
X20895000Y-7835000D01*
X20895000Y-7805000D02*
X20865000Y-7835000D01*
X20865000Y-8505000D02*
X20895000Y-8535000D01*
X20895000Y-8505000D02*
X20865000Y-8535000D01*
X20865000Y-9925000D02*
X20895000Y-9955000D01*
X20895000Y-9925000D02*
X20865000Y-9955000D01*
X20865000Y-10795000D02*
X20895000Y-10825000D01*
X20895000Y-10795000D02*
X20865000Y-10825000D01*
X20865000Y-11325000D02*
X20895000Y-11355000D01*
X20895000Y-11325000D02*
X20865000Y-11355000D01*
X20865000Y-12025000D02*
X20895000Y-12055000D01*
X20895000Y-12025000D02*
X20865000Y-12055000D01*
X20895000Y-14785000D02*
X20925000Y-14815000D01*
X20925000Y-14785000D02*
X20895000Y-14815000D01*
X20985000Y-5185000D02*
X21015000Y-5215000D01*
X21015000Y-5185000D02*
X20985000Y-5215000D01*
X21025000Y-10285000D02*
X21055000Y-10315000D01*
X21055000Y-10285000D02*
X21025000Y-10315000D01*
X21045000Y-7485000D02*
X21075000Y-7515000D01*
X21075000Y-7485000D02*
X21045000Y-7515000D01*
X21045000Y-8205000D02*
X21075000Y-8235000D01*
X21075000Y-8205000D02*
X21045000Y-8235000D01*
X21045000Y-9585000D02*
X21075000Y-9615000D01*
X21075000Y-9585000D02*
X21045000Y-9615000D01*
X21045000Y-12385000D02*
X21075000Y-12415000D01*
X21075000Y-12385000D02*
X21045000Y-12415000D01*
X21065000Y-8885000D02*
X21095000Y-8915000D01*
X21095000Y-8885000D02*
X21065000Y-8915000D01*
X21065000Y-11005000D02*
X21095000Y-11035000D01*
X21095000Y-11005000D02*
X21065000Y-11035000D01*
X21065000Y-11705000D02*
X21095000Y-11735000D01*
X21095000Y-11705000D02*
X21065000Y-11735000D01*
X21165000Y-5185000D02*
X21195000Y-5215000D01*
X21195000Y-5185000D02*
X21165000Y-5215000D01*
X21215000Y-14785000D02*
X21245000Y-14815000D01*
X21245000Y-14785000D02*
X21215000Y-14815000D01*
X21345000Y-5185000D02*
X21375000Y-5215000D01*
X21375000Y-5185000D02*
X21345000Y-5215000D01*
X21382000Y-8282000D02*
X21412000Y-8312000D01*
X21412000Y-8282000D02*
X21382000Y-8312000D01*
X21382000Y-8982000D02*
X21412000Y-9012000D01*
X21412000Y-8982000D02*
X21382000Y-9012000D01*
X21382000Y-10382000D02*
X21412000Y-10412000D01*
X21412000Y-10382000D02*
X21382000Y-10412000D01*
X21382000Y-11082000D02*
X21412000Y-11112000D01*
X21412000Y-11082000D02*
X21382000Y-11112000D01*
X21382000Y-11782000D02*
X21412000Y-11812000D01*
X21412000Y-11782000D02*
X21382000Y-11812000D01*
X21382000Y-12482000D02*
X21412000Y-12512000D01*
X21412000Y-12482000D02*
X21382000Y-12512000D01*
X21385000Y-7585000D02*
X21415000Y-7615000D01*
X21415000Y-7585000D02*
X21385000Y-7615000D01*
X21385000Y-9685000D02*
X21415000Y-9715000D01*
X21415000Y-9685000D02*
X21385000Y-9715000D01*
X21425000Y-14665000D02*
X21455000Y-14695000D01*
X21455000Y-14665000D02*
X21425000Y-14695000D01*
X21525000Y-5185000D02*
X21555000Y-5215000D01*
X21555000Y-5185000D02*
X21525000Y-5215000D01*
X21625000Y-14825000D02*
X21655000Y-14855000D01*
X21655000Y-14825000D02*
X21625000Y-14855000D01*
X21695000Y-5185000D02*
X21725000Y-5215000D01*
X21725000Y-5185000D02*
X21695000Y-5215000D01*
X21805000Y-7685000D02*
X21835000Y-7715000D01*
X21835000Y-7685000D02*
X21805000Y-7715000D01*
X21805000Y-8385000D02*
X21835000Y-8415000D01*
X21835000Y-8385000D02*
X21805000Y-8415000D01*
X21805000Y-9085000D02*
X21835000Y-9115000D01*
X21835000Y-9085000D02*
X21805000Y-9115000D01*
X21805000Y-9765000D02*
X21835000Y-9795000D01*
X21835000Y-9765000D02*
X21805000Y-9795000D01*
X21805000Y-10485000D02*
X21835000Y-10515000D01*
X21835000Y-10485000D02*
X21805000Y-10515000D01*
X21805000Y-11865000D02*
X21835000Y-11895000D01*
X21835000Y-11865000D02*
X21805000Y-11895000D01*
X21805000Y-12585000D02*
X21835000Y-12615000D01*
X21835000Y-12585000D02*
X21805000Y-12615000D01*
X21855000Y-5185000D02*
X21885000Y-5215000D01*
X21885000Y-5185000D02*
X21855000Y-5215000D01*
X22005000Y-5185000D02*
X22035000Y-5215000D01*
X22035000Y-5185000D02*
X22005000Y-5215000D01*
X22047000Y-14106000D02*
X22077000Y-14136000D01*
X22077000Y-14106000D02*
X22047000Y-14136000D01*
X22047426Y-13679574D02*
X22077426Y-13709574D01*
X22077426Y-13679574D02*
X22047426Y-13709574D01*
X22165000Y-5185000D02*
X22195000Y-5215000D01*
X22195000Y-5185000D02*
X22165000Y-5215000D01*
X22175000Y-12435000D02*
X22205000Y-12465000D01*
X22205000Y-12435000D02*
X22175000Y-12465000D01*
X22285000Y-7385000D02*
X22315000Y-7415000D01*
X22315000Y-7385000D02*
X22285000Y-7415000D01*
X22285000Y-7685000D02*
X22315000Y-7715000D01*
X22315000Y-7685000D02*
X22285000Y-7715000D01*
X22285000Y-8385000D02*
X22315000Y-8415000D01*
X22315000Y-8385000D02*
X22285000Y-8415000D01*
X22285000Y-9085000D02*
X22315000Y-9115000D01*
X22315000Y-9085000D02*
X22285000Y-9115000D01*
X22285000Y-9785000D02*
X22315000Y-9815000D01*
X22315000Y-9785000D02*
X22285000Y-9815000D01*
X22285000Y-10485000D02*
X22315000Y-10515000D01*
X22315000Y-10485000D02*
X22285000Y-10515000D01*
X22285000Y-11885000D02*
X22315000Y-11915000D01*
X22315000Y-11885000D02*
X22285000Y-11915000D01*
X22305000Y-8085000D02*
X22335000Y-8115000D01*
X22335000Y-8085000D02*
X22305000Y-8115000D01*
X22305000Y-8785000D02*
X22335000Y-8815000D01*
X22335000Y-8785000D02*
X22305000Y-8815000D01*
X22305000Y-11185000D02*
X22335000Y-11215000D01*
X22335000Y-11185000D02*
X22305000Y-11215000D01*
X22325000Y-5185000D02*
X22355000Y-5215000D01*
X22355000Y-5185000D02*
X22325000Y-5215000D01*
X22385000Y-8865000D02*
X22415000Y-8895000D01*
X22415000Y-8865000D02*
X22385000Y-8895000D01*
X22495000Y-5185000D02*
X22525000Y-5215000D01*
X22525000Y-5185000D02*
X22495000Y-5215000D01*
X22495000Y-12425000D02*
X22525000Y-12455000D01*
X22525000Y-12425000D02*
X22495000Y-12455000D01*
X22535000Y-9895000D02*
X22565000Y-9925000D01*
X22565000Y-9895000D02*
X22535000Y-9925000D01*
X22655000Y-5185000D02*
X22685000Y-5215000D01*
X22685000Y-5185000D02*
X22655000Y-5215000D01*
X22785000Y-5985000D02*
X22815000Y-6015000D01*
X22815000Y-5985000D02*
X22785000Y-6015000D01*
X22785000Y-7585000D02*
X22815000Y-7615000D01*
X22815000Y-7585000D02*
X22785000Y-7615000D01*
X22785000Y-8385000D02*
X22815000Y-8415000D01*
X22815000Y-8385000D02*
X22785000Y-8415000D01*
X22785000Y-13735000D02*
X22815000Y-13765000D01*
X22815000Y-13735000D02*
X22785000Y-13765000D01*
X22805000Y-12385000D02*
X22835000Y-12415000D01*
X22835000Y-12385000D02*
X22805000Y-12415000D01*
X22805000Y-12535000D02*
X22835000Y-12565000D01*
X22835000Y-12535000D02*
X22805000Y-12565000D01*
X22805000Y-12685000D02*
X22835000Y-12715000D01*
X22835000Y-12685000D02*
X22805000Y-12715000D01*
X22805000Y-12835000D02*
X22835000Y-12865000D01*
X22835000Y-12835000D02*
X22805000Y-12865000D01*
X22805000Y-12985000D02*
X22835000Y-13015000D01*
X22835000Y-12985000D02*
X22805000Y-13015000D01*
X22805000Y-13135000D02*
X22835000Y-13165000D01*
X22835000Y-13135000D02*
X22805000Y-13165000D01*
X22805000Y-13285000D02*
X22835000Y-13315000D01*
X22835000Y-13285000D02*
X22805000Y-13315000D01*
X22805000Y-13435000D02*
X22835000Y-13465000D01*
X22835000Y-13435000D02*
X22805000Y-13465000D01*
X22835000Y-5185000D02*
X22865000Y-5215000D01*
X22865000Y-5185000D02*
X22835000Y-5215000D01*
X22835000Y-14135000D02*
X22865000Y-14165000D01*
X22865000Y-14135000D02*
X22835000Y-14165000D01*
X22885000Y-13785000D02*
X22915000Y-13815000D01*
X22915000Y-13785000D02*
X22885000Y-13815000D01*
X22905000Y-12295000D02*
X22935000Y-12325000D01*
X22935000Y-12295000D02*
X22905000Y-12325000D01*
X22935000Y-14135000D02*
X22965000Y-14165000D01*
X22965000Y-14135000D02*
X22935000Y-14165000D01*
X22945000Y-9785000D02*
X22975000Y-9815000D01*
X22975000Y-9785000D02*
X22945000Y-9815000D01*
X22945000Y-10085000D02*
X22975000Y-10115000D01*
X22975000Y-10085000D02*
X22945000Y-10115000D01*
X22945000Y-10385000D02*
X22975000Y-10415000D01*
X22975000Y-10385000D02*
X22945000Y-10415000D01*
X22985000Y-8225000D02*
X23015000Y-8255000D01*
X23015000Y-8225000D02*
X22985000Y-8255000D01*
X22985000Y-8565000D02*
X23015000Y-8595000D01*
X23015000Y-8565000D02*
X22985000Y-8595000D01*
X22985000Y-11865000D02*
X23015000Y-11895000D01*
X23015000Y-11865000D02*
X22985000Y-11895000D01*
X22985000Y-13785000D02*
X23015000Y-13815000D01*
X23015000Y-13785000D02*
X22985000Y-13815000D01*
X23005000Y-5185000D02*
X23035000Y-5215000D01*
X23035000Y-5185000D02*
X23005000Y-5215000D01*
X23015000Y-12185000D02*
X23045000Y-12215000D01*
X23045000Y-12185000D02*
X23015000Y-12215000D01*
X23035000Y-14135000D02*
X23065000Y-14165000D01*
X23065000Y-14135000D02*
X23035000Y-14165000D01*
X23075000Y-12495000D02*
X23105000Y-12525000D01*
X23105000Y-12495000D02*
X23075000Y-12525000D01*
X23075000Y-12635000D02*
X23105000Y-12665000D01*
X23105000Y-12635000D02*
X23075000Y-12665000D01*
X23075000Y-12785000D02*
X23105000Y-12815000D01*
X23105000Y-12785000D02*
X23075000Y-12815000D01*
X23075000Y-12935000D02*
X23105000Y-12965000D01*
X23105000Y-12935000D02*
X23075000Y-12965000D01*
X23075000Y-13085000D02*
X23105000Y-13115000D01*
X23105000Y-13085000D02*
X23075000Y-13115000D01*
X23075000Y-13235000D02*
X23105000Y-13265000D01*
X23105000Y-13235000D02*
X23075000Y-13265000D01*
X23075000Y-13385000D02*
X23105000Y-13415000D01*
X23105000Y-13385000D02*
X23075000Y-13415000D01*
X23085000Y-13735000D02*
X23115000Y-13765000D01*
X23115000Y-13735000D02*
X23085000Y-13765000D01*
X23135000Y-13485000D02*
X23165000Y-13515000D01*
X23165000Y-13485000D02*
X23135000Y-13515000D01*
X23135000Y-13635000D02*
X23165000Y-13665000D01*
X23165000Y-13635000D02*
X23135000Y-13665000D01*
X23155000Y-12155000D02*
X23185000Y-12185000D01*
X23185000Y-12155000D02*
X23155000Y-12185000D01*
X23175000Y-5185000D02*
X23205000Y-5215000D01*
X23205000Y-5185000D02*
X23175000Y-5215000D01*
X23175000Y-14205000D02*
X23205000Y-14235000D01*
X23205000Y-14205000D02*
X23175000Y-14235000D01*
X23185000Y-8965000D02*
X23215000Y-8995000D01*
X23215000Y-8965000D02*
X23185000Y-8995000D01*
X23185000Y-14465000D02*
X23215000Y-14495000D01*
X23215000Y-14465000D02*
X23185000Y-14495000D01*
X23195000Y-12405000D02*
X23225000Y-12435000D01*
X23225000Y-12405000D02*
X23195000Y-12435000D01*
X23285000Y-5745000D02*
X23315000Y-5775000D01*
X23315000Y-5745000D02*
X23285000Y-5775000D01*
X23285000Y-12155000D02*
X23315000Y-12185000D01*
X23315000Y-12155000D02*
X23285000Y-12185000D01*
X23288000Y-11436000D02*
X23318000Y-11466000D01*
X23318000Y-11436000D02*
X23288000Y-11466000D01*
X23335000Y-14465000D02*
X23365000Y-14495000D01*
X23365000Y-14465000D02*
X23335000Y-14495000D01*
X23344999Y-9625000D02*
X23374999Y-9655000D01*
X23374999Y-9625000D02*
X23344999Y-9655000D01*
X23345000Y-5185000D02*
X23375000Y-5215000D01*
X23375000Y-5185000D02*
X23345000Y-5215000D01*
X23345000Y-12405000D02*
X23375000Y-12435000D01*
X23375000Y-12405000D02*
X23345000Y-12435000D01*
X23345000Y-14205000D02*
X23375000Y-14235000D01*
X23375000Y-14205000D02*
X23345000Y-14235000D01*
X23405000Y-7205000D02*
X23435000Y-7235000D01*
X23435000Y-7205000D02*
X23405000Y-7235000D01*
X23425000Y-8225000D02*
X23455000Y-8255000D01*
X23455000Y-8225000D02*
X23425000Y-8255000D01*
X23425000Y-12155000D02*
X23455000Y-12185000D01*
X23455000Y-12155000D02*
X23425000Y-12185000D01*
X23445000Y-9485000D02*
X23475000Y-9515000D01*
X23475000Y-9485000D02*
X23445000Y-9515000D01*
X23475000Y-14465000D02*
X23505000Y-14495000D01*
X23505000Y-14465000D02*
X23475000Y-14495000D01*
X23485000Y-8565000D02*
X23515000Y-8595000D01*
X23515000Y-8565000D02*
X23485000Y-8595000D01*
X23495000Y-12405000D02*
X23525000Y-12435000D01*
X23525000Y-12405000D02*
X23495000Y-12435000D01*
X23505000Y-14195000D02*
X23535000Y-14225000D01*
X23535000Y-14195000D02*
X23505000Y-14225000D01*
X23525000Y-5185000D02*
X23555000Y-5215000D01*
X23555000Y-5185000D02*
X23525000Y-5215000D01*
X23565000Y-12155000D02*
X23595000Y-12185000D01*
X23595000Y-12155000D02*
X23565000Y-12185000D01*
X23585000Y-11865000D02*
X23615000Y-11895000D01*
X23615000Y-11865000D02*
X23585000Y-11895000D01*
X23622500Y-9482500D02*
X23652500Y-9512500D01*
X23652500Y-9482500D02*
X23622500Y-9512500D01*
X23625000Y-12405000D02*
X23655000Y-12435000D01*
X23655000Y-12405000D02*
X23625000Y-12435000D01*
X23635000Y-5305000D02*
X23665000Y-5335000D01*
X23665000Y-5305000D02*
X23635000Y-5335000D01*
X23635000Y-5455000D02*
X23665000Y-5485000D01*
X23665000Y-5455000D02*
X23635000Y-5485000D01*
X23635000Y-5585000D02*
X23665000Y-5615000D01*
X23665000Y-5585000D02*
X23635000Y-5615000D01*
X23635000Y-5725000D02*
X23665000Y-5755000D01*
X23665000Y-5725000D02*
X23635000Y-5755000D01*
X23635000Y-5855000D02*
X23665000Y-5885000D01*
X23665000Y-5855000D02*
X23635000Y-5885000D01*
X23635000Y-5995000D02*
X23665000Y-6025000D01*
X23665000Y-5995000D02*
X23635000Y-6025000D01*
X23635000Y-6125000D02*
X23665000Y-6155000D01*
X23665000Y-6125000D02*
X23635000Y-6155000D01*
X23645000Y-14065000D02*
X23675000Y-14095000D01*
X23675000Y-14065000D02*
X23645000Y-14095000D01*
X23645000Y-14435000D02*
X23675000Y-14465000D01*
X23675000Y-14435000D02*
X23645000Y-14465000D01*
X23665000Y-6275000D02*
X23695000Y-6305000D01*
X23695000Y-6275000D02*
X23665000Y-6305000D01*
X23705000Y-8865000D02*
X23735000Y-8895000D01*
X23735000Y-8865000D02*
X23705000Y-8895000D01*
X23715000Y-12155000D02*
X23745000Y-12185000D01*
X23745000Y-12155000D02*
X23715000Y-12185000D01*
X23755000Y-6375000D02*
X23785000Y-6405000D01*
X23785000Y-6375000D02*
X23755000Y-6405000D01*
X23755000Y-13965000D02*
X23785000Y-13995000D01*
X23785000Y-13965000D02*
X23755000Y-13995000D01*
X23765000Y-12405000D02*
X23795000Y-12435000D01*
X23795000Y-12405000D02*
X23765000Y-12435000D01*
X23765000Y-14315000D02*
X23795000Y-14345000D01*
X23795000Y-14315000D02*
X23765000Y-14345000D01*
X23785000Y-10665000D02*
X23815000Y-10695000D01*
X23815000Y-10665000D02*
X23785000Y-10695000D01*
X23835000Y-12085000D02*
X23865000Y-12115000D01*
X23865000Y-12085000D02*
X23835000Y-12115000D01*
X23845000Y-6465000D02*
X23875000Y-6495000D01*
X23875000Y-6465000D02*
X23845000Y-6495000D01*
X23865000Y-10225000D02*
X23895000Y-10255000D01*
X23895000Y-10225000D02*
X23865000Y-10255000D01*
X23865000Y-10585000D02*
X23895000Y-10615000D01*
X23895000Y-10585000D02*
X23865000Y-10615000D01*
X23865000Y-13855000D02*
X23895000Y-13885000D01*
X23895000Y-13855000D02*
X23865000Y-13885000D01*
X23875000Y-11635000D02*
X23905000Y-11665000D01*
X23905000Y-11635000D02*
X23875000Y-11665000D01*
X23875000Y-14205000D02*
X23905000Y-14235000D01*
X23905000Y-14205000D02*
X23875000Y-14235000D01*
X23895000Y-5095000D02*
X23925000Y-5125000D01*
X23925000Y-5095000D02*
X23895000Y-5125000D01*
X23895000Y-5235000D02*
X23925000Y-5265000D01*
X23925000Y-5235000D02*
X23895000Y-5265000D01*
X23895000Y-5365000D02*
X23925000Y-5395000D01*
X23925000Y-5365000D02*
X23895000Y-5395000D01*
X23895000Y-5505000D02*
X23925000Y-5535000D01*
X23925000Y-5505000D02*
X23895000Y-5535000D01*
X23895000Y-5625000D02*
X23925000Y-5655000D01*
X23925000Y-5625000D02*
X23895000Y-5655000D01*
X23895000Y-5765000D02*
X23925000Y-5795000D01*
X23925000Y-5765000D02*
X23895000Y-5795000D01*
X23895000Y-5885000D02*
X23925000Y-5915000D01*
X23925000Y-5885000D02*
X23895000Y-5915000D01*
X23895000Y-6005000D02*
X23925000Y-6035000D01*
X23925000Y-6005000D02*
X23895000Y-6035000D01*
X23925000Y-6155000D02*
X23955000Y-6185000D01*
X23955000Y-6155000D02*
X23925000Y-6185000D01*
X23925000Y-11995000D02*
X23955000Y-12025000D01*
X23955000Y-11995000D02*
X23925000Y-12025000D01*
X23935000Y-6555000D02*
X23965000Y-6585000D01*
X23965000Y-6555000D02*
X23935000Y-6585000D01*
X23935000Y-12365000D02*
X23965000Y-12395000D01*
X23965000Y-12365000D02*
X23935000Y-12395000D01*
X23975000Y-13745000D02*
X24005000Y-13775000D01*
X24005000Y-13745000D02*
X23975000Y-13775000D01*
X23985000Y-14095000D02*
X24015000Y-14125000D01*
X24015000Y-14095000D02*
X23985000Y-14125000D01*
X24005000Y-9625000D02*
X24035000Y-9655000D01*
X24035000Y-9625000D02*
X24005000Y-9655000D01*
X24025000Y-6265000D02*
X24055000Y-6295000D01*
X24055000Y-6265000D02*
X24025000Y-6295000D01*
X24025000Y-11905000D02*
X24055000Y-11935000D01*
X24055000Y-11905000D02*
X24025000Y-11935000D01*
X24035000Y-6645000D02*
X24065000Y-6675000D01*
X24065000Y-6645000D02*
X24035000Y-6675000D01*
X24045000Y-12275000D02*
X24075000Y-12305000D01*
X24075000Y-12275000D02*
X24045000Y-12305000D01*
X24064998Y-8785000D02*
X24094998Y-8815000D01*
X24094998Y-8785000D02*
X24064998Y-8815000D01*
X24085000Y-8065000D02*
X24115000Y-8095000D01*
X24115000Y-8065000D02*
X24085000Y-8095000D01*
X24085000Y-13625000D02*
X24115000Y-13655000D01*
X24115000Y-13625000D02*
X24085000Y-13655000D01*
X24085000Y-13995000D02*
X24115000Y-14025000D01*
X24115000Y-13995000D02*
X24085000Y-14025000D01*
X24125000Y-6365000D02*
X24155000Y-6395000D01*
X24155000Y-6365000D02*
X24125000Y-6395000D01*
X24125000Y-11805000D02*
X24155000Y-11835000D01*
X24155000Y-11805000D02*
X24125000Y-11835000D01*
X24145000Y-12165000D02*
X24175000Y-12195000D01*
X24175000Y-12165000D02*
X24145000Y-12195000D01*
X24165000Y-7385000D02*
X24195000Y-7415000D01*
X24195000Y-7385000D02*
X24165000Y-7415000D01*
X24185000Y-13525000D02*
X24215000Y-13555000D01*
X24215000Y-13525000D02*
X24185000Y-13555000D01*
X24185000Y-13895000D02*
X24215000Y-13925000D01*
X24215000Y-13895000D02*
X24185000Y-13925000D01*
X24225000Y-9625000D02*
X24255000Y-9655000D01*
X24255000Y-9625000D02*
X24225000Y-9655000D01*
X24245000Y-8565000D02*
X24275000Y-8595000D01*
X24275000Y-8565000D02*
X24245000Y-8595000D01*
X24265000Y-12045000D02*
X24295000Y-12075000D01*
X24295000Y-12045000D02*
X24265000Y-12075000D01*
X24285000Y-13795000D02*
X24315000Y-13825000D01*
X24315000Y-13795000D02*
X24285000Y-13825000D01*
X24295000Y-13415000D02*
X24325000Y-13445000D01*
X24325000Y-13415000D02*
X24295000Y-13445000D01*
X24335000Y-6445000D02*
X24365000Y-6475000D01*
X24365000Y-6445000D02*
X24335000Y-6475000D01*
X24355000Y-13725000D02*
X24385000Y-13755000D01*
X24385000Y-13725000D02*
X24355000Y-13755000D01*
X24375000Y-6705000D02*
X24405000Y-6735000D01*
X24405000Y-6705000D02*
X24375000Y-6735000D01*
X24385000Y-13325000D02*
X24415000Y-13355000D01*
X24415000Y-13325000D02*
X24385000Y-13355000D01*
X24405000Y-8225000D02*
X24435000Y-8255000D01*
X24435000Y-8225000D02*
X24405000Y-8255000D01*
X24405000Y-11925000D02*
X24435000Y-11955000D01*
X24435000Y-11925000D02*
X24405000Y-11955000D01*
X24415000Y-6325000D02*
X24445000Y-6355000D01*
X24445000Y-6325000D02*
X24415000Y-6355000D01*
X24415000Y-6835000D02*
X24445000Y-6865000D01*
X24445000Y-6835000D02*
X24415000Y-6865000D01*
X24425000Y-6445000D02*
X24455000Y-6475000D01*
X24455000Y-6445000D02*
X24425000Y-6475000D01*
X24425000Y-11555000D02*
X24455000Y-11585000D01*
X24455000Y-11555000D02*
X24425000Y-11585000D01*
X24435000Y-13645000D02*
X24465000Y-13675000D01*
X24465000Y-13645000D02*
X24435000Y-13675000D01*
X24575000Y-12945000D02*
X24605000Y-12975000D01*
X24605000Y-12945000D02*
X24575000Y-12975000D01*
X24585000Y-6145000D02*
X24615000Y-6175000D01*
X24615000Y-6145000D02*
X24585000Y-6175000D01*
X24585000Y-8005000D02*
X24615000Y-8035000D01*
X24615000Y-8005000D02*
X24585000Y-8035000D01*
X24585000Y-11245000D02*
X24615000Y-11275000D01*
X24615000Y-11245000D02*
X24585000Y-11275000D01*
X24605000Y-7025000D02*
X24635000Y-7055000D01*
X24635000Y-7025000D02*
X24605000Y-7055000D01*
X24605000Y-12125000D02*
X24635000Y-12155000D01*
X24635000Y-12125000D02*
X24605000Y-12155000D01*
X24605000Y-13825000D02*
X24635000Y-13855000D01*
X24635000Y-13825000D02*
X24605000Y-13855000D01*
X24665000Y-6145000D02*
X24695000Y-6175000D01*
X24695000Y-6145000D02*
X24665000Y-6175000D01*
X24665000Y-11245000D02*
X24695000Y-11275000D01*
X24695000Y-11245000D02*
X24665000Y-11275000D01*
X24665000Y-12945000D02*
X24695000Y-12975000D01*
X24695000Y-12945000D02*
X24665000Y-12975000D01*
X24685000Y-7025000D02*
X24715000Y-7055000D01*
X24715000Y-7025000D02*
X24685000Y-7055000D01*
X24685000Y-12125000D02*
X24715000Y-12155000D01*
X24715000Y-12125000D02*
X24685000Y-12155000D01*
X24685000Y-13825000D02*
X24715000Y-13855000D01*
X24715000Y-13825000D02*
X24685000Y-13855000D01*
X24745000Y-6145000D02*
X24775000Y-6175000D01*
X24775000Y-6145000D02*
X24745000Y-6175000D01*
X24745000Y-11245000D02*
X24775000Y-11275000D01*
X24775000Y-11245000D02*
X24745000Y-11275000D01*
X24755000Y-12945000D02*
X24785000Y-12975000D01*
X24785000Y-12945000D02*
X24755000Y-12975000D01*
X24765000Y-7025000D02*
X24795000Y-7055000D01*
X24795000Y-7025000D02*
X24765000Y-7055000D01*
X24765000Y-12125000D02*
X24795000Y-12155000D01*
X24795000Y-12125000D02*
X24765000Y-12155000D01*
X24765000Y-13825000D02*
X24795000Y-13855000D01*
X24795000Y-13825000D02*
X24765000Y-13855000D01*
X24785000Y-7205000D02*
X24815000Y-7235000D01*
X24815000Y-7205000D02*
X24785000Y-7235000D01*
X24825000Y-6145000D02*
X24855000Y-6175000D01*
X24855000Y-6145000D02*
X24825000Y-6175000D01*
X24825000Y-11245000D02*
X24855000Y-11275000D01*
X24855000Y-11245000D02*
X24825000Y-11275000D01*
X24845000Y-7025000D02*
X24875000Y-7055000D01*
X24875000Y-7025000D02*
X24845000Y-7055000D01*
X24845000Y-12125000D02*
X24875000Y-12155000D01*
X24875000Y-12125000D02*
X24845000Y-12155000D01*
X24845000Y-12225000D02*
X24875000Y-12255000D01*
X24875000Y-12225000D02*
X24845000Y-12255000D01*
X24845000Y-12315000D02*
X24875000Y-12345000D01*
X24875000Y-12315000D02*
X24845000Y-12345000D01*
X24845000Y-12405000D02*
X24875000Y-12435000D01*
X24875000Y-12405000D02*
X24845000Y-12435000D01*
X24845000Y-12495000D02*
X24875000Y-12525000D01*
X24875000Y-12495000D02*
X24845000Y-12525000D01*
X24845000Y-12585000D02*
X24875000Y-12615000D01*
X24875000Y-12585000D02*
X24845000Y-12615000D01*
X24845000Y-12675000D02*
X24875000Y-12705000D01*
X24875000Y-12675000D02*
X24845000Y-12705000D01*
X24845000Y-12765000D02*
X24875000Y-12795000D01*
X24875000Y-12765000D02*
X24845000Y-12795000D01*
X24845000Y-12855000D02*
X24875000Y-12885000D01*
X24875000Y-12855000D02*
X24845000Y-12885000D01*
X24845000Y-12945000D02*
X24875000Y-12975000D01*
X24875000Y-12945000D02*
X24845000Y-12975000D01*
X24845000Y-13825000D02*
X24875000Y-13855000D01*
X24875000Y-13825000D02*
X24845000Y-13855000D01*
X5262500Y-5500000D02*
G75*
G03*
X5262500Y-5500000I-25000J0D01*
G01*
X5262500Y-14500000D02*
G75*
G03*
X5262500Y-14500000I-25000J0D01*
G01*
X5339385Y-5314385D02*
G75*
G03*
X5339385Y-5314385I-25000J0D01*
G01*
X5339385Y-5685615D02*
G75*
G03*
X5339385Y-5685615I-25000J0D01*
G01*
X5339385Y-14314384D02*
G75*
G03*
X5339385Y-14314384I-25000J0D01*
G01*
X5339385Y-14685615D02*
G75*
G03*
X5339385Y-14685615I-25000J0D01*
G01*
X5525000Y-5237500D02*
G75*
G03*
X5525000Y-5237500I-25000J0D01*
G01*
X5525000Y-5762500D02*
G75*
G03*
X5525000Y-5762500I-25000J0D01*
G01*
X5525000Y-14237500D02*
G75*
G03*
X5525000Y-14237500I-25000J0D01*
G01*
X5525000Y-14762500D02*
G75*
G03*
X5525000Y-14762500I-25000J0D01*
G01*
X5710615Y-5314385D02*
G75*
G03*
X5710615Y-5314385I-25000J0D01*
G01*
X5710615Y-5685615D02*
G75*
G03*
X5710615Y-5685615I-25000J0D01*
G01*
X5710615Y-14314384D02*
G75*
G03*
X5710615Y-14314384I-25000J0D01*
G01*
X5710615Y-14685615D02*
G75*
G03*
X5710615Y-14685615I-25000J0D01*
G01*
X5787500Y-5500000D02*
G75*
G03*
X5787500Y-5500000I-25000J0D01*
G01*
X5787500Y-14500000D02*
G75*
G03*
X5787500Y-14500000I-25000J0D01*
G01*
X12662500Y-8600000D02*
G75*
G03*
X12662500Y-8600000I-25000J0D01*
G01*
X12739384Y-8414385D02*
G75*
G03*
X12739384Y-8414385I-25000J0D01*
G01*
X12739384Y-8785616D02*
G75*
G03*
X12739384Y-8785616I-25000J0D01*
G01*
X12925000Y-8337500D02*
G75*
G03*
X12925000Y-8337500I-25000J0D01*
G01*
X12925000Y-8862500D02*
G75*
G03*
X12925000Y-8862500I-25000J0D01*
G01*
X13110615Y-8414385D02*
G75*
G03*
X13110615Y-8414385I-25000J0D01*
G01*
X13110615Y-8785616D02*
G75*
G03*
X13110615Y-8785616I-25000J0D01*
G01*
X13187500Y-8600000D02*
G75*
G03*
X13187500Y-8600000I-25000J0D01*
G01*
X16062500Y-11400000D02*
G75*
G03*
X16062500Y-11400000I-25000J0D01*
G01*
X16139384Y-11214384D02*
G75*
G03*
X16139384Y-11214384I-25000J0D01*
G01*
X16139384Y-11585615D02*
G75*
G03*
X16139384Y-11585615I-25000J0D01*
G01*
X16325000Y-11137500D02*
G75*
G03*
X16325000Y-11137500I-25000J0D01*
G01*
X16325000Y-11662500D02*
G75*
G03*
X16325000Y-11662500I-25000J0D01*
G01*
X16510615Y-11214384D02*
G75*
G03*
X16510615Y-11214384I-25000J0D01*
G01*
X16510615Y-11585615D02*
G75*
G03*
X16510615Y-11585615I-25000J0D01*
G01*
X16587500Y-11400000D02*
G75*
G03*
X16587500Y-11400000I-25000J0D01*
G01*
X24262500Y-5500000D02*
G75*
G03*
X24262500Y-5500000I-25000J0D01*
G01*
X24262500Y-14500000D02*
G75*
G03*
X24262500Y-14500000I-25000J0D01*
G01*
X24339384Y-5314385D02*
G75*
G03*
X24339384Y-5314385I-25000J0D01*
G01*
X24339384Y-5685615D02*
G75*
G03*
X24339384Y-5685615I-25000J0D01*
G01*
X24339384Y-14314384D02*
G75*
G03*
X24339384Y-14314384I-25000J0D01*
G01*
X24339384Y-14685615D02*
G75*
G03*
X24339384Y-14685615I-25000J0D01*
G01*
X24525000Y-5237500D02*
G75*
G03*
X24525000Y-5237500I-25000J0D01*
G01*
X24525000Y-5762500D02*
G75*
G03*
X24525000Y-5762500I-25000J0D01*
G01*
X24525000Y-14237500D02*
G75*
G03*
X24525000Y-14237500I-25000J0D01*
G01*
X24525000Y-14762500D02*
G75*
G03*
X24525000Y-14762500I-25000J0D01*
G01*
X24710615Y-5314385D02*
G75*
G03*
X24710615Y-5314385I-25000J0D01*
G01*
X24710615Y-5685615D02*
G75*
G03*
X24710615Y-5685615I-25000J0D01*
G01*
X24710615Y-14314384D02*
G75*
G03*
X24710615Y-14314384I-25000J0D01*
G01*
X24710615Y-14685615D02*
G75*
G03*
X24710615Y-14685615I-25000J0D01*
G01*
X24787500Y-5500000D02*
G75*
G03*
X24787500Y-5500000I-25000J0D01*
G01*
X24787500Y-14500000D02*
G75*
G03*
X24787500Y-14500000I-25000J0D01*
G01*
X24600000Y-8380000D02*
X24600000Y-8470000D01*
X24555000Y-8425000D02*
X24645000Y-8425000D01*
X24600000Y-8630000D02*
X24600000Y-8720000D01*
X24555000Y-8675000D02*
X24645000Y-8675000D01*
X24600000Y-8880000D02*
X24600000Y-8970000D01*
X24555000Y-8925000D02*
X24645000Y-8925000D01*
X24600000Y-9130000D02*
X24600000Y-9220000D01*
X24555000Y-9175000D02*
X24645000Y-9175000D01*
X24600000Y-9380000D02*
X24600000Y-9470000D01*
X24555000Y-9425000D02*
X24645000Y-9425000D01*
X24600000Y-9630000D02*
X24600000Y-9720000D01*
X24555000Y-9675000D02*
X24645000Y-9675000D01*
X24600000Y-9880000D02*
X24600000Y-9970000D01*
X24555000Y-9925000D02*
X24645000Y-9925000D01*
X24600000Y-10130000D02*
X24600000Y-10220000D01*
X24555000Y-10175000D02*
X24645000Y-10175000D01*
X5285356Y-7485356D02*
X5285356Y-7414644D01*
X5214644Y-7414644D01*
X5214644Y-7485356D01*
X5285356Y-7485356D01*
X5285356Y-11535356D02*
X5285356Y-11464644D01*
X5214644Y-11464644D01*
X5214644Y-11535356D01*
X5285356Y-11535356D01*
X5785356Y-10285356D02*
X5785356Y-10214644D01*
X5714644Y-10214644D01*
X5714644Y-10285356D01*
X5785356Y-10285356D01*
X6185356Y-8585356D02*
X6185356Y-8514644D01*
X6114644Y-8514644D01*
X6114644Y-8585356D01*
X6185356Y-8585356D01*
X6185356Y-12635356D02*
X6185356Y-12564644D01*
X6114644Y-12564644D01*
X6114644Y-12635356D01*
X6185356Y-12635356D01*
X6227356Y-5373356D02*
X6227356Y-5302644D01*
X6156644Y-5302644D01*
X6156644Y-5373356D01*
X6227356Y-5373356D01*
X6227356Y-5627356D02*
X6227356Y-5556644D01*
X6156644Y-5556644D01*
X6156644Y-5627356D01*
X6227356Y-5627356D01*
X6227356Y-6643356D02*
X6227356Y-6572644D01*
X6156644Y-6572644D01*
X6156644Y-6643356D01*
X6227356Y-6643356D01*
X6481356Y-13427356D02*
X6481356Y-13356644D01*
X6410644Y-13356644D01*
X6410644Y-13427356D01*
X6481356Y-13427356D01*
X6481356Y-14443356D02*
X6481356Y-14372644D01*
X6410644Y-14372644D01*
X6410644Y-14443356D01*
X6481356Y-14443356D01*
X6481356Y-14697356D02*
X6481356Y-14626644D01*
X6410644Y-14626644D01*
X6410644Y-14697356D01*
X6481356Y-14697356D01*
X6885356Y-9385356D02*
X6885356Y-9314644D01*
X6814644Y-9314644D01*
X6814644Y-9385356D01*
X6885356Y-9385356D01*
X6989356Y-5373356D02*
X6989356Y-5302644D01*
X6918644Y-5302644D01*
X6918644Y-5373356D01*
X6989356Y-5373356D01*
X6989356Y-5627356D02*
X6989356Y-5556644D01*
X6918644Y-5556644D01*
X6918644Y-5627356D01*
X6989356Y-5627356D01*
X6989356Y-6643356D02*
X6989356Y-6572644D01*
X6918644Y-6572644D01*
X6918644Y-6643356D01*
X6989356Y-6643356D01*
X7243356Y-13427356D02*
X7243356Y-13356644D01*
X7172644Y-13356644D01*
X7172644Y-13427356D01*
X7243356Y-13427356D01*
X7243356Y-14443356D02*
X7243356Y-14372644D01*
X7172644Y-14372644D01*
X7172644Y-14443356D01*
X7243356Y-14443356D01*
X7243356Y-14697356D02*
X7243356Y-14626644D01*
X7172644Y-14626644D01*
X7172644Y-14697356D01*
X7243356Y-14697356D01*
X7585356Y-7985356D02*
X7585356Y-7914644D01*
X7514644Y-7914644D01*
X7514644Y-7985356D01*
X7585356Y-7985356D01*
X7585356Y-12385356D02*
X7585356Y-12314644D01*
X7514644Y-12314644D01*
X7514644Y-12385356D01*
X7585356Y-12385356D01*
X7785356Y-8785356D02*
X7785356Y-8714644D01*
X7714644Y-8714644D01*
X7714644Y-8785356D01*
X7785356Y-8785356D01*
X8127356Y-5373356D02*
X8127356Y-5302644D01*
X8056644Y-5302644D01*
X8056644Y-5373356D01*
X8127356Y-5373356D01*
X8127356Y-5627356D02*
X8127356Y-5556644D01*
X8056644Y-5556644D01*
X8056644Y-5627356D01*
X8127356Y-5627356D01*
X8127356Y-6643356D02*
X8127356Y-6572644D01*
X8056644Y-6572644D01*
X8056644Y-6643356D01*
X8127356Y-6643356D01*
X8281356Y-13427356D02*
X8281356Y-13356644D01*
X8210644Y-13356644D01*
X8210644Y-13427356D01*
X8281356Y-13427356D01*
X8281356Y-14443356D02*
X8281356Y-14372644D01*
X8210644Y-14372644D01*
X8210644Y-14443356D01*
X8281356Y-14443356D01*
X8281356Y-14697356D02*
X8281356Y-14626644D01*
X8210644Y-14626644D01*
X8210644Y-14697356D01*
X8281356Y-14697356D01*
X8685356Y-7085356D02*
X8685356Y-7014644D01*
X8614644Y-7014644D01*
X8614644Y-7085356D01*
X8685356Y-7085356D01*
X8685356Y-9885356D02*
X8685356Y-9814644D01*
X8614644Y-9814644D01*
X8614644Y-9885356D01*
X8685356Y-9885356D01*
X8685356Y-11485356D02*
X8685356Y-11414644D01*
X8614644Y-11414644D01*
X8614644Y-11485356D01*
X8685356Y-11485356D01*
X8889356Y-5373356D02*
X8889356Y-5302644D01*
X8818644Y-5302644D01*
X8818644Y-5373356D01*
X8889356Y-5373356D01*
X8889356Y-5627356D02*
X8889356Y-5556644D01*
X8818644Y-5556644D01*
X8818644Y-5627356D01*
X8889356Y-5627356D01*
X8889356Y-6643356D02*
X8889356Y-6572644D01*
X8818644Y-6572644D01*
X8818644Y-6643356D01*
X8889356Y-6643356D01*
X9043356Y-13427356D02*
X9043356Y-13356644D01*
X8972644Y-13356644D01*
X8972644Y-13427356D01*
X9043356Y-13427356D01*
X9043356Y-14443356D02*
X9043356Y-14372644D01*
X8972644Y-14372644D01*
X8972644Y-14443356D01*
X9043356Y-14443356D01*
X9043356Y-14697356D02*
X9043356Y-14626644D01*
X8972644Y-14626644D01*
X8972644Y-14697356D01*
X9043356Y-14697356D01*
X9885356Y-11635356D02*
X9885356Y-11564644D01*
X9814644Y-11564644D01*
X9814644Y-11635356D01*
X9885356Y-11635356D01*
X9935356Y-10185356D02*
X9935356Y-10114644D01*
X9864644Y-10114644D01*
X9864644Y-10185356D01*
X9935356Y-10185356D01*
X9985356Y-7735356D02*
X9985356Y-7664644D01*
X9914644Y-7664644D01*
X9914644Y-7735356D01*
X9985356Y-7735356D01*
X10027356Y-5373356D02*
X10027356Y-5302644D01*
X9956644Y-5302644D01*
X9956644Y-5373356D01*
X10027356Y-5373356D01*
X10027356Y-5627356D02*
X10027356Y-5556644D01*
X9956644Y-5556644D01*
X9956644Y-5627356D01*
X10027356Y-5627356D01*
X10027356Y-6643356D02*
X10027356Y-6572644D01*
X9956644Y-6572644D01*
X9956644Y-6643356D01*
X10027356Y-6643356D01*
X10081356Y-13427356D02*
X10081356Y-13356644D01*
X10010644Y-13356644D01*
X10010644Y-13427356D01*
X10081356Y-13427356D01*
X10081356Y-14443356D02*
X10081356Y-14372644D01*
X10010644Y-14372644D01*
X10010644Y-14443356D01*
X10081356Y-14443356D01*
X10081356Y-14697356D02*
X10081356Y-14626644D01*
X10010644Y-14626644D01*
X10010644Y-14697356D01*
X10081356Y-14697356D01*
X10585356Y-12435356D02*
X10585356Y-12364644D01*
X10514644Y-12364644D01*
X10514644Y-12435356D01*
X10585356Y-12435356D01*
X10685356Y-8535356D02*
X10685356Y-8464644D01*
X10614644Y-8464644D01*
X10614644Y-8535356D01*
X10685356Y-8535356D01*
X10735356Y-9485356D02*
X10735356Y-9414644D01*
X10664644Y-9414644D01*
X10664644Y-9485356D01*
X10735356Y-9485356D01*
X10789356Y-5373356D02*
X10789356Y-5302644D01*
X10718644Y-5302644D01*
X10718644Y-5373356D01*
X10789356Y-5373356D01*
X10789356Y-5627356D02*
X10789356Y-5556644D01*
X10718644Y-5556644D01*
X10718644Y-5627356D01*
X10789356Y-5627356D01*
X10789356Y-6643356D02*
X10789356Y-6572644D01*
X10718644Y-6572644D01*
X10718644Y-6643356D01*
X10789356Y-6643356D01*
X10843356Y-13427356D02*
X10843356Y-13356644D01*
X10772644Y-13356644D01*
X10772644Y-13427356D01*
X10843356Y-13427356D01*
X10843356Y-14443356D02*
X10843356Y-14372644D01*
X10772644Y-14372644D01*
X10772644Y-14443356D01*
X10843356Y-14443356D01*
X10843356Y-14697356D02*
X10843356Y-14626644D01*
X10772644Y-14626644D01*
X10772644Y-14697356D01*
X10843356Y-14697356D01*
X11785356Y-7985356D02*
X11785356Y-7914644D01*
X11714644Y-7914644D01*
X11714644Y-7985356D01*
X11785356Y-7985356D01*
X11785356Y-9285356D02*
X11785356Y-9214644D01*
X11714644Y-9214644D01*
X11714644Y-9285356D01*
X11785356Y-9285356D01*
X11881356Y-13427356D02*
X11881356Y-13356644D01*
X11810644Y-13356644D01*
X11810644Y-13427356D01*
X11881356Y-13427356D01*
X11881356Y-14443356D02*
X11881356Y-14372644D01*
X11810644Y-14372644D01*
X11810644Y-14443356D01*
X11881356Y-14443356D01*
X11881356Y-14697356D02*
X11881356Y-14626644D01*
X11810644Y-14626644D01*
X11810644Y-14697356D01*
X11881356Y-14697356D01*
X11885356Y-12885356D02*
X11885356Y-12814644D01*
X11814644Y-12814644D01*
X11814644Y-12885356D01*
X11885356Y-12885356D01*
X11927356Y-5373356D02*
X11927356Y-5302644D01*
X11856644Y-5302644D01*
X11856644Y-5373356D01*
X11927356Y-5373356D01*
X11927356Y-5627356D02*
X11927356Y-5556644D01*
X11856644Y-5556644D01*
X11856644Y-5627356D01*
X11927356Y-5627356D01*
X11927356Y-6643356D02*
X11927356Y-6572644D01*
X11856644Y-6572644D01*
X11856644Y-6643356D01*
X11927356Y-6643356D01*
X12385356Y-7285356D02*
X12385356Y-7214644D01*
X12314644Y-7214644D01*
X12314644Y-7285356D01*
X12385356Y-7285356D01*
X12485356Y-9885356D02*
X12485356Y-9814644D01*
X12414644Y-9814644D01*
X12414644Y-9885356D01*
X12485356Y-9885356D01*
X12485356Y-12185356D02*
X12485356Y-12114644D01*
X12414644Y-12114644D01*
X12414644Y-12185356D01*
X12485356Y-12185356D01*
X12643356Y-13427356D02*
X12643356Y-13356644D01*
X12572644Y-13356644D01*
X12572644Y-13427356D01*
X12643356Y-13427356D01*
X12643356Y-14443356D02*
X12643356Y-14372644D01*
X12572644Y-14372644D01*
X12572644Y-14443356D01*
X12643356Y-14443356D01*
X12643356Y-14697356D02*
X12643356Y-14626644D01*
X12572644Y-14626644D01*
X12572644Y-14697356D01*
X12643356Y-14697356D01*
X12689356Y-5373356D02*
X12689356Y-5302644D01*
X12618644Y-5302644D01*
X12618644Y-5373356D01*
X12689356Y-5373356D01*
X12689356Y-5627356D02*
X12689356Y-5556644D01*
X12618644Y-5556644D01*
X12618644Y-5627356D01*
X12689356Y-5627356D01*
X12689356Y-6643356D02*
X12689356Y-6572644D01*
X12618644Y-6572644D01*
X12618644Y-6643356D01*
X12689356Y-6643356D01*
X13385356Y-10185356D02*
X13385356Y-10114644D01*
X13314644Y-10114644D01*
X13314644Y-10185356D01*
X13385356Y-10185356D01*
X13485356Y-7685356D02*
X13485356Y-7614644D01*
X13414644Y-7614644D01*
X13414644Y-7685356D01*
X13485356Y-7685356D01*
X13485356Y-11985356D02*
X13485356Y-11914644D01*
X13414644Y-11914644D01*
X13414644Y-11985356D01*
X13485356Y-11985356D01*
X13527356Y-5373356D02*
X13527356Y-5302644D01*
X13456644Y-5302644D01*
X13456644Y-5373356D01*
X13527356Y-5373356D01*
X13527356Y-5627356D02*
X13527356Y-5556644D01*
X13456644Y-5556644D01*
X13456644Y-5627356D01*
X13527356Y-5627356D01*
X13527356Y-6643356D02*
X13527356Y-6572644D01*
X13456644Y-6572644D01*
X13456644Y-6643356D01*
X13527356Y-6643356D01*
X13581356Y-13427356D02*
X13581356Y-13356644D01*
X13510644Y-13356644D01*
X13510644Y-13427356D01*
X13581356Y-13427356D01*
X13581356Y-14443356D02*
X13581356Y-14372644D01*
X13510644Y-14372644D01*
X13510644Y-14443356D01*
X13581356Y-14443356D01*
X13581356Y-14697356D02*
X13581356Y-14626644D01*
X13510644Y-14626644D01*
X13510644Y-14697356D01*
X13581356Y-14697356D01*
X13985356Y-9485356D02*
X13985356Y-9414644D01*
X13914644Y-9414644D01*
X13914644Y-9485356D01*
X13985356Y-9485356D01*
X14185356Y-8285356D02*
X14185356Y-8214644D01*
X14114644Y-8214644D01*
X14114644Y-8285356D01*
X14185356Y-8285356D01*
X14185356Y-12585356D02*
X14185356Y-12514644D01*
X14114644Y-12514644D01*
X14114644Y-12585356D01*
X14185356Y-12585356D01*
X14289356Y-5373356D02*
X14289356Y-5302644D01*
X14218644Y-5302644D01*
X14218644Y-5373356D01*
X14289356Y-5373356D01*
X14289356Y-5627356D02*
X14289356Y-5556644D01*
X14218644Y-5556644D01*
X14218644Y-5627356D01*
X14289356Y-5627356D01*
X14289356Y-6643356D02*
X14289356Y-6572644D01*
X14218644Y-6572644D01*
X14218644Y-6643356D01*
X14289356Y-6643356D01*
X14343356Y-13427356D02*
X14343356Y-13356644D01*
X14272644Y-13356644D01*
X14272644Y-13427356D01*
X14343356Y-13427356D01*
X14343356Y-14443356D02*
X14343356Y-14372644D01*
X14272644Y-14372644D01*
X14272644Y-14443356D01*
X14343356Y-14443356D01*
X14343356Y-14697356D02*
X14343356Y-14626644D01*
X14272644Y-14626644D01*
X14272644Y-14697356D01*
X14343356Y-14697356D01*
X14985356Y-7985356D02*
X14985356Y-7914644D01*
X14914644Y-7914644D01*
X14914644Y-7985356D01*
X14985356Y-7985356D01*
X14985356Y-9285356D02*
X14985356Y-9214644D01*
X14914644Y-9214644D01*
X14914644Y-9285356D01*
X14985356Y-9285356D01*
X15127356Y-5373356D02*
X15127356Y-5302644D01*
X15056644Y-5302644D01*
X15056644Y-5373356D01*
X15127356Y-5373356D01*
X15127356Y-5627356D02*
X15127356Y-5556644D01*
X15056644Y-5556644D01*
X15056644Y-5627356D01*
X15127356Y-5627356D01*
X15127356Y-6643356D02*
X15127356Y-6572644D01*
X15056644Y-6572644D01*
X15056644Y-6643356D01*
X15127356Y-6643356D01*
X15281356Y-13427356D02*
X15281356Y-13356644D01*
X15210644Y-13356644D01*
X15210644Y-13427356D01*
X15281356Y-13427356D01*
X15281356Y-14443356D02*
X15281356Y-14372644D01*
X15210644Y-14372644D01*
X15210644Y-14443356D01*
X15281356Y-14443356D01*
X15281356Y-14697356D02*
X15281356Y-14626644D01*
X15210644Y-14626644D01*
X15210644Y-14697356D01*
X15281356Y-14697356D01*
X15285356Y-12885356D02*
X15285356Y-12814644D01*
X15214644Y-12814644D01*
X15214644Y-12885356D01*
X15285356Y-12885356D01*
X15585356Y-7285356D02*
X15585356Y-7214644D01*
X15514644Y-7214644D01*
X15514644Y-7285356D01*
X15585356Y-7285356D01*
X15685356Y-9885356D02*
X15685356Y-9814644D01*
X15614644Y-9814644D01*
X15614644Y-9885356D01*
X15685356Y-9885356D01*
X15885356Y-12185356D02*
X15885356Y-12114644D01*
X15814644Y-12114644D01*
X15814644Y-12185356D01*
X15885356Y-12185356D01*
X15889356Y-5373356D02*
X15889356Y-5302644D01*
X15818644Y-5302644D01*
X15818644Y-5373356D01*
X15889356Y-5373356D01*
X15889356Y-5627356D02*
X15889356Y-5556644D01*
X15818644Y-5556644D01*
X15818644Y-5627356D01*
X15889356Y-5627356D01*
X15889356Y-6643356D02*
X15889356Y-6572644D01*
X15818644Y-6572644D01*
X15818644Y-6643356D01*
X15889356Y-6643356D01*
X16043356Y-13427356D02*
X16043356Y-13356644D01*
X15972644Y-13356644D01*
X15972644Y-13427356D01*
X16043356Y-13427356D01*
X16043356Y-14443356D02*
X16043356Y-14372644D01*
X15972644Y-14372644D01*
X15972644Y-14443356D01*
X16043356Y-14443356D01*
X16043356Y-14697356D02*
X16043356Y-14626644D01*
X15972644Y-14626644D01*
X15972644Y-14697356D01*
X16043356Y-14697356D01*
X16485356Y-7685356D02*
X16485356Y-7614644D01*
X16414644Y-7614644D01*
X16414644Y-7685356D01*
X16485356Y-7685356D01*
X16585356Y-10185356D02*
X16585356Y-10114644D01*
X16514644Y-10114644D01*
X16514644Y-10185356D01*
X16585356Y-10185356D01*
X16727356Y-5373356D02*
X16727356Y-5302644D01*
X16656644Y-5302644D01*
X16656644Y-5373356D01*
X16727356Y-5373356D01*
X16727356Y-5627356D02*
X16727356Y-5556644D01*
X16656644Y-5556644D01*
X16656644Y-5627356D01*
X16727356Y-5627356D01*
X16727356Y-6643356D02*
X16727356Y-6572644D01*
X16656644Y-6572644D01*
X16656644Y-6643356D01*
X16727356Y-6643356D01*
X16885356Y-11985356D02*
X16885356Y-11914644D01*
X16814644Y-11914644D01*
X16814644Y-11985356D01*
X16885356Y-11985356D01*
X16981356Y-13427356D02*
X16981356Y-13356644D01*
X16910644Y-13356644D01*
X16910644Y-13427356D01*
X16981356Y-13427356D01*
X16981356Y-14443356D02*
X16981356Y-14372644D01*
X16910644Y-14372644D01*
X16910644Y-14443356D01*
X16981356Y-14443356D01*
X16981356Y-14697356D02*
X16981356Y-14626644D01*
X16910644Y-14626644D01*
X16910644Y-14697356D01*
X16981356Y-14697356D01*
X17185356Y-8285356D02*
X17185356Y-8214644D01*
X17114644Y-8214644D01*
X17114644Y-8285356D01*
X17185356Y-8285356D01*
X17185356Y-9485356D02*
X17185356Y-9414644D01*
X17114644Y-9414644D01*
X17114644Y-9485356D01*
X17185356Y-9485356D01*
X17489356Y-5373356D02*
X17489356Y-5302644D01*
X17418644Y-5302644D01*
X17418644Y-5373356D01*
X17489356Y-5373356D01*
X17489356Y-5627356D02*
X17489356Y-5556644D01*
X17418644Y-5556644D01*
X17418644Y-5627356D01*
X17489356Y-5627356D01*
X17489356Y-6643356D02*
X17489356Y-6572644D01*
X17418644Y-6572644D01*
X17418644Y-6643356D01*
X17489356Y-6643356D01*
X17585356Y-12585356D02*
X17585356Y-12514644D01*
X17514644Y-12514644D01*
X17514644Y-12585356D01*
X17585356Y-12585356D01*
X17743356Y-13427356D02*
X17743356Y-13356644D01*
X17672644Y-13356644D01*
X17672644Y-13427356D01*
X17743356Y-13427356D01*
X17743356Y-14443356D02*
X17743356Y-14372644D01*
X17672644Y-14372644D01*
X17672644Y-14443356D01*
X17743356Y-14443356D01*
X17743356Y-14697356D02*
X17743356Y-14626644D01*
X17672644Y-14626644D01*
X17672644Y-14697356D01*
X17743356Y-14697356D01*
X17985356Y-7985356D02*
X17985356Y-7914644D01*
X17914644Y-7914644D01*
X17914644Y-7985356D01*
X17985356Y-7985356D01*
X18185356Y-9285356D02*
X18185356Y-9214644D01*
X18114644Y-9214644D01*
X18114644Y-9285356D01*
X18185356Y-9285356D01*
X18327356Y-5373356D02*
X18327356Y-5302644D01*
X18256644Y-5302644D01*
X18256644Y-5373356D01*
X18327356Y-5373356D01*
X18327356Y-5627356D02*
X18327356Y-5556644D01*
X18256644Y-5556644D01*
X18256644Y-5627356D01*
X18327356Y-5627356D01*
X18327356Y-6643356D02*
X18327356Y-6572644D01*
X18256644Y-6572644D01*
X18256644Y-6643356D01*
X18327356Y-6643356D01*
X18585356Y-7285356D02*
X18585356Y-7214644D01*
X18514644Y-7214644D01*
X18514644Y-7285356D01*
X18585356Y-7285356D01*
X18681356Y-13427356D02*
X18681356Y-13356644D01*
X18610644Y-13356644D01*
X18610644Y-13427356D01*
X18681356Y-13427356D01*
X18681356Y-14443356D02*
X18681356Y-14372644D01*
X18610644Y-14372644D01*
X18610644Y-14443356D01*
X18681356Y-14443356D01*
X18681356Y-14697356D02*
X18681356Y-14626644D01*
X18610644Y-14626644D01*
X18610644Y-14697356D01*
X18681356Y-14697356D01*
X18685356Y-12885356D02*
X18685356Y-12814644D01*
X18614644Y-12814644D01*
X18614644Y-12885356D01*
X18685356Y-12885356D01*
X18885356Y-9885356D02*
X18885356Y-9814644D01*
X18814644Y-9814644D01*
X18814644Y-9885356D01*
X18885356Y-9885356D01*
X19089356Y-5373356D02*
X19089356Y-5302644D01*
X19018644Y-5302644D01*
X19018644Y-5373356D01*
X19089356Y-5373356D01*
X19089356Y-5627356D02*
X19089356Y-5556644D01*
X19018644Y-5556644D01*
X19018644Y-5627356D01*
X19089356Y-5627356D01*
X19089356Y-6643356D02*
X19089356Y-6572644D01*
X19018644Y-6572644D01*
X19018644Y-6643356D01*
X19089356Y-6643356D01*
X19285356Y-12185356D02*
X19285356Y-12114644D01*
X19214644Y-12114644D01*
X19214644Y-12185356D01*
X19285356Y-12185356D01*
X19443356Y-13427356D02*
X19443356Y-13356644D01*
X19372644Y-13356644D01*
X19372644Y-13427356D01*
X19443356Y-13427356D01*
X19443356Y-14443356D02*
X19443356Y-14372644D01*
X19372644Y-14372644D01*
X19372644Y-14443356D01*
X19443356Y-14443356D01*
X19443356Y-14697356D02*
X19443356Y-14626644D01*
X19372644Y-14626644D01*
X19372644Y-14697356D01*
X19443356Y-14697356D01*
X21707356Y-13637356D02*
X21707356Y-13566644D01*
X21636644Y-13566644D01*
X21636644Y-13637356D01*
X21707356Y-13637356D01*
X21707356Y-14399356D02*
X21707356Y-14328644D01*
X21636644Y-14328644D01*
X21636644Y-14399356D01*
X21707356Y-14399356D01*
X22723356Y-13637356D02*
X22723356Y-13566644D01*
X22652644Y-13566644D01*
X22652644Y-13637356D01*
X22723356Y-13637356D01*
X22723356Y-14399356D02*
X22723356Y-14328644D01*
X22652644Y-14328644D01*
X22652644Y-14399356D01*
X22723356Y-14399356D01*
X22977356Y-13637356D02*
X22977356Y-13566644D01*
X22906644Y-13566644D01*
X22906644Y-13637356D01*
X22977356Y-13637356D01*
X22977356Y-14399356D02*
X22977356Y-14328644D01*
X22906644Y-14328644D01*
X22906644Y-14399356D01*
X22977356Y-14399356D01*
X22580000Y-6650800D02*
X22630800Y-6600000D01*
X22580000Y-6549200D01*
X22529200Y-6600000D01*
X22580000Y-6650800D01*
X5325000Y-5325000D02*
X5675000Y-5675000D01*
X5675000Y-5325000D02*
X5325000Y-5675000D01*
X5675000Y-5500000D02*
G75*
G03*
X5675000Y-5500000I-175000J0D01*
G01*
X5325000Y-14325000D02*
X5675000Y-14675000D01*
X5675000Y-14325000D02*
X5325000Y-14675000D01*
X5675000Y-14500000D02*
G75*
G03*
X5675000Y-14500000I-175000J0D01*
G01*
X12725000Y-8425000D02*
X13075000Y-8775000D01*
X13075000Y-8425000D02*
X12725000Y-8775000D01*
X13075000Y-8600000D02*
G75*
G03*
X13075000Y-8600000I-175000J0D01*
G01*
X16125000Y-11225000D02*
X16475000Y-11575000D01*
X16475000Y-11225000D02*
X16125000Y-11575000D01*
X16475000Y-11400000D02*
G75*
G03*
X16475000Y-11400000I-175000J0D01*
G01*
X24325000Y-5325000D02*
X24675000Y-5675000D01*
X24675000Y-5325000D02*
X24325000Y-5675000D01*
X24675000Y-5500000D02*
G75*
G03*
X24675000Y-5500000I-175000J0D01*
G01*
X24325000Y-14325000D02*
X24675000Y-14675000D01*
X24675000Y-14325000D02*
X24325000Y-14675000D01*
X24675000Y-14500000D02*
G75*
G03*
X24675000Y-14500000I-175000J0D01*
G01*
D12*
X5278928Y-15473214D02*
X5278928Y-15173214D01*
X5350357Y-15173214D01*
X5393214Y-15187500D01*
X5421786Y-15216071D01*
X5436071Y-15244643D01*
X5450357Y-15301786D01*
X5450357Y-15344643D01*
X5436071Y-15401786D01*
X5421786Y-15430357D01*
X5393214Y-15458929D01*
X5350357Y-15473214D01*
X5278928Y-15473214D01*
X5578928Y-15473214D02*
X5578928Y-15273214D01*
X5578928Y-15330357D02*
X5593214Y-15301786D01*
X5607500Y-15287500D01*
X5636071Y-15273214D01*
X5664643Y-15273214D01*
X5764643Y-15473214D02*
X5764643Y-15273214D01*
X5764643Y-15173214D02*
X5750357Y-15187500D01*
X5764643Y-15201786D01*
X5778928Y-15187500D01*
X5764643Y-15173214D01*
X5764643Y-15201786D01*
X5950357Y-15473214D02*
X5921786Y-15458929D01*
X5907500Y-15430357D01*
X5907500Y-15173214D01*
X6107500Y-15473214D02*
X6078928Y-15458929D01*
X6064643Y-15430357D01*
X6064643Y-15173214D01*
X6450357Y-15473214D02*
X6450357Y-15173214D01*
X6550357Y-15387500D01*
X6650357Y-15173214D01*
X6650357Y-15473214D01*
X6921786Y-15473214D02*
X6921786Y-15316071D01*
X6907500Y-15287500D01*
X6878928Y-15273214D01*
X6821786Y-15273214D01*
X6793214Y-15287500D01*
X6921786Y-15458929D02*
X6893214Y-15473214D01*
X6821786Y-15473214D01*
X6793214Y-15458929D01*
X6778928Y-15430357D01*
X6778928Y-15401786D01*
X6793214Y-15373214D01*
X6821786Y-15358929D01*
X6893214Y-15358929D01*
X6921786Y-15344643D01*
X7064643Y-15273214D02*
X7064643Y-15573214D01*
X7064643Y-15287500D02*
X7093214Y-15273214D01*
X7150357Y-15273214D01*
X7178928Y-15287500D01*
X7193214Y-15301786D01*
X7207500Y-15330357D01*
X7207500Y-15416071D01*
X7193214Y-15444643D01*
X7178928Y-15458929D01*
X7150357Y-15473214D01*
X7093214Y-15473214D01*
X7064643Y-15458929D01*
X7336071Y-15444643D02*
X7350357Y-15458929D01*
X7336071Y-15473214D01*
X7321786Y-15458929D01*
X7336071Y-15444643D01*
X7336071Y-15473214D01*
X7336071Y-15287500D02*
X7350357Y-15301786D01*
X7336071Y-15316071D01*
X7321786Y-15301786D01*
X7336071Y-15287500D01*
X7336071Y-15316071D01*
X4962500Y-15952500D02*
X4992500Y-15982500D01*
X4992500Y-15952500D02*
X4962500Y-15982500D01*
X5336071Y-15803214D02*
X5364643Y-15803214D01*
X5393214Y-15817500D01*
X5407500Y-15831786D01*
X5421786Y-15860357D01*
X5436071Y-15917500D01*
X5436071Y-15988929D01*
X5421786Y-16046071D01*
X5407500Y-16074643D01*
X5393214Y-16088929D01*
X5364643Y-16103214D01*
X5336071Y-16103214D01*
X5307500Y-16088929D01*
X5293214Y-16074643D01*
X5278928Y-16046071D01*
X5264643Y-15988929D01*
X5264643Y-15917500D01*
X5278928Y-15860357D01*
X5293214Y-15831786D01*
X5307500Y-15817500D01*
X5336071Y-15803214D01*
X5564643Y-16074643D02*
X5578928Y-16088929D01*
X5564643Y-16103214D01*
X5550357Y-16088929D01*
X5564643Y-16074643D01*
X5564643Y-16103214D01*
X5678928Y-15803214D02*
X5864643Y-15803214D01*
X5764643Y-15917500D01*
X5807500Y-15917500D01*
X5836071Y-15931786D01*
X5850357Y-15946071D01*
X5864643Y-15974643D01*
X5864643Y-16046071D01*
X5850357Y-16074643D01*
X5836071Y-16088929D01*
X5807500Y-16103214D01*
X5721786Y-16103214D01*
X5693214Y-16088929D01*
X5678928Y-16074643D01*
X6050357Y-15803214D02*
X6078928Y-15803214D01*
X6107500Y-15817500D01*
X6121786Y-15831786D01*
X6136071Y-15860357D01*
X6150357Y-15917500D01*
X6150357Y-15988929D01*
X6136071Y-16046071D01*
X6121786Y-16074643D01*
X6107500Y-16088929D01*
X6078928Y-16103214D01*
X6050357Y-16103214D01*
X6021786Y-16088929D01*
X6007500Y-16074643D01*
X5993214Y-16046071D01*
X5978928Y-15988929D01*
X5978928Y-15917500D01*
X5993214Y-15860357D01*
X6007500Y-15831786D01*
X6021786Y-15817500D01*
X6050357Y-15803214D01*
X6336071Y-15803214D02*
X6364643Y-15803214D01*
X6393214Y-15817500D01*
X6407500Y-15831786D01*
X6421786Y-15860357D01*
X6436071Y-15917500D01*
X6436071Y-15988929D01*
X6421786Y-16046071D01*
X6407500Y-16074643D01*
X6393214Y-16088929D01*
X6364643Y-16103214D01*
X6336071Y-16103214D01*
X6307500Y-16088929D01*
X6293214Y-16074643D01*
X6278928Y-16046071D01*
X6264643Y-15988929D01*
X6264643Y-15917500D01*
X6278928Y-15860357D01*
X6293214Y-15831786D01*
X6307500Y-15817500D01*
X6336071Y-15803214D01*
X6564643Y-16103214D02*
X6564643Y-15903214D01*
X6564643Y-15931786D02*
X6578928Y-15917500D01*
X6607500Y-15903214D01*
X6650357Y-15903214D01*
X6678928Y-15917500D01*
X6693214Y-15946071D01*
X6693214Y-16103214D01*
X6693214Y-15946071D02*
X6707500Y-15917500D01*
X6736071Y-15903214D01*
X6778928Y-15903214D01*
X6807500Y-15917500D01*
X6821786Y-15946071D01*
X6821786Y-16103214D01*
X6964643Y-16103214D02*
X6964643Y-15903214D01*
X6964643Y-15931786D02*
X6978928Y-15917500D01*
X7007500Y-15903214D01*
X7050357Y-15903214D01*
X7078928Y-15917500D01*
X7093214Y-15946071D01*
X7093214Y-16103214D01*
X7093214Y-15946071D02*
X7107500Y-15917500D01*
X7136071Y-15903214D01*
X7178928Y-15903214D01*
X7207500Y-15917500D01*
X7221786Y-15946071D01*
X7221786Y-16103214D01*
X7807500Y-15788929D02*
X7550357Y-16174643D01*
X8193214Y-15803214D02*
X8221786Y-15803214D01*
X8250357Y-15817500D01*
X8264643Y-15831786D01*
X8278928Y-15860357D01*
X8293214Y-15917500D01*
X8293214Y-15988929D01*
X8278928Y-16046071D01*
X8264643Y-16074643D01*
X8250357Y-16088929D01*
X8221786Y-16103214D01*
X8193214Y-16103214D01*
X8164643Y-16088929D01*
X8150357Y-16074643D01*
X8136071Y-16046071D01*
X8121786Y-15988929D01*
X8121786Y-15917500D01*
X8136071Y-15860357D01*
X8150357Y-15831786D01*
X8164643Y-15817500D01*
X8193214Y-15803214D01*
X8421786Y-16074643D02*
X8436071Y-16088929D01*
X8421786Y-16103214D01*
X8407500Y-16088929D01*
X8421786Y-16074643D01*
X8421786Y-16103214D01*
X8621786Y-15803214D02*
X8650357Y-15803214D01*
X8678928Y-15817500D01*
X8693214Y-15831786D01*
X8707500Y-15860357D01*
X8721786Y-15917500D01*
X8721786Y-15988929D01*
X8707500Y-16046071D01*
X8693214Y-16074643D01*
X8678928Y-16088929D01*
X8650357Y-16103214D01*
X8621786Y-16103214D01*
X8593214Y-16088929D01*
X8578928Y-16074643D01*
X8564643Y-16046071D01*
X8550357Y-15988929D01*
X8550357Y-15917500D01*
X8564643Y-15860357D01*
X8578928Y-15831786D01*
X8593214Y-15817500D01*
X8621786Y-15803214D01*
X9007500Y-16103214D02*
X8836071Y-16103214D01*
X8921786Y-16103214D02*
X8921786Y-15803214D01*
X8893214Y-15846071D01*
X8864643Y-15874643D01*
X8836071Y-15888929D01*
X9293214Y-16103214D02*
X9121786Y-16103214D01*
X9207500Y-16103214D02*
X9207500Y-15803214D01*
X9178928Y-15846071D01*
X9150357Y-15874643D01*
X9121786Y-15888929D01*
X9464643Y-15931786D02*
X9436071Y-15917500D01*
X9421786Y-15903214D01*
X9407500Y-15874643D01*
X9407500Y-15860357D01*
X9421786Y-15831786D01*
X9436071Y-15817500D01*
X9464643Y-15803214D01*
X9521786Y-15803214D01*
X9550357Y-15817500D01*
X9564643Y-15831786D01*
X9578928Y-15860357D01*
X9578928Y-15874643D01*
X9564643Y-15903214D01*
X9550357Y-15917500D01*
X9521786Y-15931786D01*
X9464643Y-15931786D01*
X9436071Y-15946071D01*
X9421786Y-15960357D01*
X9407500Y-15988929D01*
X9407500Y-16046071D01*
X9421786Y-16074643D01*
X9436071Y-16088929D01*
X9464643Y-16103214D01*
X9521786Y-16103214D01*
X9550357Y-16088929D01*
X9564643Y-16074643D01*
X9578928Y-16046071D01*
X9578928Y-15988929D01*
X9564643Y-15960357D01*
X9550357Y-15946071D01*
X9521786Y-15931786D01*
X9693214Y-15803214D02*
X9693214Y-15860357D01*
X9807500Y-15803214D02*
X9807500Y-15860357D01*
X10250357Y-16217500D02*
X10236071Y-16203214D01*
X10207500Y-16160357D01*
X10193214Y-16131786D01*
X10178928Y-16088929D01*
X10164643Y-16017500D01*
X10164643Y-15960357D01*
X10178928Y-15888929D01*
X10193214Y-15846071D01*
X10207500Y-15817500D01*
X10236071Y-15774643D01*
X10250357Y-15760357D01*
X10493214Y-15803214D02*
X10436071Y-15803214D01*
X10407500Y-15817500D01*
X10393214Y-15831786D01*
X10364643Y-15874643D01*
X10350357Y-15931786D01*
X10350357Y-16046071D01*
X10364643Y-16074643D01*
X10378928Y-16088929D01*
X10407500Y-16103214D01*
X10464643Y-16103214D01*
X10493214Y-16088929D01*
X10507500Y-16074643D01*
X10521786Y-16046071D01*
X10521786Y-15974643D01*
X10507500Y-15946071D01*
X10493214Y-15931786D01*
X10464643Y-15917500D01*
X10407500Y-15917500D01*
X10378928Y-15931786D01*
X10364643Y-15946071D01*
X10350357Y-15974643D01*
X10793214Y-15803214D02*
X10650357Y-15803214D01*
X10636071Y-15946071D01*
X10650357Y-15931786D01*
X10678928Y-15917500D01*
X10750357Y-15917500D01*
X10778928Y-15931786D01*
X10793214Y-15946071D01*
X10807500Y-15974643D01*
X10807500Y-16046071D01*
X10793214Y-16074643D01*
X10778928Y-16088929D01*
X10750357Y-16103214D01*
X10678928Y-16103214D01*
X10650357Y-16088929D01*
X10636071Y-16074643D01*
X11064643Y-15903214D02*
X11064643Y-16103214D01*
X10993214Y-15788929D02*
X10921786Y-16003214D01*
X11107500Y-16003214D01*
X11450357Y-16103214D02*
X11450357Y-15803214D01*
X11578928Y-16103214D02*
X11578928Y-15946071D01*
X11564643Y-15917500D01*
X11536071Y-15903214D01*
X11493214Y-15903214D01*
X11464643Y-15917500D01*
X11450357Y-15931786D01*
X11764643Y-16103214D02*
X11736071Y-16088929D01*
X11721786Y-16074643D01*
X11707500Y-16046071D01*
X11707500Y-15960357D01*
X11721786Y-15931786D01*
X11736071Y-15917500D01*
X11764643Y-15903214D01*
X11807500Y-15903214D01*
X11836071Y-15917500D01*
X11850357Y-15931786D01*
X11864643Y-15960357D01*
X11864643Y-16046071D01*
X11850357Y-16074643D01*
X11836071Y-16088929D01*
X11807500Y-16103214D01*
X11764643Y-16103214D01*
X12036071Y-16103214D02*
X12007500Y-16088929D01*
X11993214Y-16060357D01*
X11993214Y-15803214D01*
X12264643Y-16088929D02*
X12236071Y-16103214D01*
X12178928Y-16103214D01*
X12150357Y-16088929D01*
X12136071Y-16060357D01*
X12136071Y-15946071D01*
X12150357Y-15917500D01*
X12178928Y-15903214D01*
X12236071Y-15903214D01*
X12264643Y-15917500D01*
X12278928Y-15946071D01*
X12278928Y-15974643D01*
X12136071Y-16003214D01*
X12393214Y-16088929D02*
X12421786Y-16103214D01*
X12478928Y-16103214D01*
X12507500Y-16088929D01*
X12521786Y-16060357D01*
X12521786Y-16046071D01*
X12507500Y-16017500D01*
X12478928Y-16003214D01*
X12436071Y-16003214D01*
X12407500Y-15988929D01*
X12393214Y-15960357D01*
X12393214Y-15946071D01*
X12407500Y-15917500D01*
X12436071Y-15903214D01*
X12478928Y-15903214D01*
X12507500Y-15917500D01*
X12621786Y-16217500D02*
X12636071Y-16203214D01*
X12664643Y-16160357D01*
X12678928Y-16131786D01*
X12693214Y-16088929D01*
X12707500Y-16017500D01*
X12707500Y-15960357D01*
X12693214Y-15888929D01*
X12678928Y-15846071D01*
X12664643Y-15817500D01*
X12636071Y-15774643D01*
X12621786Y-15760357D01*
X4992500Y-16363500D02*
G75*
G03*
X4992500Y-16363500I-25000J0D01*
G01*
X5336071Y-16199214D02*
X5364643Y-16199214D01*
X5393214Y-16213500D01*
X5407500Y-16227786D01*
X5421786Y-16256357D01*
X5436071Y-16313500D01*
X5436071Y-16384929D01*
X5421786Y-16442071D01*
X5407500Y-16470643D01*
X5393214Y-16484929D01*
X5364643Y-16499214D01*
X5336071Y-16499214D01*
X5307500Y-16484929D01*
X5293214Y-16470643D01*
X5278928Y-16442071D01*
X5264643Y-16384929D01*
X5264643Y-16313500D01*
X5278928Y-16256357D01*
X5293214Y-16227786D01*
X5307500Y-16213500D01*
X5336071Y-16199214D01*
X5564643Y-16470643D02*
X5578928Y-16484929D01*
X5564643Y-16499214D01*
X5550357Y-16484929D01*
X5564643Y-16470643D01*
X5564643Y-16499214D01*
X5850357Y-16199214D02*
X5707500Y-16199214D01*
X5693214Y-16342071D01*
X5707500Y-16327786D01*
X5736071Y-16313500D01*
X5807500Y-16313500D01*
X5836071Y-16327786D01*
X5850357Y-16342071D01*
X5864643Y-16370643D01*
X5864643Y-16442071D01*
X5850357Y-16470643D01*
X5836071Y-16484929D01*
X5807500Y-16499214D01*
X5736071Y-16499214D01*
X5707500Y-16484929D01*
X5693214Y-16470643D01*
X6050357Y-16199214D02*
X6078928Y-16199214D01*
X6107500Y-16213500D01*
X6121786Y-16227786D01*
X6136071Y-16256357D01*
X6150357Y-16313500D01*
X6150357Y-16384929D01*
X6136071Y-16442071D01*
X6121786Y-16470643D01*
X6107500Y-16484929D01*
X6078928Y-16499214D01*
X6050357Y-16499214D01*
X6021786Y-16484929D01*
X6007500Y-16470643D01*
X5993214Y-16442071D01*
X5978928Y-16384929D01*
X5978928Y-16313500D01*
X5993214Y-16256357D01*
X6007500Y-16227786D01*
X6021786Y-16213500D01*
X6050357Y-16199214D01*
X6336071Y-16199214D02*
X6364643Y-16199214D01*
X6393214Y-16213500D01*
X6407500Y-16227786D01*
X6421786Y-16256357D01*
X6436071Y-16313500D01*
X6436071Y-16384929D01*
X6421786Y-16442071D01*
X6407500Y-16470643D01*
X6393214Y-16484929D01*
X6364643Y-16499214D01*
X6336071Y-16499214D01*
X6307500Y-16484929D01*
X6293214Y-16470643D01*
X6278928Y-16442071D01*
X6264643Y-16384929D01*
X6264643Y-16313500D01*
X6278928Y-16256357D01*
X6293214Y-16227786D01*
X6307500Y-16213500D01*
X6336071Y-16199214D01*
X6564643Y-16499214D02*
X6564643Y-16299214D01*
X6564643Y-16327786D02*
X6578928Y-16313500D01*
X6607500Y-16299214D01*
X6650357Y-16299214D01*
X6678928Y-16313500D01*
X6693214Y-16342071D01*
X6693214Y-16499214D01*
X6693214Y-16342071D02*
X6707500Y-16313500D01*
X6736071Y-16299214D01*
X6778928Y-16299214D01*
X6807500Y-16313500D01*
X6821786Y-16342071D01*
X6821786Y-16499214D01*
X6964643Y-16499214D02*
X6964643Y-16299214D01*
X6964643Y-16327786D02*
X6978928Y-16313500D01*
X7007500Y-16299214D01*
X7050357Y-16299214D01*
X7078928Y-16313500D01*
X7093214Y-16342071D01*
X7093214Y-16499214D01*
X7093214Y-16342071D02*
X7107500Y-16313500D01*
X7136071Y-16299214D01*
X7178928Y-16299214D01*
X7207500Y-16313500D01*
X7221786Y-16342071D01*
X7221786Y-16499214D01*
X7807500Y-16184929D02*
X7550357Y-16570643D01*
X8193214Y-16199214D02*
X8221786Y-16199214D01*
X8250357Y-16213500D01*
X8264643Y-16227786D01*
X8278928Y-16256357D01*
X8293214Y-16313500D01*
X8293214Y-16384929D01*
X8278928Y-16442071D01*
X8264643Y-16470643D01*
X8250357Y-16484929D01*
X8221786Y-16499214D01*
X8193214Y-16499214D01*
X8164643Y-16484929D01*
X8150357Y-16470643D01*
X8136071Y-16442071D01*
X8121786Y-16384929D01*
X8121786Y-16313500D01*
X8136071Y-16256357D01*
X8150357Y-16227786D01*
X8164643Y-16213500D01*
X8193214Y-16199214D01*
X8421786Y-16470643D02*
X8436071Y-16484929D01*
X8421786Y-16499214D01*
X8407500Y-16484929D01*
X8421786Y-16470643D01*
X8421786Y-16499214D01*
X8621786Y-16199214D02*
X8650357Y-16199214D01*
X8678928Y-16213500D01*
X8693214Y-16227786D01*
X8707500Y-16256357D01*
X8721786Y-16313500D01*
X8721786Y-16384929D01*
X8707500Y-16442071D01*
X8693214Y-16470643D01*
X8678928Y-16484929D01*
X8650357Y-16499214D01*
X8621786Y-16499214D01*
X8593214Y-16484929D01*
X8578928Y-16470643D01*
X8564643Y-16442071D01*
X8550357Y-16384929D01*
X8550357Y-16313500D01*
X8564643Y-16256357D01*
X8578928Y-16227786D01*
X8593214Y-16213500D01*
X8621786Y-16199214D01*
X9007500Y-16499214D02*
X8836071Y-16499214D01*
X8921786Y-16499214D02*
X8921786Y-16199214D01*
X8893214Y-16242071D01*
X8864643Y-16270643D01*
X8836071Y-16284929D01*
X9150357Y-16499214D02*
X9207500Y-16499214D01*
X9236071Y-16484929D01*
X9250357Y-16470643D01*
X9278928Y-16427786D01*
X9293214Y-16370643D01*
X9293214Y-16256357D01*
X9278928Y-16227786D01*
X9264643Y-16213500D01*
X9236071Y-16199214D01*
X9178928Y-16199214D01*
X9150357Y-16213500D01*
X9136071Y-16227786D01*
X9121786Y-16256357D01*
X9121786Y-16327786D01*
X9136071Y-16356357D01*
X9150357Y-16370643D01*
X9178928Y-16384929D01*
X9236071Y-16384929D01*
X9264643Y-16370643D01*
X9278928Y-16356357D01*
X9293214Y-16327786D01*
X9393214Y-16199214D02*
X9593214Y-16199214D01*
X9464643Y-16499214D01*
X9693214Y-16199214D02*
X9693214Y-16256357D01*
X9807500Y-16199214D02*
X9807500Y-16256357D01*
X10250357Y-16613500D02*
X10236071Y-16599214D01*
X10207500Y-16556357D01*
X10193214Y-16527786D01*
X10178928Y-16484929D01*
X10164643Y-16413500D01*
X10164643Y-16356357D01*
X10178928Y-16284929D01*
X10193214Y-16242071D01*
X10207500Y-16213500D01*
X10236071Y-16170643D01*
X10250357Y-16156357D01*
X10493214Y-16299214D02*
X10493214Y-16499214D01*
X10421786Y-16184929D02*
X10350357Y-16399214D01*
X10536071Y-16399214D01*
X10693214Y-16327786D02*
X10664643Y-16313500D01*
X10650357Y-16299214D01*
X10636071Y-16270643D01*
X10636071Y-16256357D01*
X10650357Y-16227786D01*
X10664643Y-16213500D01*
X10693214Y-16199214D01*
X10750357Y-16199214D01*
X10778928Y-16213500D01*
X10793214Y-16227786D01*
X10807500Y-16256357D01*
X10807500Y-16270643D01*
X10793214Y-16299214D01*
X10778928Y-16313500D01*
X10750357Y-16327786D01*
X10693214Y-16327786D01*
X10664643Y-16342071D01*
X10650357Y-16356357D01*
X10636071Y-16384929D01*
X10636071Y-16442071D01*
X10650357Y-16470643D01*
X10664643Y-16484929D01*
X10693214Y-16499214D01*
X10750357Y-16499214D01*
X10778928Y-16484929D01*
X10793214Y-16470643D01*
X10807500Y-16442071D01*
X10807500Y-16384929D01*
X10793214Y-16356357D01*
X10778928Y-16342071D01*
X10750357Y-16327786D01*
X11164643Y-16499214D02*
X11164643Y-16199214D01*
X11293214Y-16499214D02*
X11293214Y-16342071D01*
X11278928Y-16313500D01*
X11250357Y-16299214D01*
X11207500Y-16299214D01*
X11178928Y-16313500D01*
X11164643Y-16327786D01*
X11478928Y-16499214D02*
X11450357Y-16484929D01*
X11436071Y-16470643D01*
X11421786Y-16442071D01*
X11421786Y-16356357D01*
X11436071Y-16327786D01*
X11450357Y-16313500D01*
X11478928Y-16299214D01*
X11521786Y-16299214D01*
X11550357Y-16313500D01*
X11564643Y-16327786D01*
X11578928Y-16356357D01*
X11578928Y-16442071D01*
X11564643Y-16470643D01*
X11550357Y-16484929D01*
X11521786Y-16499214D01*
X11478928Y-16499214D01*
X11750357Y-16499214D02*
X11721786Y-16484929D01*
X11707500Y-16456357D01*
X11707500Y-16199214D01*
X11978928Y-16484929D02*
X11950357Y-16499214D01*
X11893214Y-16499214D01*
X11864643Y-16484929D01*
X11850357Y-16456357D01*
X11850357Y-16342071D01*
X11864643Y-16313500D01*
X11893214Y-16299214D01*
X11950357Y-16299214D01*
X11978928Y-16313500D01*
X11993214Y-16342071D01*
X11993214Y-16370643D01*
X11850357Y-16399214D01*
X12107500Y-16484929D02*
X12136071Y-16499214D01*
X12193214Y-16499214D01*
X12221786Y-16484929D01*
X12236071Y-16456357D01*
X12236071Y-16442071D01*
X12221786Y-16413500D01*
X12193214Y-16399214D01*
X12150357Y-16399214D01*
X12121786Y-16384929D01*
X12107500Y-16356357D01*
X12107500Y-16342071D01*
X12121786Y-16313500D01*
X12150357Y-16299214D01*
X12193214Y-16299214D01*
X12221786Y-16313500D01*
X12336071Y-16613500D02*
X12350357Y-16599214D01*
X12378928Y-16556357D01*
X12393214Y-16527786D01*
X12407500Y-16484929D01*
X12421786Y-16413500D01*
X12421786Y-16356357D01*
X12407500Y-16284929D01*
X12393214Y-16242071D01*
X12378928Y-16213500D01*
X12350357Y-16170643D01*
X12336071Y-16156357D01*
X4947500Y-16714500D02*
X4947500Y-16804500D01*
X4902500Y-16759500D02*
X4992500Y-16759500D01*
X5336071Y-16595214D02*
X5364643Y-16595214D01*
X5393214Y-16609500D01*
X5407500Y-16623786D01*
X5421786Y-16652357D01*
X5436071Y-16709500D01*
X5436071Y-16780929D01*
X5421786Y-16838072D01*
X5407500Y-16866643D01*
X5393214Y-16880929D01*
X5364643Y-16895214D01*
X5336071Y-16895214D01*
X5307500Y-16880929D01*
X5293214Y-16866643D01*
X5278928Y-16838072D01*
X5264643Y-16780929D01*
X5264643Y-16709500D01*
X5278928Y-16652357D01*
X5293214Y-16623786D01*
X5307500Y-16609500D01*
X5336071Y-16595214D01*
X5564643Y-16866643D02*
X5578928Y-16880929D01*
X5564643Y-16895214D01*
X5550357Y-16880929D01*
X5564643Y-16866643D01*
X5564643Y-16895214D01*
X5721786Y-16895214D02*
X5778928Y-16895214D01*
X5807500Y-16880929D01*
X5821786Y-16866643D01*
X5850357Y-16823786D01*
X5864643Y-16766643D01*
X5864643Y-16652357D01*
X5850357Y-16623786D01*
X5836071Y-16609500D01*
X5807500Y-16595214D01*
X5750357Y-16595214D01*
X5721786Y-16609500D01*
X5707500Y-16623786D01*
X5693214Y-16652357D01*
X5693214Y-16723786D01*
X5707500Y-16752357D01*
X5721786Y-16766643D01*
X5750357Y-16780929D01*
X5807500Y-16780929D01*
X5836071Y-16766643D01*
X5850357Y-16752357D01*
X5864643Y-16723786D01*
X6050357Y-16595214D02*
X6078928Y-16595214D01*
X6107500Y-16609500D01*
X6121786Y-16623786D01*
X6136071Y-16652357D01*
X6150357Y-16709500D01*
X6150357Y-16780929D01*
X6136071Y-16838072D01*
X6121786Y-16866643D01*
X6107500Y-16880929D01*
X6078928Y-16895214D01*
X6050357Y-16895214D01*
X6021786Y-16880929D01*
X6007500Y-16866643D01*
X5993214Y-16838072D01*
X5978928Y-16780929D01*
X5978928Y-16709500D01*
X5993214Y-16652357D01*
X6007500Y-16623786D01*
X6021786Y-16609500D01*
X6050357Y-16595214D01*
X6336071Y-16595214D02*
X6364643Y-16595214D01*
X6393214Y-16609500D01*
X6407500Y-16623786D01*
X6421786Y-16652357D01*
X6436071Y-16709500D01*
X6436071Y-16780929D01*
X6421786Y-16838072D01*
X6407500Y-16866643D01*
X6393214Y-16880929D01*
X6364643Y-16895214D01*
X6336071Y-16895214D01*
X6307500Y-16880929D01*
X6293214Y-16866643D01*
X6278928Y-16838072D01*
X6264643Y-16780929D01*
X6264643Y-16709500D01*
X6278928Y-16652357D01*
X6293214Y-16623786D01*
X6307500Y-16609500D01*
X6336071Y-16595214D01*
X6564643Y-16895214D02*
X6564643Y-16695214D01*
X6564643Y-16723786D02*
X6578928Y-16709500D01*
X6607500Y-16695214D01*
X6650357Y-16695214D01*
X6678928Y-16709500D01*
X6693214Y-16738071D01*
X6693214Y-16895214D01*
X6693214Y-16738071D02*
X6707500Y-16709500D01*
X6736071Y-16695214D01*
X6778928Y-16695214D01*
X6807500Y-16709500D01*
X6821786Y-16738071D01*
X6821786Y-16895214D01*
X6964643Y-16895214D02*
X6964643Y-16695214D01*
X6964643Y-16723786D02*
X6978928Y-16709500D01*
X7007500Y-16695214D01*
X7050357Y-16695214D01*
X7078928Y-16709500D01*
X7093214Y-16738071D01*
X7093214Y-16895214D01*
X7093214Y-16738071D02*
X7107500Y-16709500D01*
X7136071Y-16695214D01*
X7178928Y-16695214D01*
X7207500Y-16709500D01*
X7221786Y-16738071D01*
X7221786Y-16895214D01*
X7807500Y-16580929D02*
X7550357Y-16966643D01*
X8193214Y-16595214D02*
X8221786Y-16595214D01*
X8250357Y-16609500D01*
X8264643Y-16623786D01*
X8278928Y-16652357D01*
X8293214Y-16709500D01*
X8293214Y-16780929D01*
X8278928Y-16838072D01*
X8264643Y-16866643D01*
X8250357Y-16880929D01*
X8221786Y-16895214D01*
X8193214Y-16895214D01*
X8164643Y-16880929D01*
X8150357Y-16866643D01*
X8136071Y-16838072D01*
X8121786Y-16780929D01*
X8121786Y-16709500D01*
X8136071Y-16652357D01*
X8150357Y-16623786D01*
X8164643Y-16609500D01*
X8193214Y-16595214D01*
X8421786Y-16866643D02*
X8436071Y-16880929D01*
X8421786Y-16895214D01*
X8407500Y-16880929D01*
X8421786Y-16866643D01*
X8421786Y-16895214D01*
X8621786Y-16595214D02*
X8650357Y-16595214D01*
X8678928Y-16609500D01*
X8693214Y-16623786D01*
X8707500Y-16652357D01*
X8721786Y-16709500D01*
X8721786Y-16780929D01*
X8707500Y-16838072D01*
X8693214Y-16866643D01*
X8678928Y-16880929D01*
X8650357Y-16895214D01*
X8621786Y-16895214D01*
X8593214Y-16880929D01*
X8578928Y-16866643D01*
X8564643Y-16838072D01*
X8550357Y-16780929D01*
X8550357Y-16709500D01*
X8564643Y-16652357D01*
X8578928Y-16623786D01*
X8593214Y-16609500D01*
X8621786Y-16595214D01*
X8821786Y-16595214D02*
X9007500Y-16595214D01*
X8907500Y-16709500D01*
X8950357Y-16709500D01*
X8978928Y-16723786D01*
X8993214Y-16738071D01*
X9007500Y-16766643D01*
X9007500Y-16838072D01*
X8993214Y-16866643D01*
X8978928Y-16880929D01*
X8950357Y-16895214D01*
X8864643Y-16895214D01*
X8836071Y-16880929D01*
X8821786Y-16866643D01*
X9278928Y-16595214D02*
X9136071Y-16595214D01*
X9121786Y-16738071D01*
X9136071Y-16723786D01*
X9164643Y-16709500D01*
X9236071Y-16709500D01*
X9264643Y-16723786D01*
X9278928Y-16738071D01*
X9293214Y-16766643D01*
X9293214Y-16838072D01*
X9278928Y-16866643D01*
X9264643Y-16880929D01*
X9236071Y-16895214D01*
X9164643Y-16895214D01*
X9136071Y-16880929D01*
X9121786Y-16866643D01*
X9550357Y-16695214D02*
X9550357Y-16895214D01*
X9478928Y-16580929D02*
X9407500Y-16795214D01*
X9593214Y-16795214D01*
X9693214Y-16595214D02*
X9693214Y-16652357D01*
X9807500Y-16595214D02*
X9807500Y-16652357D01*
X10250357Y-17009500D02*
X10236071Y-16995214D01*
X10207500Y-16952357D01*
X10193214Y-16923786D01*
X10178928Y-16880929D01*
X10164643Y-16809500D01*
X10164643Y-16752357D01*
X10178928Y-16680929D01*
X10193214Y-16638071D01*
X10207500Y-16609500D01*
X10236071Y-16566643D01*
X10250357Y-16552357D01*
X10407500Y-16723786D02*
X10378928Y-16709500D01*
X10364643Y-16695214D01*
X10350357Y-16666643D01*
X10350357Y-16652357D01*
X10364643Y-16623786D01*
X10378928Y-16609500D01*
X10407500Y-16595214D01*
X10464643Y-16595214D01*
X10493214Y-16609500D01*
X10507500Y-16623786D01*
X10521786Y-16652357D01*
X10521786Y-16666643D01*
X10507500Y-16695214D01*
X10493214Y-16709500D01*
X10464643Y-16723786D01*
X10407500Y-16723786D01*
X10378928Y-16738071D01*
X10364643Y-16752357D01*
X10350357Y-16780929D01*
X10350357Y-16838072D01*
X10364643Y-16866643D01*
X10378928Y-16880929D01*
X10407500Y-16895214D01*
X10464643Y-16895214D01*
X10493214Y-16880929D01*
X10507500Y-16866643D01*
X10521786Y-16838072D01*
X10521786Y-16780929D01*
X10507500Y-16752357D01*
X10493214Y-16738071D01*
X10464643Y-16723786D01*
X10878928Y-16895214D02*
X10878928Y-16595214D01*
X11007500Y-16895214D02*
X11007500Y-16738071D01*
X10993214Y-16709500D01*
X10964643Y-16695214D01*
X10921786Y-16695214D01*
X10893214Y-16709500D01*
X10878928Y-16723786D01*
X11193214Y-16895214D02*
X11164643Y-16880929D01*
X11150357Y-16866643D01*
X11136071Y-16838072D01*
X11136071Y-16752357D01*
X11150357Y-16723786D01*
X11164643Y-16709500D01*
X11193214Y-16695214D01*
X11236071Y-16695214D01*
X11264643Y-16709500D01*
X11278928Y-16723786D01*
X11293214Y-16752357D01*
X11293214Y-16838072D01*
X11278928Y-16866643D01*
X11264643Y-16880929D01*
X11236071Y-16895214D01*
X11193214Y-16895214D01*
X11464643Y-16895214D02*
X11436071Y-16880929D01*
X11421786Y-16852357D01*
X11421786Y-16595214D01*
X11693214Y-16880929D02*
X11664643Y-16895214D01*
X11607500Y-16895214D01*
X11578928Y-16880929D01*
X11564643Y-16852357D01*
X11564643Y-16738071D01*
X11578928Y-16709500D01*
X11607500Y-16695214D01*
X11664643Y-16695214D01*
X11693214Y-16709500D01*
X11707500Y-16738071D01*
X11707500Y-16766643D01*
X11564643Y-16795214D01*
X11821786Y-16880929D02*
X11850357Y-16895214D01*
X11907500Y-16895214D01*
X11936071Y-16880929D01*
X11950357Y-16852357D01*
X11950357Y-16838072D01*
X11936071Y-16809500D01*
X11907500Y-16795214D01*
X11864643Y-16795214D01*
X11836071Y-16780929D01*
X11821786Y-16752357D01*
X11821786Y-16738071D01*
X11836071Y-16709500D01*
X11864643Y-16695214D01*
X11907500Y-16695214D01*
X11936071Y-16709500D01*
X12050357Y-17009500D02*
X12064643Y-16995214D01*
X12093214Y-16952357D01*
X12107500Y-16923786D01*
X12121786Y-16880929D01*
X12136071Y-16809500D01*
X12136071Y-16752357D01*
X12121786Y-16680929D01*
X12107500Y-16638071D01*
X12093214Y-16609500D01*
X12064643Y-16566643D01*
X12050357Y-16552357D01*
X4977856Y-17190856D02*
X4977856Y-17120144D01*
X4907144Y-17120144D01*
X4907144Y-17190856D01*
X4977856Y-17190856D01*
X5436071Y-17291214D02*
X5264643Y-17291214D01*
X5350357Y-17291214D02*
X5350357Y-16991214D01*
X5321786Y-17034072D01*
X5293214Y-17062643D01*
X5264643Y-17076929D01*
X5564643Y-17262643D02*
X5578928Y-17276929D01*
X5564643Y-17291214D01*
X5550357Y-17276929D01*
X5564643Y-17262643D01*
X5564643Y-17291214D01*
X5764643Y-16991214D02*
X5793214Y-16991214D01*
X5821786Y-17005500D01*
X5836071Y-17019786D01*
X5850357Y-17048357D01*
X5864643Y-17105500D01*
X5864643Y-17176929D01*
X5850357Y-17234072D01*
X5836071Y-17262643D01*
X5821786Y-17276929D01*
X5793214Y-17291214D01*
X5764643Y-17291214D01*
X5736071Y-17276929D01*
X5721786Y-17262643D01*
X5707500Y-17234072D01*
X5693214Y-17176929D01*
X5693214Y-17105500D01*
X5707500Y-17048357D01*
X5721786Y-17019786D01*
X5736071Y-17005500D01*
X5764643Y-16991214D01*
X6050357Y-16991214D02*
X6078928Y-16991214D01*
X6107500Y-17005500D01*
X6121786Y-17019786D01*
X6136071Y-17048357D01*
X6150357Y-17105500D01*
X6150357Y-17176929D01*
X6136071Y-17234072D01*
X6121786Y-17262643D01*
X6107500Y-17276929D01*
X6078928Y-17291214D01*
X6050357Y-17291214D01*
X6021786Y-17276929D01*
X6007500Y-17262643D01*
X5993214Y-17234072D01*
X5978928Y-17176929D01*
X5978928Y-17105500D01*
X5993214Y-17048357D01*
X6007500Y-17019786D01*
X6021786Y-17005500D01*
X6050357Y-16991214D01*
X6336071Y-16991214D02*
X6364643Y-16991214D01*
X6393214Y-17005500D01*
X6407500Y-17019786D01*
X6421786Y-17048357D01*
X6436071Y-17105500D01*
X6436071Y-17176929D01*
X6421786Y-17234072D01*
X6407500Y-17262643D01*
X6393214Y-17276929D01*
X6364643Y-17291214D01*
X6336071Y-17291214D01*
X6307500Y-17276929D01*
X6293214Y-17262643D01*
X6278928Y-17234072D01*
X6264643Y-17176929D01*
X6264643Y-17105500D01*
X6278928Y-17048357D01*
X6293214Y-17019786D01*
X6307500Y-17005500D01*
X6336071Y-16991214D01*
X6564643Y-17291214D02*
X6564643Y-17091214D01*
X6564643Y-17119786D02*
X6578928Y-17105500D01*
X6607500Y-17091214D01*
X6650357Y-17091214D01*
X6678928Y-17105500D01*
X6693214Y-17134072D01*
X6693214Y-17291214D01*
X6693214Y-17134072D02*
X6707500Y-17105500D01*
X6736071Y-17091214D01*
X6778928Y-17091214D01*
X6807500Y-17105500D01*
X6821786Y-17134072D01*
X6821786Y-17291214D01*
X6964643Y-17291214D02*
X6964643Y-17091214D01*
X6964643Y-17119786D02*
X6978928Y-17105500D01*
X7007500Y-17091214D01*
X7050357Y-17091214D01*
X7078928Y-17105500D01*
X7093214Y-17134072D01*
X7093214Y-17291214D01*
X7093214Y-17134072D02*
X7107500Y-17105500D01*
X7136071Y-17091214D01*
X7178928Y-17091214D01*
X7207500Y-17105500D01*
X7221786Y-17134072D01*
X7221786Y-17291214D01*
X7807500Y-16976929D02*
X7550357Y-17362643D01*
X8193214Y-16991214D02*
X8221786Y-16991214D01*
X8250357Y-17005500D01*
X8264643Y-17019786D01*
X8278928Y-17048357D01*
X8293214Y-17105500D01*
X8293214Y-17176929D01*
X8278928Y-17234072D01*
X8264643Y-17262643D01*
X8250357Y-17276929D01*
X8221786Y-17291214D01*
X8193214Y-17291214D01*
X8164643Y-17276929D01*
X8150357Y-17262643D01*
X8136071Y-17234072D01*
X8121786Y-17176929D01*
X8121786Y-17105500D01*
X8136071Y-17048357D01*
X8150357Y-17019786D01*
X8164643Y-17005500D01*
X8193214Y-16991214D01*
X8421786Y-17262643D02*
X8436071Y-17276929D01*
X8421786Y-17291214D01*
X8407500Y-17276929D01*
X8421786Y-17262643D01*
X8421786Y-17291214D01*
X8621786Y-16991214D02*
X8650357Y-16991214D01*
X8678928Y-17005500D01*
X8693214Y-17019786D01*
X8707500Y-17048357D01*
X8721786Y-17105500D01*
X8721786Y-17176929D01*
X8707500Y-17234072D01*
X8693214Y-17262643D01*
X8678928Y-17276929D01*
X8650357Y-17291214D01*
X8621786Y-17291214D01*
X8593214Y-17276929D01*
X8578928Y-17262643D01*
X8564643Y-17234072D01*
X8550357Y-17176929D01*
X8550357Y-17105500D01*
X8564643Y-17048357D01*
X8578928Y-17019786D01*
X8593214Y-17005500D01*
X8621786Y-16991214D01*
X8821786Y-16991214D02*
X9007500Y-16991214D01*
X8907500Y-17105500D01*
X8950357Y-17105500D01*
X8978928Y-17119786D01*
X8993214Y-17134072D01*
X9007500Y-17162643D01*
X9007500Y-17234072D01*
X8993214Y-17262643D01*
X8978928Y-17276929D01*
X8950357Y-17291214D01*
X8864643Y-17291214D01*
X8836071Y-17276929D01*
X8821786Y-17262643D01*
X9150357Y-17291214D02*
X9207500Y-17291214D01*
X9236071Y-17276929D01*
X9250357Y-17262643D01*
X9278928Y-17219786D01*
X9293214Y-17162643D01*
X9293214Y-17048357D01*
X9278928Y-17019786D01*
X9264643Y-17005500D01*
X9236071Y-16991214D01*
X9178928Y-16991214D01*
X9150357Y-17005500D01*
X9136071Y-17019786D01*
X9121786Y-17048357D01*
X9121786Y-17119786D01*
X9136071Y-17148357D01*
X9150357Y-17162643D01*
X9178928Y-17176929D01*
X9236071Y-17176929D01*
X9264643Y-17162643D01*
X9278928Y-17148357D01*
X9293214Y-17119786D01*
X9550357Y-17091214D02*
X9550357Y-17291214D01*
X9478928Y-16976929D02*
X9407500Y-17191214D01*
X9593214Y-17191214D01*
X9693214Y-16991214D02*
X9693214Y-17048357D01*
X9807500Y-16991214D02*
X9807500Y-17048357D01*
X10250357Y-17405500D02*
X10236071Y-17391214D01*
X10207500Y-17348357D01*
X10193214Y-17319786D01*
X10178928Y-17276929D01*
X10164643Y-17205500D01*
X10164643Y-17148357D01*
X10178928Y-17076929D01*
X10193214Y-17034072D01*
X10207500Y-17005500D01*
X10236071Y-16962643D01*
X10250357Y-16948357D01*
X10521786Y-17291214D02*
X10350357Y-17291214D01*
X10436071Y-17291214D02*
X10436071Y-16991214D01*
X10407500Y-17034072D01*
X10378928Y-17062643D01*
X10350357Y-17076929D01*
X10793214Y-16991214D02*
X10650357Y-16991214D01*
X10636071Y-17134072D01*
X10650357Y-17119786D01*
X10678928Y-17105500D01*
X10750357Y-17105500D01*
X10778928Y-17119786D01*
X10793214Y-17134072D01*
X10807500Y-17162643D01*
X10807500Y-17234072D01*
X10793214Y-17262643D01*
X10778928Y-17276929D01*
X10750357Y-17291214D01*
X10678928Y-17291214D01*
X10650357Y-17276929D01*
X10636071Y-17262643D01*
X10993214Y-16991214D02*
X11021786Y-16991214D01*
X11050357Y-17005500D01*
X11064643Y-17019786D01*
X11078928Y-17048357D01*
X11093214Y-17105500D01*
X11093214Y-17176929D01*
X11078928Y-17234072D01*
X11064643Y-17262643D01*
X11050357Y-17276929D01*
X11021786Y-17291214D01*
X10993214Y-17291214D01*
X10964643Y-17276929D01*
X10950357Y-17262643D01*
X10936071Y-17234072D01*
X10921786Y-17176929D01*
X10921786Y-17105500D01*
X10936071Y-17048357D01*
X10950357Y-17019786D01*
X10964643Y-17005500D01*
X10993214Y-16991214D01*
X11450357Y-17291214D02*
X11450357Y-16991214D01*
X11578928Y-17291214D02*
X11578928Y-17134072D01*
X11564643Y-17105500D01*
X11536071Y-17091214D01*
X11493214Y-17091214D01*
X11464643Y-17105500D01*
X11450357Y-17119786D01*
X11764643Y-17291214D02*
X11736071Y-17276929D01*
X11721786Y-17262643D01*
X11707500Y-17234072D01*
X11707500Y-17148357D01*
X11721786Y-17119786D01*
X11736071Y-17105500D01*
X11764643Y-17091214D01*
X11807500Y-17091214D01*
X11836071Y-17105500D01*
X11850357Y-17119786D01*
X11864643Y-17148357D01*
X11864643Y-17234072D01*
X11850357Y-17262643D01*
X11836071Y-17276929D01*
X11807500Y-17291214D01*
X11764643Y-17291214D01*
X12036071Y-17291214D02*
X12007500Y-17276929D01*
X11993214Y-17248357D01*
X11993214Y-16991214D01*
X12264643Y-17276929D02*
X12236071Y-17291214D01*
X12178928Y-17291214D01*
X12150357Y-17276929D01*
X12136071Y-17248357D01*
X12136071Y-17134072D01*
X12150357Y-17105500D01*
X12178928Y-17091214D01*
X12236071Y-17091214D01*
X12264643Y-17105500D01*
X12278928Y-17134072D01*
X12278928Y-17162643D01*
X12136071Y-17191214D01*
X12393214Y-17276929D02*
X12421786Y-17291214D01*
X12478928Y-17291214D01*
X12507500Y-17276929D01*
X12521786Y-17248357D01*
X12521786Y-17234072D01*
X12507500Y-17205500D01*
X12478928Y-17191214D01*
X12436071Y-17191214D01*
X12407500Y-17176929D01*
X12393214Y-17148357D01*
X12393214Y-17134072D01*
X12407500Y-17105500D01*
X12436071Y-17091214D01*
X12478928Y-17091214D01*
X12507500Y-17105500D01*
X12621786Y-17405500D02*
X12636071Y-17391214D01*
X12664643Y-17348357D01*
X12678928Y-17319786D01*
X12693214Y-17276929D01*
X12707500Y-17205500D01*
X12707500Y-17148357D01*
X12693214Y-17076929D01*
X12678928Y-17034072D01*
X12664643Y-17005500D01*
X12636071Y-16962643D01*
X12621786Y-16948357D01*
X4941700Y-17602300D02*
X4992500Y-17551500D01*
X4941700Y-17500700D01*
X4890900Y-17551500D01*
X4941700Y-17602300D01*
X5436071Y-17687214D02*
X5264643Y-17687214D01*
X5350357Y-17687214D02*
X5350357Y-17387214D01*
X5321786Y-17430072D01*
X5293214Y-17458643D01*
X5264643Y-17472929D01*
X5564643Y-17658643D02*
X5578928Y-17672929D01*
X5564643Y-17687214D01*
X5550357Y-17672929D01*
X5564643Y-17658643D01*
X5564643Y-17687214D01*
X5764643Y-17387214D02*
X5793214Y-17387214D01*
X5821786Y-17401500D01*
X5836071Y-17415786D01*
X5850357Y-17444357D01*
X5864643Y-17501500D01*
X5864643Y-17572929D01*
X5850357Y-17630072D01*
X5836071Y-17658643D01*
X5821786Y-17672929D01*
X5793214Y-17687214D01*
X5764643Y-17687214D01*
X5736071Y-17672929D01*
X5721786Y-17658643D01*
X5707500Y-17630072D01*
X5693214Y-17572929D01*
X5693214Y-17501500D01*
X5707500Y-17444357D01*
X5721786Y-17415786D01*
X5736071Y-17401500D01*
X5764643Y-17387214D01*
X6150357Y-17687214D02*
X5978928Y-17687214D01*
X6064643Y-17687214D02*
X6064643Y-17387214D01*
X6036071Y-17430072D01*
X6007500Y-17458643D01*
X5978928Y-17472929D01*
X6407500Y-17387214D02*
X6350357Y-17387214D01*
X6321786Y-17401500D01*
X6307500Y-17415786D01*
X6278928Y-17458643D01*
X6264643Y-17515786D01*
X6264643Y-17630072D01*
X6278928Y-17658643D01*
X6293214Y-17672929D01*
X6321786Y-17687214D01*
X6378928Y-17687214D01*
X6407500Y-17672929D01*
X6421786Y-17658643D01*
X6436071Y-17630072D01*
X6436071Y-17558643D01*
X6421786Y-17530072D01*
X6407500Y-17515786D01*
X6378928Y-17501500D01*
X6321786Y-17501500D01*
X6293214Y-17515786D01*
X6278928Y-17530072D01*
X6264643Y-17558643D01*
X6564643Y-17687214D02*
X6564643Y-17487214D01*
X6564643Y-17515786D02*
X6578928Y-17501500D01*
X6607500Y-17487214D01*
X6650357Y-17487214D01*
X6678928Y-17501500D01*
X6693214Y-17530072D01*
X6693214Y-17687214D01*
X6693214Y-17530072D02*
X6707500Y-17501500D01*
X6736071Y-17487214D01*
X6778928Y-17487214D01*
X6807500Y-17501500D01*
X6821786Y-17530072D01*
X6821786Y-17687214D01*
X6964643Y-17687214D02*
X6964643Y-17487214D01*
X6964643Y-17515786D02*
X6978928Y-17501500D01*
X7007500Y-17487214D01*
X7050357Y-17487214D01*
X7078928Y-17501500D01*
X7093214Y-17530072D01*
X7093214Y-17687214D01*
X7093214Y-17530072D02*
X7107500Y-17501500D01*
X7136071Y-17487214D01*
X7178928Y-17487214D01*
X7207500Y-17501500D01*
X7221786Y-17530072D01*
X7221786Y-17687214D01*
X7807500Y-17372929D02*
X7550357Y-17758643D01*
X8193214Y-17387214D02*
X8221786Y-17387214D01*
X8250357Y-17401500D01*
X8264643Y-17415786D01*
X8278928Y-17444357D01*
X8293214Y-17501500D01*
X8293214Y-17572929D01*
X8278928Y-17630072D01*
X8264643Y-17658643D01*
X8250357Y-17672929D01*
X8221786Y-17687214D01*
X8193214Y-17687214D01*
X8164643Y-17672929D01*
X8150357Y-17658643D01*
X8136071Y-17630072D01*
X8121786Y-17572929D01*
X8121786Y-17501500D01*
X8136071Y-17444357D01*
X8150357Y-17415786D01*
X8164643Y-17401500D01*
X8193214Y-17387214D01*
X8421786Y-17658643D02*
X8436071Y-17672929D01*
X8421786Y-17687214D01*
X8407500Y-17672929D01*
X8421786Y-17658643D01*
X8421786Y-17687214D01*
X8621786Y-17387214D02*
X8650357Y-17387214D01*
X8678928Y-17401500D01*
X8693214Y-17415786D01*
X8707500Y-17444357D01*
X8721786Y-17501500D01*
X8721786Y-17572929D01*
X8707500Y-17630072D01*
X8693214Y-17658643D01*
X8678928Y-17672929D01*
X8650357Y-17687214D01*
X8621786Y-17687214D01*
X8593214Y-17672929D01*
X8578928Y-17658643D01*
X8564643Y-17630072D01*
X8550357Y-17572929D01*
X8550357Y-17501500D01*
X8564643Y-17444357D01*
X8578928Y-17415786D01*
X8593214Y-17401500D01*
X8621786Y-17387214D01*
X8978928Y-17487214D02*
X8978928Y-17687214D01*
X8907500Y-17372929D02*
X8836071Y-17587214D01*
X9021786Y-17587214D01*
X9193214Y-17387214D02*
X9221786Y-17387214D01*
X9250357Y-17401500D01*
X9264643Y-17415786D01*
X9278928Y-17444357D01*
X9293214Y-17501500D01*
X9293214Y-17572929D01*
X9278928Y-17630072D01*
X9264643Y-17658643D01*
X9250357Y-17672929D01*
X9221786Y-17687214D01*
X9193214Y-17687214D01*
X9164643Y-17672929D01*
X9150357Y-17658643D01*
X9136071Y-17630072D01*
X9121786Y-17572929D01*
X9121786Y-17501500D01*
X9136071Y-17444357D01*
X9150357Y-17415786D01*
X9164643Y-17401500D01*
X9193214Y-17387214D01*
X9478928Y-17387214D02*
X9507500Y-17387214D01*
X9536071Y-17401500D01*
X9550357Y-17415786D01*
X9564643Y-17444357D01*
X9578928Y-17501500D01*
X9578928Y-17572929D01*
X9564643Y-17630072D01*
X9550357Y-17658643D01*
X9536071Y-17672929D01*
X9507500Y-17687214D01*
X9478928Y-17687214D01*
X9450357Y-17672929D01*
X9436071Y-17658643D01*
X9421786Y-17630072D01*
X9407500Y-17572929D01*
X9407500Y-17501500D01*
X9421786Y-17444357D01*
X9436071Y-17415786D01*
X9450357Y-17401500D01*
X9478928Y-17387214D01*
X9693214Y-17387214D02*
X9693214Y-17444357D01*
X9807500Y-17387214D02*
X9807500Y-17444357D01*
X10250357Y-17801500D02*
X10236071Y-17787214D01*
X10207500Y-17744357D01*
X10193214Y-17715786D01*
X10178928Y-17672929D01*
X10164643Y-17601500D01*
X10164643Y-17544357D01*
X10178928Y-17472929D01*
X10193214Y-17430072D01*
X10207500Y-17401500D01*
X10236071Y-17358643D01*
X10250357Y-17344357D01*
X10521786Y-17687214D02*
X10350357Y-17687214D01*
X10436071Y-17687214D02*
X10436071Y-17387214D01*
X10407500Y-17430072D01*
X10378928Y-17458643D01*
X10350357Y-17472929D01*
X10878928Y-17687214D02*
X10878928Y-17387214D01*
X11007500Y-17687214D02*
X11007500Y-17530072D01*
X10993214Y-17501500D01*
X10964643Y-17487214D01*
X10921786Y-17487214D01*
X10893214Y-17501500D01*
X10878928Y-17515786D01*
X11193214Y-17687214D02*
X11164643Y-17672929D01*
X11150357Y-17658643D01*
X11136071Y-17630072D01*
X11136071Y-17544357D01*
X11150357Y-17515786D01*
X11164643Y-17501500D01*
X11193214Y-17487214D01*
X11236071Y-17487214D01*
X11264643Y-17501500D01*
X11278928Y-17515786D01*
X11293214Y-17544357D01*
X11293214Y-17630072D01*
X11278928Y-17658643D01*
X11264643Y-17672929D01*
X11236071Y-17687214D01*
X11193214Y-17687214D01*
X11464643Y-17687214D02*
X11436071Y-17672929D01*
X11421786Y-17644357D01*
X11421786Y-17387214D01*
X11693214Y-17672929D02*
X11664643Y-17687214D01*
X11607500Y-17687214D01*
X11578928Y-17672929D01*
X11564643Y-17644357D01*
X11564643Y-17530072D01*
X11578928Y-17501500D01*
X11607500Y-17487214D01*
X11664643Y-17487214D01*
X11693214Y-17501500D01*
X11707500Y-17530072D01*
X11707500Y-17558643D01*
X11564643Y-17587214D01*
X11807500Y-17801500D02*
X11821786Y-17787214D01*
X11850357Y-17744357D01*
X11864643Y-17715786D01*
X11878928Y-17672929D01*
X11893214Y-17601500D01*
X11893214Y-17544357D01*
X11878928Y-17472929D01*
X11864643Y-17430072D01*
X11850357Y-17401500D01*
X11821786Y-17358643D01*
X11807500Y-17344357D01*
X4642500Y-17772500D02*
X4992500Y-18122500D01*
X4992500Y-17772500D02*
X4642500Y-18122500D01*
X4992500Y-17947500D02*
G75*
G03*
X4992500Y-17947500I-175000J0D01*
G01*
X5250357Y-17783214D02*
X5436071Y-17783214D01*
X5336071Y-17897500D01*
X5378928Y-17897500D01*
X5407500Y-17911786D01*
X5421786Y-17926072D01*
X5436071Y-17954643D01*
X5436071Y-18026072D01*
X5421786Y-18054643D01*
X5407500Y-18068929D01*
X5378928Y-18083214D01*
X5293214Y-18083214D01*
X5264643Y-18068929D01*
X5250357Y-18054643D01*
X5564643Y-18054643D02*
X5578928Y-18068929D01*
X5564643Y-18083214D01*
X5550357Y-18068929D01*
X5564643Y-18054643D01*
X5564643Y-18083214D01*
X5850357Y-17783214D02*
X5707500Y-17783214D01*
X5693214Y-17926072D01*
X5707500Y-17911786D01*
X5736071Y-17897500D01*
X5807500Y-17897500D01*
X5836071Y-17911786D01*
X5850357Y-17926072D01*
X5864643Y-17954643D01*
X5864643Y-18026072D01*
X5850357Y-18054643D01*
X5836071Y-18068929D01*
X5807500Y-18083214D01*
X5736071Y-18083214D01*
X5707500Y-18068929D01*
X5693214Y-18054643D01*
X6050357Y-17783214D02*
X6078928Y-17783214D01*
X6107500Y-17797500D01*
X6121786Y-17811786D01*
X6136071Y-17840357D01*
X6150357Y-17897500D01*
X6150357Y-17968929D01*
X6136071Y-18026072D01*
X6121786Y-18054643D01*
X6107500Y-18068929D01*
X6078928Y-18083214D01*
X6050357Y-18083214D01*
X6021786Y-18068929D01*
X6007500Y-18054643D01*
X5993214Y-18026072D01*
X5978928Y-17968929D01*
X5978928Y-17897500D01*
X5993214Y-17840357D01*
X6007500Y-17811786D01*
X6021786Y-17797500D01*
X6050357Y-17783214D01*
X6336071Y-17783214D02*
X6364643Y-17783214D01*
X6393214Y-17797500D01*
X6407500Y-17811786D01*
X6421786Y-17840357D01*
X6436071Y-17897500D01*
X6436071Y-17968929D01*
X6421786Y-18026072D01*
X6407500Y-18054643D01*
X6393214Y-18068929D01*
X6364643Y-18083214D01*
X6336071Y-18083214D01*
X6307500Y-18068929D01*
X6293214Y-18054643D01*
X6278928Y-18026072D01*
X6264643Y-17968929D01*
X6264643Y-17897500D01*
X6278928Y-17840357D01*
X6293214Y-17811786D01*
X6307500Y-17797500D01*
X6336071Y-17783214D01*
X6564643Y-18083214D02*
X6564643Y-17883214D01*
X6564643Y-17911786D02*
X6578928Y-17897500D01*
X6607500Y-17883214D01*
X6650357Y-17883214D01*
X6678928Y-17897500D01*
X6693214Y-17926072D01*
X6693214Y-18083214D01*
X6693214Y-17926072D02*
X6707500Y-17897500D01*
X6736071Y-17883214D01*
X6778928Y-17883214D01*
X6807500Y-17897500D01*
X6821786Y-17926072D01*
X6821786Y-18083214D01*
X6964643Y-18083214D02*
X6964643Y-17883214D01*
X6964643Y-17911786D02*
X6978928Y-17897500D01*
X7007500Y-17883214D01*
X7050357Y-17883214D01*
X7078928Y-17897500D01*
X7093214Y-17926072D01*
X7093214Y-18083214D01*
X7093214Y-17926072D02*
X7107500Y-17897500D01*
X7136071Y-17883214D01*
X7178928Y-17883214D01*
X7207500Y-17897500D01*
X7221786Y-17926072D01*
X7221786Y-18083214D01*
X7807500Y-17768929D02*
X7550357Y-18154643D01*
X8193214Y-17783214D02*
X8221786Y-17783214D01*
X8250357Y-17797500D01*
X8264643Y-17811786D01*
X8278928Y-17840357D01*
X8293214Y-17897500D01*
X8293214Y-17968929D01*
X8278928Y-18026072D01*
X8264643Y-18054643D01*
X8250357Y-18068929D01*
X8221786Y-18083214D01*
X8193214Y-18083214D01*
X8164643Y-18068929D01*
X8150357Y-18054643D01*
X8136071Y-18026072D01*
X8121786Y-17968929D01*
X8121786Y-17897500D01*
X8136071Y-17840357D01*
X8150357Y-17811786D01*
X8164643Y-17797500D01*
X8193214Y-17783214D01*
X8421786Y-18054643D02*
X8436071Y-18068929D01*
X8421786Y-18083214D01*
X8407500Y-18068929D01*
X8421786Y-18054643D01*
X8421786Y-18083214D01*
X8721786Y-18083214D02*
X8550357Y-18083214D01*
X8636071Y-18083214D02*
X8636071Y-17783214D01*
X8607500Y-17826072D01*
X8578928Y-17854643D01*
X8550357Y-17868929D01*
X8821786Y-17783214D02*
X9007500Y-17783214D01*
X8907500Y-17897500D01*
X8950357Y-17897500D01*
X8978928Y-17911786D01*
X8993214Y-17926072D01*
X9007500Y-17954643D01*
X9007500Y-18026072D01*
X8993214Y-18054643D01*
X8978928Y-18068929D01*
X8950357Y-18083214D01*
X8864643Y-18083214D01*
X8836071Y-18068929D01*
X8821786Y-18054643D01*
X9107500Y-17783214D02*
X9307500Y-17783214D01*
X9178928Y-18083214D01*
X9464643Y-17911786D02*
X9436071Y-17897500D01*
X9421786Y-17883214D01*
X9407500Y-17854643D01*
X9407500Y-17840357D01*
X9421786Y-17811786D01*
X9436071Y-17797500D01*
X9464643Y-17783214D01*
X9521786Y-17783214D01*
X9550357Y-17797500D01*
X9564643Y-17811786D01*
X9578928Y-17840357D01*
X9578928Y-17854643D01*
X9564643Y-17883214D01*
X9550357Y-17897500D01*
X9521786Y-17911786D01*
X9464643Y-17911786D01*
X9436071Y-17926072D01*
X9421786Y-17940357D01*
X9407500Y-17968929D01*
X9407500Y-18026072D01*
X9421786Y-18054643D01*
X9436071Y-18068929D01*
X9464643Y-18083214D01*
X9521786Y-18083214D01*
X9550357Y-18068929D01*
X9564643Y-18054643D01*
X9578928Y-18026072D01*
X9578928Y-17968929D01*
X9564643Y-17940357D01*
X9550357Y-17926072D01*
X9521786Y-17911786D01*
X9693214Y-17783214D02*
X9693214Y-17840357D01*
X9807500Y-17783214D02*
X9807500Y-17840357D01*
X10250357Y-18197500D02*
X10236071Y-18183214D01*
X10207500Y-18140357D01*
X10193214Y-18111786D01*
X10178928Y-18068929D01*
X10164643Y-17997500D01*
X10164643Y-17940357D01*
X10178928Y-17868929D01*
X10193214Y-17826072D01*
X10207500Y-17797500D01*
X10236071Y-17754643D01*
X10250357Y-17740357D01*
X10493214Y-17783214D02*
X10436071Y-17783214D01*
X10407500Y-17797500D01*
X10393214Y-17811786D01*
X10364643Y-17854643D01*
X10350357Y-17911786D01*
X10350357Y-18026072D01*
X10364643Y-18054643D01*
X10378928Y-18068929D01*
X10407500Y-18083214D01*
X10464643Y-18083214D01*
X10493214Y-18068929D01*
X10507500Y-18054643D01*
X10521786Y-18026072D01*
X10521786Y-17954643D01*
X10507500Y-17926072D01*
X10493214Y-17911786D01*
X10464643Y-17897500D01*
X10407500Y-17897500D01*
X10378928Y-17911786D01*
X10364643Y-17926072D01*
X10350357Y-17954643D01*
X10878928Y-18083214D02*
X10878928Y-17783214D01*
X11007500Y-18083214D02*
X11007500Y-17926072D01*
X10993214Y-17897500D01*
X10964643Y-17883214D01*
X10921786Y-17883214D01*
X10893214Y-17897500D01*
X10878928Y-17911786D01*
X11193214Y-18083214D02*
X11164643Y-18068929D01*
X11150357Y-18054643D01*
X11136071Y-18026072D01*
X11136071Y-17940357D01*
X11150357Y-17911786D01*
X11164643Y-17897500D01*
X11193214Y-17883214D01*
X11236071Y-17883214D01*
X11264643Y-17897500D01*
X11278928Y-17911786D01*
X11293214Y-17940357D01*
X11293214Y-18026072D01*
X11278928Y-18054643D01*
X11264643Y-18068929D01*
X11236071Y-18083214D01*
X11193214Y-18083214D01*
X11464643Y-18083214D02*
X11436071Y-18068929D01*
X11421786Y-18040357D01*
X11421786Y-17783214D01*
X11693214Y-18068929D02*
X11664643Y-18083214D01*
X11607500Y-18083214D01*
X11578928Y-18068929D01*
X11564643Y-18040357D01*
X11564643Y-17926072D01*
X11578928Y-17897500D01*
X11607500Y-17883214D01*
X11664643Y-17883214D01*
X11693214Y-17897500D01*
X11707500Y-17926072D01*
X11707500Y-17954643D01*
X11564643Y-17983214D01*
X11821786Y-18068929D02*
X11850357Y-18083214D01*
X11907500Y-18083214D01*
X11936071Y-18068929D01*
X11950357Y-18040357D01*
X11950357Y-18026072D01*
X11936071Y-17997500D01*
X11907500Y-17983214D01*
X11864643Y-17983214D01*
X11836071Y-17968929D01*
X11821786Y-17940357D01*
X11821786Y-17926072D01*
X11836071Y-17897500D01*
X11864643Y-17883214D01*
X11907500Y-17883214D01*
X11936071Y-17897500D01*
X12050357Y-18197500D02*
X12064643Y-18183214D01*
X12093214Y-18140357D01*
X12107500Y-18111786D01*
X12121786Y-18068929D01*
X12136071Y-17997500D01*
X12136071Y-17940357D01*
X12121786Y-17868929D01*
X12107500Y-17826072D01*
X12093214Y-17797500D01*
X12064643Y-17754643D01*
X12050357Y-17740357D01*
M02*
