G04 #@! TF.GenerationSoftware,KiCad,Pcbnew,5.1.12-84ad8e8a86~92~ubuntu20.04.1*
G04 #@! TF.CreationDate,2022-02-12T14:31:20-08:00*
G04 #@! TF.ProjectId,lp_filter_8_bands,6c705f66-696c-4746-9572-5f385f62616e,rev?*
G04 #@! TF.SameCoordinates,Original*
G04 #@! TF.FileFunction,Paste,Bot*
G04 #@! TF.FilePolarity,Positive*
%FSLAX46Y46*%
G04 Gerber Fmt 4.6, Leading zero omitted, Abs format (unit mm)*
G04 Created by KiCad (PCBNEW 5.1.12-84ad8e8a86~92~ubuntu20.04.1) date 2022-02-12 14:31:20*
%MOMM*%
%LPD*%
G01*
G04 APERTURE LIST*
%ADD10R,4.200000X1.350000*%
%ADD11R,1.600000X0.900000*%
%ADD12R,0.900000X1.300000*%
%ADD13R,1.300000X0.900000*%
%ADD14R,0.900000X0.800000*%
%ADD15R,1.400000X1.100000*%
%ADD16R,1.100000X1.400000*%
%ADD17R,0.965200X1.270000*%
%ADD18R,1.500000X0.450000*%
%ADD19R,2.000000X3.800000*%
%ADD20R,2.000000X1.500000*%
G04 APERTURE END LIST*
D10*
X247500000Y-131450000D03*
X247500000Y-136550000D03*
X247500000Y-114450000D03*
X247500000Y-119550000D03*
X247500000Y-63450000D03*
X247500000Y-68550000D03*
D11*
X236010000Y-117550000D03*
X236010000Y-114450000D03*
X230010000Y-114450000D03*
X230010000Y-117550000D03*
D12*
X240447500Y-94990000D03*
X242352500Y-94990000D03*
X240047500Y-106010000D03*
X241952500Y-106010000D03*
X81297500Y-91750000D03*
X83202500Y-91750000D03*
X81297500Y-93990000D03*
X83202500Y-93990000D03*
X71047500Y-122010000D03*
X72952500Y-122010000D03*
X73000000Y-124250000D03*
X71095000Y-124250000D03*
X71047500Y-126510000D03*
X72952500Y-126510000D03*
X88452500Y-111240000D03*
X86547500Y-111240000D03*
X86547500Y-108990000D03*
X88452500Y-108990000D03*
X88452500Y-106740000D03*
X86547500Y-106740000D03*
X72202500Y-85260000D03*
X70297500Y-85260000D03*
X70297500Y-83010000D03*
X72202500Y-83010000D03*
X72202500Y-80760000D03*
X70297500Y-80760000D03*
X81547500Y-70510000D03*
X83452500Y-70510000D03*
X83452500Y-72760000D03*
X81547500Y-72760000D03*
X81547500Y-75010000D03*
X83452500Y-75010000D03*
X101797500Y-97760000D03*
X103702500Y-97760000D03*
X102952500Y-128010000D03*
X101047500Y-128010000D03*
X101047500Y-125760000D03*
X102952500Y-125760000D03*
X102952500Y-123510000D03*
X101047500Y-123510000D03*
X101202500Y-109490000D03*
X99297500Y-109490000D03*
X99297500Y-107240000D03*
X101202500Y-107240000D03*
X99297500Y-104990000D03*
X101202500Y-104990000D03*
X103297500Y-92010000D03*
X105202500Y-92010000D03*
X105202500Y-89760000D03*
X103297500Y-89760000D03*
X103297500Y-87510000D03*
X105202500Y-87510000D03*
X101952500Y-73990000D03*
X100047500Y-73990000D03*
X101952500Y-71740000D03*
X100047500Y-71740000D03*
X100047500Y-69490000D03*
X101952500Y-69490000D03*
X120047500Y-95240000D03*
X121952500Y-95240000D03*
X113297500Y-131010000D03*
X115202500Y-131010000D03*
X113297500Y-128760000D03*
X115202500Y-128760000D03*
X115202500Y-126510000D03*
X113297500Y-126510000D03*
X124250000Y-111750000D03*
X122345000Y-111750000D03*
X122297500Y-109510000D03*
X124202500Y-109510000D03*
X122297500Y-107260000D03*
X124202500Y-107260000D03*
X115047500Y-88010000D03*
X116952500Y-88010000D03*
X115047500Y-85760000D03*
X116952500Y-85760000D03*
X116952500Y-83510000D03*
X115047500Y-83510000D03*
X120702500Y-75010000D03*
X118797500Y-75010000D03*
X120702500Y-72760000D03*
X118797500Y-72760000D03*
X118797500Y-70510000D03*
X120702500Y-70510000D03*
X137452500Y-97760000D03*
X135547500Y-97760000D03*
X137297500Y-130010000D03*
X139202500Y-130010000D03*
X139202500Y-127760000D03*
X137297500Y-127760000D03*
X139202500Y-125510000D03*
X137297500Y-125510000D03*
X134047500Y-111740000D03*
X135952500Y-111740000D03*
X135952500Y-109490000D03*
X134047500Y-109490000D03*
X135952500Y-107240000D03*
X134047500Y-107240000D03*
X141452500Y-91490000D03*
X139547500Y-91490000D03*
X139547500Y-89240000D03*
X141452500Y-89240000D03*
X139547500Y-86990000D03*
X141452500Y-86990000D03*
X136702500Y-73740000D03*
X134797500Y-73740000D03*
X134797500Y-71490000D03*
X136702500Y-71490000D03*
X136702500Y-69240000D03*
X134797500Y-69240000D03*
X152297500Y-95240000D03*
X154202500Y-95240000D03*
X149452500Y-130760000D03*
X147547500Y-130760000D03*
X149405000Y-128500000D03*
X147500000Y-128500000D03*
X147547500Y-126260000D03*
X149452500Y-126260000D03*
X153897500Y-111510000D03*
X155802500Y-111510000D03*
X155802500Y-109260000D03*
X153897500Y-109260000D03*
X153897500Y-107010000D03*
X155802500Y-107010000D03*
X149452500Y-87510000D03*
X147547500Y-87510000D03*
X147547500Y-85260000D03*
X149452500Y-85260000D03*
X149452500Y-83010000D03*
X147547500Y-83010000D03*
X150797500Y-75010000D03*
X152702500Y-75010000D03*
X152702500Y-72760000D03*
X150797500Y-72760000D03*
X152702500Y-70510000D03*
X150797500Y-70510000D03*
X167547500Y-97760000D03*
X169452500Y-97760000D03*
X173452500Y-130010000D03*
X171547500Y-130010000D03*
X173452500Y-127760000D03*
X171547500Y-127760000D03*
X171352500Y-109690000D03*
X169447500Y-109690000D03*
X171352500Y-107440000D03*
X169447500Y-107440000D03*
X173452500Y-90990000D03*
X171547500Y-90990000D03*
X171547500Y-88740000D03*
X173452500Y-88740000D03*
X165297500Y-72490000D03*
X167202500Y-72490000D03*
X167202500Y-70240000D03*
X165297500Y-70240000D03*
X184047500Y-95240000D03*
X185952500Y-95240000D03*
X181797500Y-130510000D03*
X183702500Y-130510000D03*
X181797500Y-128260000D03*
X183702500Y-128260000D03*
X188297500Y-109510000D03*
X190202500Y-109510000D03*
X190202500Y-107260000D03*
X188297500Y-107260000D03*
X177797500Y-87010000D03*
X179702500Y-87010000D03*
X179750000Y-84750000D03*
X177845000Y-84750000D03*
X182952500Y-71760000D03*
X181047500Y-71760000D03*
X182952500Y-69510000D03*
X181047500Y-69510000D03*
D13*
X60760000Y-97047500D03*
X60760000Y-98952500D03*
X63010000Y-98952500D03*
X63010000Y-97047500D03*
D12*
X59452500Y-129010000D03*
X57547500Y-129010000D03*
X57547500Y-126750000D03*
X59452500Y-126750000D03*
X59452500Y-124510000D03*
X57547500Y-124510000D03*
X60702500Y-112240000D03*
X58797500Y-112240000D03*
X60702500Y-109990000D03*
X58797500Y-109990000D03*
X58797500Y-107740000D03*
X60702500Y-107740000D03*
X52547500Y-88510000D03*
X54452500Y-88510000D03*
X52547500Y-90760000D03*
X54452500Y-90760000D03*
X52547500Y-93010000D03*
X54452500Y-93010000D03*
X58797500Y-75990000D03*
X60702500Y-75990000D03*
X60702500Y-73740000D03*
X58797500Y-73740000D03*
X58797500Y-71490000D03*
X60702500Y-71490000D03*
D14*
X221990000Y-136980000D03*
X221990000Y-135080000D03*
X223990000Y-136030000D03*
X211010000Y-83970000D03*
X213010000Y-84920000D03*
X213010000Y-83020000D03*
X213010000Y-90020000D03*
X213010000Y-91920000D03*
X211010000Y-90970000D03*
X211010000Y-97970000D03*
X213010000Y-98920000D03*
X213010000Y-97020000D03*
X213010000Y-104020000D03*
X213010000Y-105920000D03*
X211010000Y-104970000D03*
X211010000Y-111970000D03*
X213010000Y-112920000D03*
X213010000Y-111020000D03*
X211010000Y-118970000D03*
X213010000Y-119920000D03*
X213010000Y-118020000D03*
X213010000Y-125020000D03*
X213010000Y-126920000D03*
X211010000Y-125970000D03*
X213010000Y-76020000D03*
X213010000Y-77920000D03*
X211010000Y-76970000D03*
D15*
X209010000Y-82250000D03*
X209010000Y-84000000D03*
X208760000Y-91125000D03*
X208760000Y-89375000D03*
X209010000Y-98125000D03*
X209010000Y-96375000D03*
X208760000Y-103375000D03*
X208760000Y-105125000D03*
X209010000Y-110375000D03*
X209010000Y-112125000D03*
X209010000Y-117375000D03*
X209010000Y-119125000D03*
X208760000Y-126125000D03*
X208760000Y-124375000D03*
X209010000Y-77125000D03*
X209010000Y-75375000D03*
D14*
X215010000Y-75970000D03*
X217010000Y-76920000D03*
X217010000Y-75020000D03*
X217010000Y-82020000D03*
X217010000Y-83920000D03*
X215010000Y-82970000D03*
X217010000Y-89020000D03*
X217010000Y-90920000D03*
X215010000Y-89970000D03*
X217010000Y-96000000D03*
X217010000Y-97900000D03*
X215010000Y-96950000D03*
X215010000Y-103970000D03*
X217010000Y-104920000D03*
X217010000Y-103020000D03*
X217010000Y-110020000D03*
X217010000Y-111920000D03*
X215010000Y-110970000D03*
X215010000Y-117970000D03*
X217010000Y-118920000D03*
X217010000Y-117020000D03*
X215010000Y-124970000D03*
X217010000Y-125920000D03*
X217010000Y-124020000D03*
D16*
X220125000Y-73990000D03*
X221875000Y-73990000D03*
X220125000Y-77010000D03*
X221875000Y-77010000D03*
X220125000Y-80990000D03*
X221875000Y-80990000D03*
X220125000Y-84010000D03*
X221875000Y-84010000D03*
D15*
X241010000Y-99875000D03*
X241010000Y-98125000D03*
X238010000Y-98125000D03*
X238010000Y-99875000D03*
D16*
X220125000Y-87990000D03*
X221875000Y-87990000D03*
X220125000Y-91010000D03*
X221875000Y-91010000D03*
X220125000Y-94990000D03*
X221875000Y-94990000D03*
X220125000Y-98010000D03*
X221875000Y-98010000D03*
X220125000Y-101990000D03*
X221875000Y-101990000D03*
X220125000Y-105010000D03*
X221875000Y-105010000D03*
X220125000Y-108990000D03*
X221875000Y-108990000D03*
X220125000Y-112010000D03*
X221875000Y-112010000D03*
X220125000Y-115990000D03*
X221875000Y-115990000D03*
X221875000Y-119010000D03*
X220125000Y-119010000D03*
X221875000Y-122990000D03*
X220125000Y-122990000D03*
X220125000Y-126010000D03*
X221875000Y-126010000D03*
D17*
X230730000Y-98000000D03*
X232000000Y-98000000D03*
X233270000Y-98000000D03*
X233270000Y-101000000D03*
X232000000Y-101000000D03*
X230730000Y-101000000D03*
X233270000Y-104000000D03*
X232000000Y-104000000D03*
X230730000Y-104000000D03*
D18*
X232050000Y-95275000D03*
X232050000Y-94625000D03*
X232050000Y-93975000D03*
X232050000Y-93325000D03*
X232050000Y-92675000D03*
X232050000Y-92025000D03*
X232050000Y-91375000D03*
X232050000Y-90725000D03*
X237950000Y-90725000D03*
X237950000Y-91375000D03*
X237950000Y-92025000D03*
X237950000Y-92675000D03*
X237950000Y-93325000D03*
X237950000Y-93975000D03*
X237950000Y-94625000D03*
X237950000Y-95275000D03*
D19*
X229850000Y-109000000D03*
D20*
X236150000Y-109000000D03*
X236150000Y-111300000D03*
X236150000Y-106700000D03*
D12*
X240047500Y-102410000D03*
X241952500Y-102410000D03*
X87952500Y-144010000D03*
X86047500Y-144010000D03*
X84952500Y-55990000D03*
X83047500Y-55990000D03*
X104047500Y-144010000D03*
X105952500Y-144010000D03*
X102047500Y-55990000D03*
X103952500Y-55990000D03*
X123952500Y-144010000D03*
X122047500Y-144010000D03*
X122952500Y-55990000D03*
X121047500Y-55990000D03*
X140952500Y-144010000D03*
X139047500Y-144010000D03*
X138952500Y-55990000D03*
X137047500Y-55990000D03*
X157952500Y-144010000D03*
X156047500Y-144010000D03*
X154952500Y-55990000D03*
X153047500Y-55990000D03*
X174952500Y-144010000D03*
X173047500Y-144010000D03*
X170952500Y-55990000D03*
X169047500Y-55990000D03*
X190047500Y-144010000D03*
X191952500Y-144010000D03*
X185047500Y-55990000D03*
X186952500Y-55990000D03*
X69952500Y-144010000D03*
X68047500Y-144010000D03*
X65952500Y-55990000D03*
X64047500Y-55990000D03*
D13*
X226000000Y-131500000D03*
X226000000Y-133405000D03*
D12*
X222047500Y-143490000D03*
X223952500Y-143490000D03*
G36*
G01*
X245543750Y-103375000D02*
X246456250Y-103375000D01*
G75*
G02*
X246700000Y-103618750I0J-243750D01*
G01*
X246700000Y-104106250D01*
G75*
G02*
X246456250Y-104350000I-243750J0D01*
G01*
X245543750Y-104350000D01*
G75*
G02*
X245300000Y-104106250I0J243750D01*
G01*
X245300000Y-103618750D01*
G75*
G02*
X245543750Y-103375000I243750J0D01*
G01*
G37*
G36*
G01*
X245543750Y-105250000D02*
X246456250Y-105250000D01*
G75*
G02*
X246700000Y-105493750I0J-243750D01*
G01*
X246700000Y-105981250D01*
G75*
G02*
X246456250Y-106225000I-243750J0D01*
G01*
X245543750Y-106225000D01*
G75*
G02*
X245300000Y-105981250I0J243750D01*
G01*
X245300000Y-105493750D01*
G75*
G02*
X245543750Y-105250000I243750J0D01*
G01*
G37*
M02*
