G04 #@! TF.GenerationSoftware,KiCad,Pcbnew,5.1.12-84ad8e8a86~92~ubuntu20.04.1*
G04 #@! TF.CreationDate,2022-02-12T14:31:20-08:00*
G04 #@! TF.ProjectId,lp_filter_8_bands,6c705f66-696c-4746-9572-5f385f62616e,rev?*
G04 #@! TF.SameCoordinates,Original*
G04 #@! TF.FileFunction,Soldermask,Top*
G04 #@! TF.FilePolarity,Negative*
%FSLAX46Y46*%
G04 Gerber Fmt 4.6, Leading zero omitted, Abs format (unit mm)*
G04 Created by KiCad (PCBNEW 5.1.12-84ad8e8a86~92~ubuntu20.04.1) date 2022-02-12 14:31:20*
%MOMM*%
%LPD*%
G01*
G04 APERTURE LIST*
%ADD10C,0.100000*%
%ADD11C,2.000000*%
%ADD12R,3.600000X1.270000*%
%ADD13R,4.200000X1.350000*%
%ADD14R,1.200000X1.200000*%
%ADD15O,2.100000X1.400000*%
%ADD16R,2.100000X1.400000*%
%ADD17R,2.032000X2.032000*%
%ADD18R,1.300000X0.900000*%
%ADD19R,0.900000X1.300000*%
%ADD20C,0.800000*%
%ADD21C,7.000000*%
G04 APERTURE END LIST*
D10*
G36*
X196000000Y-109200000D02*
G01*
X51400000Y-109200000D01*
X51400000Y-104600000D01*
X196000000Y-104600000D01*
X196000000Y-109200000D01*
G37*
X196000000Y-109200000D02*
X51400000Y-109200000D01*
X51400000Y-104600000D01*
X196000000Y-104600000D01*
X196000000Y-109200000D01*
D11*
X229420000Y-143640000D03*
X226880000Y-143640000D03*
X229420000Y-136020000D03*
X226880000Y-136020000D03*
X216720000Y-136020000D03*
X216720000Y-143640000D03*
X88540000Y-53380000D03*
X88540000Y-55920000D03*
X80920000Y-53380000D03*
X80920000Y-55920000D03*
X80920000Y-66080000D03*
X88540000Y-66080000D03*
D12*
X247700000Y-134000000D03*
D13*
X247500000Y-131450000D03*
X247500000Y-136550000D03*
D12*
X247700000Y-117000000D03*
D13*
X247500000Y-114450000D03*
X247500000Y-119550000D03*
D12*
X247700000Y-66000000D03*
D13*
X247500000Y-63450000D03*
X247500000Y-68550000D03*
D11*
X124500000Y-121500000D03*
X118500000Y-128500000D03*
X117500000Y-92500000D03*
X124500000Y-98500000D03*
X123500000Y-72500000D03*
X117500000Y-79500000D03*
X134500000Y-119500000D03*
X141500000Y-125500000D03*
X139500000Y-94500000D03*
X133500000Y-101500000D03*
X134500000Y-76500000D03*
X141500000Y-82500000D03*
X158500000Y-121500000D03*
X152500000Y-128500000D03*
X149500000Y-92500000D03*
X156500000Y-98500000D03*
X155500000Y-72500000D03*
X149500000Y-79500000D03*
X168500000Y-119500000D03*
X175500000Y-125500000D03*
X171500000Y-94500000D03*
X165500000Y-101500000D03*
X164500000Y-76500000D03*
X171500000Y-82500000D03*
X192500000Y-121500000D03*
X186500000Y-128500000D03*
X181500000Y-92500000D03*
X188500000Y-98500000D03*
X185500000Y-72500000D03*
X179500000Y-79500000D03*
X98500000Y-116000000D03*
X105500000Y-124000000D03*
X107000000Y-94500000D03*
X99000000Y-101500000D03*
X99500000Y-77000000D03*
X106500000Y-85000000D03*
X86500000Y-114500000D03*
X75500000Y-123500000D03*
X77500000Y-87500000D03*
X86500000Y-98500000D03*
X86500000Y-70500000D03*
X75500000Y-79500000D03*
X52500000Y-115000000D03*
X61500000Y-126000000D03*
X57500000Y-102500000D03*
X68500000Y-93500000D03*
X52500000Y-74500000D03*
X61500000Y-85500000D03*
D14*
X210700000Y-83250000D03*
X212800000Y-83250000D03*
X212800000Y-90250000D03*
X210700000Y-90250000D03*
X210700000Y-97250000D03*
X212800000Y-97250000D03*
X212800000Y-104250000D03*
X210700000Y-104250000D03*
X210700000Y-111250000D03*
X212800000Y-111250000D03*
X210700000Y-118250000D03*
X212800000Y-118250000D03*
X212800000Y-125250000D03*
X210700000Y-125250000D03*
X212800000Y-76250000D03*
X210700000Y-76250000D03*
D15*
X246000000Y-99250000D03*
X246000000Y-96750000D03*
D16*
X246000000Y-101750000D03*
D15*
X246000000Y-94250000D03*
X246000000Y-91750000D03*
X246000000Y-89250000D03*
X246000000Y-86750000D03*
X246000000Y-84250000D03*
D11*
X82460000Y-133920000D03*
X90080000Y-133920000D03*
X90080000Y-144080000D03*
X90080000Y-146620000D03*
X82460000Y-144080000D03*
X82460000Y-146620000D03*
X100460000Y-133920000D03*
X108080000Y-133920000D03*
X108080000Y-144080000D03*
X108080000Y-146620000D03*
X100460000Y-144080000D03*
X100460000Y-146620000D03*
X107540000Y-53380000D03*
X107540000Y-55920000D03*
X99920000Y-53380000D03*
X99920000Y-55920000D03*
X99920000Y-66080000D03*
X107540000Y-66080000D03*
X118460000Y-146620000D03*
X118460000Y-144080000D03*
X126080000Y-146620000D03*
X126080000Y-144080000D03*
X126080000Y-133920000D03*
X118460000Y-133920000D03*
X126540000Y-66080000D03*
X118920000Y-66080000D03*
X118920000Y-55920000D03*
X118920000Y-53380000D03*
X126540000Y-55920000D03*
X126540000Y-53380000D03*
X135460000Y-146620000D03*
X135460000Y-144080000D03*
X143080000Y-146620000D03*
X143080000Y-144080000D03*
X143080000Y-133920000D03*
X135460000Y-133920000D03*
X142540000Y-66080000D03*
X134920000Y-66080000D03*
X134920000Y-55920000D03*
X134920000Y-53380000D03*
X142540000Y-55920000D03*
X142540000Y-53380000D03*
X152460000Y-146620000D03*
X152460000Y-144080000D03*
X160080000Y-146620000D03*
X160080000Y-144080000D03*
X160080000Y-133920000D03*
X152460000Y-133920000D03*
X158540000Y-66080000D03*
X150920000Y-66080000D03*
X150920000Y-55920000D03*
X150920000Y-53380000D03*
X158540000Y-55920000D03*
X158540000Y-53380000D03*
X169460000Y-133920000D03*
X177080000Y-133920000D03*
X177080000Y-144080000D03*
X177080000Y-146620000D03*
X169460000Y-144080000D03*
X169460000Y-146620000D03*
X174540000Y-53380000D03*
X174540000Y-55920000D03*
X166920000Y-53380000D03*
X166920000Y-55920000D03*
X166920000Y-66080000D03*
X174540000Y-66080000D03*
X186460000Y-146620000D03*
X186460000Y-144080000D03*
X194080000Y-146620000D03*
X194080000Y-144080000D03*
X194080000Y-133920000D03*
X186460000Y-133920000D03*
X190540000Y-66080000D03*
X182920000Y-66080000D03*
X182920000Y-55920000D03*
X182920000Y-53380000D03*
X190540000Y-55920000D03*
X190540000Y-53380000D03*
X64460000Y-146620000D03*
X64460000Y-144080000D03*
X72080000Y-146620000D03*
X72080000Y-144080000D03*
X72080000Y-133920000D03*
X64460000Y-133920000D03*
X69540000Y-66080000D03*
X61920000Y-66080000D03*
X61920000Y-55920000D03*
X61920000Y-53380000D03*
X69540000Y-55920000D03*
X69540000Y-53380000D03*
D17*
X225800000Y-66000000D03*
D18*
X195210000Y-55647500D03*
X195210000Y-57552500D03*
X197590000Y-142847500D03*
X197590000Y-144752500D03*
D19*
X233152500Y-82390000D03*
X231247500Y-82390000D03*
X233152500Y-85790000D03*
X231247500Y-85790000D03*
G36*
G01*
X236550000Y-85343750D02*
X236550000Y-86256250D01*
G75*
G02*
X236306250Y-86500000I-243750J0D01*
G01*
X235818750Y-86500000D01*
G75*
G02*
X235575000Y-86256250I0J243750D01*
G01*
X235575000Y-85343750D01*
G75*
G02*
X235818750Y-85100000I243750J0D01*
G01*
X236306250Y-85100000D01*
G75*
G02*
X236550000Y-85343750I0J-243750D01*
G01*
G37*
G36*
G01*
X238425000Y-85343750D02*
X238425000Y-86256250D01*
G75*
G02*
X238181250Y-86500000I-243750J0D01*
G01*
X237693750Y-86500000D01*
G75*
G02*
X237450000Y-86256250I0J243750D01*
G01*
X237450000Y-85343750D01*
G75*
G02*
X237693750Y-85100000I243750J0D01*
G01*
X238181250Y-85100000D01*
G75*
G02*
X238425000Y-85343750I0J-243750D01*
G01*
G37*
G36*
G01*
X238425000Y-81943750D02*
X238425000Y-82856250D01*
G75*
G02*
X238181250Y-83100000I-243750J0D01*
G01*
X237693750Y-83100000D01*
G75*
G02*
X237450000Y-82856250I0J243750D01*
G01*
X237450000Y-81943750D01*
G75*
G02*
X237693750Y-81700000I243750J0D01*
G01*
X238181250Y-81700000D01*
G75*
G02*
X238425000Y-81943750I0J-243750D01*
G01*
G37*
G36*
G01*
X236550000Y-81943750D02*
X236550000Y-82856250D01*
G75*
G02*
X236306250Y-83100000I-243750J0D01*
G01*
X235818750Y-83100000D01*
G75*
G02*
X235575000Y-82856250I0J243750D01*
G01*
X235575000Y-81943750D01*
G75*
G02*
X235818750Y-81700000I243750J0D01*
G01*
X236306250Y-81700000D01*
G75*
G02*
X236550000Y-81943750I0J-243750D01*
G01*
G37*
D20*
X56856155Y-53143845D03*
X55000000Y-52375000D03*
X53143845Y-53143845D03*
X52375000Y-55000000D03*
X53143845Y-56856155D03*
X55000000Y-57625000D03*
X56856155Y-56856155D03*
X57625000Y-55000000D03*
D21*
X55000000Y-55000000D03*
X245000000Y-55000000D03*
D20*
X247625000Y-55000000D03*
X246856155Y-56856155D03*
X245000000Y-57625000D03*
X243143845Y-56856155D03*
X242375000Y-55000000D03*
X243143845Y-53143845D03*
X245000000Y-52375000D03*
X246856155Y-53143845D03*
X246856155Y-143143845D03*
X245000000Y-142375000D03*
X243143845Y-143143845D03*
X242375000Y-145000000D03*
X243143845Y-146856155D03*
X245000000Y-147625000D03*
X246856155Y-146856155D03*
X247625000Y-145000000D03*
D21*
X245000000Y-145000000D03*
X55000000Y-145000000D03*
D20*
X57625000Y-145000000D03*
X56856155Y-146856155D03*
X55000000Y-147625000D03*
X53143845Y-146856155D03*
X52375000Y-145000000D03*
X53143845Y-143143845D03*
X55000000Y-142375000D03*
X56856155Y-143143845D03*
X130856155Y-84143845D03*
X129000000Y-83375000D03*
X127143845Y-84143845D03*
X126375000Y-86000000D03*
X127143845Y-87856155D03*
X129000000Y-88625000D03*
X130856155Y-87856155D03*
X131625000Y-86000000D03*
D21*
X129000000Y-86000000D03*
X163000000Y-114000000D03*
D20*
X165625000Y-114000000D03*
X164856155Y-115856155D03*
X163000000Y-116625000D03*
X161143845Y-115856155D03*
X160375000Y-114000000D03*
X161143845Y-112143845D03*
X163000000Y-111375000D03*
X164856155Y-112143845D03*
M02*
