%FSLAX45Y45*%
G04 Gerber Fmt 4.5, Leading zero omitted, Abs format (unit mm)*
G04 Created by KiCad (PCBNEW 5.1.12-84ad8e8a86~92~ubuntu20.04.1) date 2022-02-12 14:31:15*
%MOMM*%
%LPD*%
G01*
G04 APERTURE LIST*
%TA.AperFunction,Profile*%
%ADD10C,0.150000*%
%TD*%
%ADD11C,0.200000*%
%ADD12C,0.300000*%
G04 APERTURE END LIST*
D10*
X5000000Y-15000000D02*
X5000000Y-5000000D01*
X25000000Y-15000000D02*
X5000000Y-15000000D01*
X25000000Y-5000000D02*
X25000000Y-15000000D01*
X5000000Y-5000000D02*
X25000000Y-5000000D01*
D11*
D12*
X5278928Y-15473214D02*
X5278928Y-15173214D01*
X5350357Y-15173214D01*
X5393214Y-15187500D01*
X5421786Y-15216071D01*
X5436071Y-15244643D01*
X5450357Y-15301786D01*
X5450357Y-15344643D01*
X5436071Y-15401786D01*
X5421786Y-15430357D01*
X5393214Y-15458929D01*
X5350357Y-15473214D01*
X5278928Y-15473214D01*
X5578928Y-15473214D02*
X5578928Y-15273214D01*
X5578928Y-15330357D02*
X5593214Y-15301786D01*
X5607500Y-15287500D01*
X5636071Y-15273214D01*
X5664643Y-15273214D01*
X5764643Y-15473214D02*
X5764643Y-15273214D01*
X5764643Y-15173214D02*
X5750357Y-15187500D01*
X5764643Y-15201786D01*
X5778928Y-15187500D01*
X5764643Y-15173214D01*
X5764643Y-15201786D01*
X5950357Y-15473214D02*
X5921786Y-15458929D01*
X5907500Y-15430357D01*
X5907500Y-15173214D01*
X6107500Y-15473214D02*
X6078928Y-15458929D01*
X6064643Y-15430357D01*
X6064643Y-15173214D01*
X6450357Y-15473214D02*
X6450357Y-15173214D01*
X6550357Y-15387500D01*
X6650357Y-15173214D01*
X6650357Y-15473214D01*
X6921786Y-15473214D02*
X6921786Y-15316071D01*
X6907500Y-15287500D01*
X6878928Y-15273214D01*
X6821786Y-15273214D01*
X6793214Y-15287500D01*
X6921786Y-15458929D02*
X6893214Y-15473214D01*
X6821786Y-15473214D01*
X6793214Y-15458929D01*
X6778928Y-15430357D01*
X6778928Y-15401786D01*
X6793214Y-15373214D01*
X6821786Y-15358929D01*
X6893214Y-15358929D01*
X6921786Y-15344643D01*
X7064643Y-15273214D02*
X7064643Y-15573214D01*
X7064643Y-15287500D02*
X7093214Y-15273214D01*
X7150357Y-15273214D01*
X7178928Y-15287500D01*
X7193214Y-15301786D01*
X7207500Y-15330357D01*
X7207500Y-15416071D01*
X7193214Y-15444643D01*
X7178928Y-15458929D01*
X7150357Y-15473214D01*
X7093214Y-15473214D01*
X7064643Y-15458929D01*
X7336071Y-15444643D02*
X7350357Y-15458929D01*
X7336071Y-15473214D01*
X7321786Y-15458929D01*
X7336071Y-15444643D01*
X7336071Y-15473214D01*
X7336071Y-15287500D02*
X7350357Y-15301786D01*
X7336071Y-15316071D01*
X7321786Y-15301786D01*
X7336071Y-15287500D01*
X7336071Y-15316071D01*
M02*
