M48
; DRILL file {KiCad 5.1.12-84ad8e8a86~92~ubuntu20.04.1} date Sat 12 Feb 2022 02:31:16 PM PST
; FORMAT={-:-/ absolute / metric / decimal}
; #@! TF.CreationDate,2022-02-12T14:31:16-08:00
; #@! TF.GenerationSoftware,Kicad,Pcbnew,5.1.12-84ad8e8a86~92~ubuntu20.04.1
; #@! TF.FileFunction,Plated,1,2,PTH
FMAT,2
METRIC
T1C0.300
T2C0.500
T3C0.900
T4C1.000
T5C1.016
T6C3.500
%
G90
G05
T1
X51.0Y-88.6
X51.0Y-89.4
X51.0Y-90.2
X51.0Y-91.0
X51.0Y-91.8
X51.0Y-92.6
X52.0Y-64.0
X52.0Y-80.0
X52.0Y-110.0
X52.0Y-124.0
X56.0Y-124.6
X56.0Y-125.4
X56.0Y-126.2
X56.0Y-127.0
X56.0Y-127.8
X56.0Y-128.6
X62.2Y-71.8
X62.2Y-72.6
X62.2Y-73.4
X62.2Y-74.2
X62.2Y-75.0
X62.2Y-75.8
X62.2Y-108.0
X62.2Y-108.8
X62.2Y-109.6
X62.2Y-110.4
X62.2Y-111.2
X62.2Y-112.0
X65.8Y-60.0
X65.9Y-54.4
X66.8Y-144.0
X67.2Y-56.0
X68.0Y-140.2
X68.1Y-145.6
X68.8Y-81.0
X68.8Y-81.8
X68.8Y-82.6
X68.8Y-83.4
X68.8Y-84.2
X68.8Y-85.0
X69.6Y-122.4
X69.6Y-123.2
X69.6Y-124.0
X69.6Y-124.8
X69.6Y-125.6
X69.6Y-126.4
X74.0Y-52.0
X75.6Y-141.58
X76.0Y-52.0
X76.0Y-148.0
X77.0Y-63.6
X78.0Y-148.0
X80.0Y-70.8
X80.0Y-71.6
X80.0Y-72.4
X80.0Y-73.2
X80.0Y-74.0
X80.0Y-74.8
X84.0Y-60.0
X84.8Y-144.0
X84.9Y-54.3
X86.0Y-140.0
X86.1Y-145.6
X86.2Y-56.0
X90.0Y-107.2
X90.0Y-108.0
X90.0Y-108.8
X90.0Y-109.6
X90.0Y-110.4
X90.0Y-111.2
X93.6Y-141.18
X94.0Y-52.0
X94.0Y-148.0
X95.8Y-52.0
X96.0Y-63.2
X96.0Y-148.0
X99.6Y-123.8
X99.6Y-124.6
X99.6Y-125.4
X99.6Y-126.2
X99.6Y-127.0
X99.6Y-127.8
X101.8Y-87.8
X101.8Y-88.6
X101.8Y-89.4
X101.8Y-90.2
X101.8Y-91.0
X101.8Y-91.8
X102.8Y-105.2
X102.8Y-106.0
X102.8Y-106.8
X102.8Y-107.6
X102.8Y-108.4
X102.8Y-109.2
X102.8Y-144.0
X103.6Y-69.8
X103.6Y-70.6
X103.6Y-71.4
X103.6Y-72.2
X103.6Y-73.0
X103.6Y-73.8
X103.9Y-54.3
X104.0Y-60.0
X104.0Y-140.0
X104.0Y-145.4
X105.2Y-56.0
X111.4Y-140.78
X111.8Y-126.8
X111.8Y-127.6
X111.8Y-128.4
X111.8Y-129.2
X111.8Y-130.0
X111.8Y-130.8
X112.0Y-52.0
X112.0Y-148.0
X113.6Y-83.8
X113.6Y-84.6
X113.6Y-85.4
X113.6Y-86.2
X113.6Y-87.0
X113.6Y-87.8
X114.0Y-52.0
X114.0Y-148.0
X115.2Y-62.8
X117.2Y-70.6
X117.2Y-71.4
X117.2Y-72.2
X117.2Y-73.0
X117.2Y-73.8
X117.2Y-74.6
X120.8Y-107.6
X120.8Y-108.4
X120.8Y-109.2
X120.8Y-110.0
X120.8Y-110.8
X120.8Y-111.6
X120.8Y-144.0
X122.0Y-60.0
X122.0Y-140.0
X122.1Y-145.5
X122.9Y-54.3
X124.2Y-56.0
X129.6Y-140.38
X130.0Y-52.0
X130.0Y-148.0
X131.2Y-62.4
X132.0Y-148.0
X135.8Y-125.8
X135.8Y-126.6
X135.8Y-127.4
X135.8Y-128.2
X135.8Y-129.0
X135.8Y-129.8
X137.4Y-107.6
X137.4Y-108.4
X137.4Y-109.2
X137.4Y-110.0
X137.4Y-110.8
X137.4Y-111.6
X137.8Y-144.0
X138.0Y-60.0
X138.2Y-69.6
X138.2Y-70.4
X138.2Y-71.2
X138.2Y-72.0
X138.2Y-72.8
X138.2Y-73.6
X138.9Y-54.3
X139.0Y-145.5
X140.0Y-138.0
X140.2Y-56.0
X143.0Y-87.2
X143.0Y-88.0
X143.0Y-88.8
X143.0Y-89.6
X143.0Y-90.4
X143.0Y-91.2
X146.0Y-52.0
X146.0Y-83.2
X146.0Y-84.0
X146.0Y-84.8
X146.0Y-85.6
X146.0Y-86.4
X146.0Y-87.2
X146.0Y-126.4
X146.0Y-127.2
X146.0Y-128.0
X146.0Y-128.8
X146.0Y-129.6
X146.0Y-130.4
X146.0Y-148.0
X146.6Y-139.98
X147.2Y-62.0
X148.0Y-52.0
X148.0Y-148.0
X149.4Y-70.6
X149.4Y-71.4
X149.4Y-72.2
X149.4Y-73.0
X149.4Y-73.8
X149.4Y-74.6
X152.4Y-107.4
X152.4Y-108.2
X152.4Y-109.0
X152.4Y-109.8
X152.4Y-110.6
X152.4Y-111.4
X154.2Y-60.0
X154.8Y-144.0
X154.9Y-54.3
X156.0Y-138.0
X156.0Y-145.5
X156.2Y-56.0
X162.0Y-52.0
X163.2Y-61.6
X163.8Y-139.58
X164.0Y-52.0
X164.0Y-148.0
X166.0Y-148.0
X168.6Y-69.6
X168.6Y-70.4
X168.6Y-71.2
X168.6Y-72.0
X168.6Y-72.8
X168.6Y-73.6
X170.0Y-60.0
X170.2Y-127.0
X170.2Y-127.8
X170.2Y-128.6
X170.2Y-129.4
X170.2Y-130.2
X170.2Y-131.0
X170.9Y-54.4
X171.8Y-144.0
X172.2Y-56.0
X172.6Y-106.6
X172.6Y-107.4
X172.6Y-108.2
X172.6Y-109.0
X172.6Y-109.8
X172.6Y-110.6
X173.1Y-145.6
X174.0Y-138.0
X174.8Y-88.0
X174.8Y-88.8
X174.8Y-89.6
X174.8Y-90.4
X174.8Y-91.2
X174.8Y-92.0
X176.4Y-84.0
X176.4Y-84.8
X176.4Y-85.6
X176.4Y-86.4
X176.4Y-87.2
X176.4Y-88.0
X178.0Y-52.0
X179.2Y-61.2
X179.6Y-68.8
X179.6Y-69.6
X179.6Y-70.4
X179.6Y-71.2
X179.6Y-72.0
X179.6Y-72.8
X180.0Y-52.0
X180.0Y-148.0
X180.4Y-127.2
X180.4Y-128.0
X180.4Y-128.8
X180.4Y-129.6
X180.4Y-130.4
X180.4Y-131.2
X181.0Y-139.18
X182.0Y-148.0
X185.8Y-60.0
X187.0Y-54.3
X187.0Y-106.4
X187.0Y-107.2
X187.0Y-108.0
X187.0Y-108.8
X188.2Y-56.0
X188.8Y-144.0
X190.0Y-138.0
X190.1Y-145.5
X193.5Y-55.6
X194.0Y-52.0
X195.2Y-54.0
X196.0Y-52.0
X196.0Y-70.0
X196.0Y-78.0
X196.0Y-86.0
X196.0Y-94.0
X196.0Y-102.0
X196.0Y-110.0
X196.0Y-118.0
X196.0Y-145.1
X196.7Y-148.0
X196.8Y-55.6
X197.6Y-146.0
X197.8Y-52.0
X197.8Y-57.6
X198.0Y-138.78
X198.4Y-128.5
X198.4Y-129.5
X198.4Y-130.5
X198.4Y-131.5
X198.4Y-132.5
X198.4Y-133.5
X198.4Y-134.5
X198.4Y-135.5
X198.4Y-136.5
X198.4Y-137.5
X198.8Y-93.1
X198.8Y-93.9
X198.8Y-94.7
X198.8Y-100.5
X198.8Y-101.4
X198.8Y-102.2
X198.8Y-107.2
X198.8Y-108.0
X198.8Y-108.8
X198.8Y-114.3
X198.8Y-115.1
X198.8Y-115.9
X198.8Y-121.7
X198.8Y-123.0
X198.9Y-65.5
X198.9Y-66.3
X198.9Y-67.1
X198.9Y-67.9
X198.9Y-68.7
X198.9Y-69.5
X198.9Y-70.3
X198.9Y-71.1
X198.9Y-71.9
X198.9Y-72.7
X198.9Y-79.2
X198.9Y-80.0
X198.9Y-80.8
X198.9Y-86.1
X198.9Y-86.9
X198.9Y-87.7
X199.3Y-144.7
X199.3Y-148.0
X199.52Y-142.58
X199.7Y-52.0
X200.0Y-78.2
X200.0Y-85.2
X200.0Y-92.2
X200.0Y-99.4
X200.0Y-106.4
X200.0Y-113.4
X200.0Y-120.4
X200.0Y-127.4
X200.925Y-142.125
X201.0Y-64.6
X201.0Y-74.4
X201.5Y-52.0
X201.8Y-141.65
X201.8Y-64.2
X201.8Y-81.2
X202.6Y-63.8
X202.6Y-88.4
X202.6Y-141.2
X202.7Y-148.0
X203.2Y-52.0
X203.4Y-63.4
X203.4Y-95.4
X203.4Y-140.8
X204.2Y-63.0
X204.2Y-102.4
X204.2Y-140.4
X205.0Y-52.0
X205.0Y-62.6
X205.0Y-109.2
X205.0Y-139.98
X205.8Y-62.2
X205.8Y-116.6
X205.8Y-139.6
X205.9Y-148.0
X206.6Y-61.8
X206.6Y-123.4
X206.6Y-139.2
X206.8Y-52.0
X207.5Y-108.1
X207.6Y-65.4
X207.6Y-66.2
X207.6Y-67.0
X207.6Y-67.8
X207.6Y-68.6
X207.6Y-69.4
X207.6Y-70.2
X207.6Y-71.0
X207.6Y-71.8
X207.6Y-72.6
X207.6Y-101.3
X207.65Y-137.5
X207.675Y-134.5
X207.675Y-135.5
X207.675Y-136.5
X207.675Y-138.5
X207.7Y-80.2
X207.7Y-86.4
X207.7Y-87.3
X207.7Y-100.5
X207.7Y-114.8
X207.7Y-121.7
X207.7Y-128.5
X207.7Y-129.5
X207.7Y-130.5
X207.7Y-131.5
X207.7Y-132.5
X207.7Y-133.5
X207.8Y-79.4
X207.9Y-93.3
X208.0Y-94.3
X208.1Y-107.6
X208.2Y-115.4
X208.3Y-122.3
X208.4Y-52.0
X208.4Y-86.7
X208.4Y-100.9
X208.5Y-114.7
X208.6Y-79.8
X208.6Y-92.2
X208.6Y-106.4
X208.6Y-127.4
X208.7Y-93.8
X208.8Y-78.2
X208.8Y-85.2
X208.8Y-99.4
X208.8Y-108.1
X208.8Y-113.4
X208.8Y-120.4
X209.1Y-148.0
X210.0Y-52.0
X210.4Y-103.0
X210.6Y-75.0
X210.6Y-82.2
X210.6Y-96.0
X210.6Y-124.0
X210.8Y-89.0
X210.8Y-110.2
X210.8Y-117.2
X211.8Y-52.0
X212.3Y-148.0
X213.6Y-52.0
X213.97Y-82.97
X213.97Y-89.97
X213.97Y-103.97
X213.97Y-110.97
X213.97Y-117.97
X213.97Y-124.97
X214.0Y-76.0
X214.0Y-97.0
X214.4Y-146.8
X215.4Y-52.0
X216.4Y-148.4
X217.1Y-52.0
X218.2Y-77.0
X218.2Y-84.0
X218.2Y-91.0
X218.2Y-97.8
X218.2Y-105.0
X218.2Y-118.8
X218.2Y-126.0
X218.7Y-52.0
X220.2Y-52.0
X220.62Y-141.21
X220.624Y-136.946
X221.8Y-52.0
X221.9Y-124.5
X223.0Y-74.0
X223.0Y-77.0
X223.0Y-84.0
X223.0Y-91.0
X223.0Y-98.0
X223.0Y-105.0
X223.0Y-119.0
X223.2Y-81.0
X223.2Y-88.0
X223.2Y-112.0
X223.4Y-52.0
X224.0Y-88.8
X225.1Y-52.0
X225.1Y-124.4
X225.5Y-99.1
X226.7Y-52.0
X228.0Y-60.0
X228.0Y-76.0
X228.0Y-84.0
X228.0Y-137.5
X228.2Y-124.0
X228.2Y-125.5
X228.2Y-127.0
X228.2Y-128.5
X228.2Y-130.0
X228.2Y-131.5
X228.2Y-133.0
X228.2Y-134.5
X228.5Y-52.0
X228.5Y-141.5
X229.0Y-138.0
X229.2Y-123.1
X229.5Y-141.5
X229.6Y-98.0
X229.6Y-101.0
X229.6Y-104.0
X230.0Y-82.4
X230.0Y-85.8
X230.0Y-118.8
X230.0Y-138.0
X230.2Y-52.0
X230.3Y-122.0
X230.5Y-141.5
X230.9Y-125.1
X230.9Y-126.5
X230.9Y-128.0
X230.9Y-129.5
X230.9Y-131.0
X230.9Y-132.5
X230.9Y-134.0
X231.0Y-137.5
X231.5Y-135.0
X231.5Y-136.5
X231.7Y-121.7
X231.9Y-52.0
X231.9Y-142.2
X232.0Y-89.8
X232.0Y-144.8
X232.1Y-124.2
X233.0Y-57.6
X233.0Y-121.7
X233.03Y-114.51
X233.5Y-144.8
X233.6Y-96.4
X233.6Y-52.0
X233.6Y-124.2
X233.6Y-142.2
X234.2Y-72.2
X234.4Y-82.4
X234.4Y-121.7
X234.6Y-95.0
X234.9Y-144.8
X235.0Y-85.8
X235.1Y-124.2
X235.2Y-142.1
X235.4Y-52.0
X235.8Y-121.7
X236.0Y-118.8
X236.375Y-94.975
X236.4Y-124.2
X236.5Y-53.2
X236.5Y-54.7
X236.5Y-56.0
X236.5Y-57.4
X236.5Y-58.7
X236.5Y-60.1
X236.5Y-61.4
X236.6Y-140.8
X236.6Y-144.5
X236.8Y-62.9
X237.2Y-88.8
X237.3Y-121.7
X237.7Y-63.9
X237.7Y-139.8
X237.8Y-124.2
X237.8Y-143.3
X238.0Y-106.8
X238.5Y-121.0
X238.6Y-64.8
X238.8Y-102.4
X238.8Y-106.0
X238.8Y-138.7
X238.9Y-116.5
X238.9Y-142.2
X239.1Y-51.1
X239.1Y-52.5
X239.1Y-53.8
X239.1Y-55.2
X239.1Y-56.4
X239.1Y-57.8
X239.1Y-59.0
X239.1Y-60.2
X239.4Y-61.7
X239.4Y-120.1
X239.5Y-65.7
X239.5Y-123.8
X239.9Y-137.6
X240.0Y-141.1
X240.2Y-96.4
X240.4Y-62.8
X240.4Y-119.2
X240.5Y-66.6
X240.6Y-122.9
X240.8Y-88.0
X241.0Y-80.8
X241.0Y-136.4
X241.0Y-140.1
X241.4Y-63.8
X241.4Y-118.2
X241.6Y-121.8
X241.8Y-74.0
X242.0Y-135.4
X242.0Y-139.1
X242.4Y-96.4
X242.6Y-85.8
X242.8Y-120.6
X243.0Y-138.1
X243.1Y-134.3
X243.5Y-64.6
X243.7Y-137.4
X243.9Y-67.2
X244.0Y-133.4
X244.2Y-82.4
X244.2Y-119.4
X244.3Y-63.4
X244.3Y-68.5
X244.4Y-64.6
X244.4Y-115.7
X244.5Y-136.6
X245.9Y-129.6
X246.0Y-61.6
X246.0Y-80.2
X246.0Y-112.6
X246.2Y-70.4
X246.2Y-121.4
X246.2Y-138.4
X246.8Y-61.6
X246.8Y-112.6
X246.8Y-129.6
X247.0Y-70.4
X247.0Y-121.4
X247.0Y-138.4
X247.6Y-61.6
X247.6Y-112.6
X247.7Y-129.6
X247.8Y-70.4
X247.8Y-121.4
X247.8Y-138.4
X248.0Y-72.2
X248.4Y-61.6
X248.4Y-112.6
X248.6Y-70.4
X248.6Y-121.4
X248.6Y-122.4
X248.6Y-123.3
X248.6Y-124.2
X248.6Y-125.1
X248.6Y-126.0
X248.6Y-126.9
X248.6Y-127.8
X248.6Y-128.7
X248.6Y-129.6
X248.6Y-138.4
T2
X52.375Y-55.0
X52.375Y-145.0
X53.144Y-53.144
X53.144Y-56.856
X53.144Y-143.144
X53.144Y-146.856
X55.0Y-52.375
X55.0Y-57.625
X55.0Y-142.375
X55.0Y-147.625
X56.856Y-53.144
X56.856Y-56.856
X56.856Y-143.144
X56.856Y-146.856
X57.625Y-55.0
X57.625Y-145.0
X126.375Y-86.0
X127.144Y-84.144
X127.144Y-87.856
X129.0Y-83.375
X129.0Y-88.625
X130.856Y-84.144
X130.856Y-87.856
X131.625Y-86.0
X160.375Y-114.0
X161.144Y-112.144
X161.144Y-115.856
X163.0Y-111.375
X163.0Y-116.625
X164.856Y-112.144
X164.856Y-115.856
X165.625Y-114.0
X242.375Y-55.0
X242.375Y-145.0
X243.144Y-53.144
X243.144Y-56.856
X243.144Y-143.144
X243.144Y-146.856
X245.0Y-52.375
X245.0Y-57.625
X245.0Y-142.375
X245.0Y-147.625
X246.856Y-53.144
X246.856Y-56.856
X246.856Y-143.144
X246.856Y-146.856
X247.625Y-55.0
X247.625Y-145.0
T3
X246.0Y-84.25
X246.0Y-86.75
X246.0Y-89.25
X246.0Y-91.75
X246.0Y-94.25
X246.0Y-96.75
X246.0Y-99.25
X246.0Y-101.75
T4
X52.5Y-74.5
X52.5Y-115.0
X57.5Y-102.5
X61.5Y-85.5
X61.5Y-126.0
X61.92Y-53.38
X61.92Y-55.92
X61.92Y-66.08
X64.46Y-133.92
X64.46Y-144.08
X64.46Y-146.62
X68.5Y-93.5
X69.54Y-53.38
X69.54Y-55.92
X69.54Y-66.08
X72.08Y-133.92
X72.08Y-144.08
X72.08Y-146.62
X75.5Y-79.5
X75.5Y-123.5
X77.5Y-87.5
X80.92Y-53.38
X80.92Y-55.92
X80.92Y-66.08
X82.46Y-133.92
X82.46Y-144.08
X82.46Y-146.62
X86.5Y-70.5
X86.5Y-98.5
X86.5Y-114.5
X88.54Y-53.38
X88.54Y-55.92
X88.54Y-66.08
X90.08Y-133.92
X90.08Y-144.08
X90.08Y-146.62
X98.5Y-116.0
X99.0Y-101.5
X99.5Y-77.0
X99.92Y-53.38
X99.92Y-55.92
X99.92Y-66.08
X100.46Y-133.92
X100.46Y-144.08
X100.46Y-146.62
X105.5Y-124.0
X106.5Y-85.0
X107.0Y-94.5
X107.54Y-53.38
X107.54Y-55.92
X107.54Y-66.08
X108.08Y-133.92
X108.08Y-144.08
X108.08Y-146.62
X117.5Y-79.5
X117.5Y-92.5
X118.46Y-133.92
X118.46Y-144.08
X118.46Y-146.62
X118.5Y-128.5
X118.92Y-53.38
X118.92Y-55.92
X118.92Y-66.08
X123.5Y-72.5
X124.5Y-98.5
X124.5Y-121.5
X126.08Y-133.92
X126.08Y-144.08
X126.08Y-146.62
X126.54Y-53.38
X126.54Y-55.92
X126.54Y-66.08
X133.5Y-101.5
X134.5Y-76.5
X134.5Y-119.5
X134.92Y-53.38
X134.92Y-55.92
X134.92Y-66.08
X135.46Y-133.92
X135.46Y-144.08
X135.46Y-146.62
X139.5Y-94.5
X141.5Y-82.5
X141.5Y-125.5
X142.54Y-53.38
X142.54Y-55.92
X142.54Y-66.08
X143.08Y-133.92
X143.08Y-144.08
X143.08Y-146.62
X149.5Y-79.5
X149.5Y-92.5
X150.92Y-53.38
X150.92Y-55.92
X150.92Y-66.08
X152.46Y-133.92
X152.46Y-144.08
X152.46Y-146.62
X152.5Y-128.5
X155.5Y-72.5
X156.5Y-98.5
X158.5Y-121.5
X158.54Y-53.38
X158.54Y-55.92
X158.54Y-66.08
X160.08Y-133.92
X160.08Y-144.08
X160.08Y-146.62
X164.5Y-76.5
X165.5Y-101.5
X166.92Y-53.38
X166.92Y-55.92
X166.92Y-66.08
X168.5Y-119.5
X169.46Y-133.92
X169.46Y-144.08
X169.46Y-146.62
X171.5Y-82.5
X171.5Y-94.5
X174.54Y-53.38
X174.54Y-55.92
X174.54Y-66.08
X175.5Y-125.5
X177.08Y-133.92
X177.08Y-144.08
X177.08Y-146.62
X179.5Y-79.5
X181.5Y-92.5
X182.92Y-53.38
X182.92Y-55.92
X182.92Y-66.08
X185.5Y-72.5
X186.46Y-133.92
X186.46Y-144.08
X186.46Y-146.62
X186.5Y-128.5
X188.5Y-98.5
X190.54Y-53.38
X190.54Y-55.92
X190.54Y-66.08
X192.5Y-121.5
X194.08Y-133.92
X194.08Y-144.08
X194.08Y-146.62
X216.72Y-136.02
X216.72Y-143.64
X226.88Y-136.02
X226.88Y-143.64
X229.42Y-136.02
X229.42Y-143.64
T5
X225.8Y-66.0
T6
X55.0Y-55.0
X55.0Y-145.0
X129.0Y-86.0
X163.0Y-114.0
X245.0Y-55.0
X245.0Y-145.0
T0
M30
